G75*
%MOIN*%
%OFA0B0*%
%FSLAX25Y25*%
%IPPOS*%
%LPD*%
%AMOC8*
5,1,8,0,0,1.08239X$1,22.5*
%
%ADD10C,0.00000*%
D10*
X0001433Y0001000D02*
X0001433Y0246039D01*
X0390882Y0245252D01*
X0391669Y0001000D01*
X0001433Y0001000D01*
X0008087Y0013441D02*
X0008089Y0013584D01*
X0008095Y0013727D01*
X0008105Y0013869D01*
X0008119Y0014011D01*
X0008137Y0014153D01*
X0008159Y0014295D01*
X0008184Y0014435D01*
X0008214Y0014575D01*
X0008248Y0014714D01*
X0008285Y0014852D01*
X0008327Y0014989D01*
X0008372Y0015124D01*
X0008421Y0015258D01*
X0008473Y0015391D01*
X0008529Y0015523D01*
X0008589Y0015652D01*
X0008653Y0015780D01*
X0008720Y0015907D01*
X0008791Y0016031D01*
X0008865Y0016153D01*
X0008942Y0016273D01*
X0009023Y0016391D01*
X0009107Y0016507D01*
X0009194Y0016620D01*
X0009284Y0016731D01*
X0009378Y0016839D01*
X0009474Y0016945D01*
X0009573Y0017047D01*
X0009676Y0017147D01*
X0009780Y0017244D01*
X0009888Y0017339D01*
X0009998Y0017430D01*
X0010111Y0017518D01*
X0010226Y0017602D01*
X0010343Y0017684D01*
X0010463Y0017762D01*
X0010584Y0017837D01*
X0010708Y0017909D01*
X0010834Y0017977D01*
X0010961Y0018041D01*
X0011091Y0018102D01*
X0011222Y0018159D01*
X0011354Y0018213D01*
X0011488Y0018262D01*
X0011623Y0018309D01*
X0011760Y0018351D01*
X0011898Y0018389D01*
X0012036Y0018424D01*
X0012176Y0018454D01*
X0012316Y0018481D01*
X0012457Y0018504D01*
X0012599Y0018523D01*
X0012741Y0018538D01*
X0012884Y0018549D01*
X0013026Y0018556D01*
X0013169Y0018559D01*
X0013312Y0018558D01*
X0013455Y0018553D01*
X0013598Y0018544D01*
X0013740Y0018531D01*
X0013882Y0018514D01*
X0014023Y0018493D01*
X0014164Y0018468D01*
X0014304Y0018440D01*
X0014443Y0018407D01*
X0014581Y0018370D01*
X0014718Y0018330D01*
X0014854Y0018286D01*
X0014989Y0018238D01*
X0015122Y0018186D01*
X0015254Y0018131D01*
X0015384Y0018072D01*
X0015513Y0018009D01*
X0015639Y0017943D01*
X0015764Y0017873D01*
X0015887Y0017800D01*
X0016007Y0017724D01*
X0016126Y0017644D01*
X0016242Y0017560D01*
X0016356Y0017474D01*
X0016467Y0017384D01*
X0016576Y0017292D01*
X0016682Y0017196D01*
X0016786Y0017098D01*
X0016887Y0016996D01*
X0016984Y0016892D01*
X0017079Y0016785D01*
X0017171Y0016676D01*
X0017260Y0016564D01*
X0017346Y0016449D01*
X0017428Y0016333D01*
X0017507Y0016213D01*
X0017583Y0016092D01*
X0017655Y0015969D01*
X0017724Y0015844D01*
X0017789Y0015717D01*
X0017851Y0015588D01*
X0017909Y0015457D01*
X0017964Y0015325D01*
X0018014Y0015191D01*
X0018061Y0015056D01*
X0018105Y0014920D01*
X0018144Y0014783D01*
X0018179Y0014644D01*
X0018211Y0014505D01*
X0018239Y0014365D01*
X0018263Y0014224D01*
X0018283Y0014082D01*
X0018299Y0013940D01*
X0018311Y0013798D01*
X0018319Y0013655D01*
X0018323Y0013512D01*
X0018323Y0013370D01*
X0018319Y0013227D01*
X0018311Y0013084D01*
X0018299Y0012942D01*
X0018283Y0012800D01*
X0018263Y0012658D01*
X0018239Y0012517D01*
X0018211Y0012377D01*
X0018179Y0012238D01*
X0018144Y0012099D01*
X0018105Y0011962D01*
X0018061Y0011826D01*
X0018014Y0011691D01*
X0017964Y0011557D01*
X0017909Y0011425D01*
X0017851Y0011294D01*
X0017789Y0011165D01*
X0017724Y0011038D01*
X0017655Y0010913D01*
X0017583Y0010790D01*
X0017507Y0010669D01*
X0017428Y0010549D01*
X0017346Y0010433D01*
X0017260Y0010318D01*
X0017171Y0010206D01*
X0017079Y0010097D01*
X0016984Y0009990D01*
X0016887Y0009886D01*
X0016786Y0009784D01*
X0016682Y0009686D01*
X0016576Y0009590D01*
X0016467Y0009498D01*
X0016356Y0009408D01*
X0016242Y0009322D01*
X0016126Y0009238D01*
X0016007Y0009158D01*
X0015887Y0009082D01*
X0015764Y0009009D01*
X0015639Y0008939D01*
X0015513Y0008873D01*
X0015384Y0008810D01*
X0015254Y0008751D01*
X0015122Y0008696D01*
X0014989Y0008644D01*
X0014854Y0008596D01*
X0014718Y0008552D01*
X0014581Y0008512D01*
X0014443Y0008475D01*
X0014304Y0008442D01*
X0014164Y0008414D01*
X0014023Y0008389D01*
X0013882Y0008368D01*
X0013740Y0008351D01*
X0013598Y0008338D01*
X0013455Y0008329D01*
X0013312Y0008324D01*
X0013169Y0008323D01*
X0013026Y0008326D01*
X0012884Y0008333D01*
X0012741Y0008344D01*
X0012599Y0008359D01*
X0012457Y0008378D01*
X0012316Y0008401D01*
X0012176Y0008428D01*
X0012036Y0008458D01*
X0011898Y0008493D01*
X0011760Y0008531D01*
X0011623Y0008573D01*
X0011488Y0008620D01*
X0011354Y0008669D01*
X0011222Y0008723D01*
X0011091Y0008780D01*
X0010961Y0008841D01*
X0010834Y0008905D01*
X0010708Y0008973D01*
X0010584Y0009045D01*
X0010463Y0009120D01*
X0010343Y0009198D01*
X0010226Y0009280D01*
X0010111Y0009364D01*
X0009998Y0009452D01*
X0009888Y0009543D01*
X0009780Y0009638D01*
X0009676Y0009735D01*
X0009573Y0009835D01*
X0009474Y0009937D01*
X0009378Y0010043D01*
X0009284Y0010151D01*
X0009194Y0010262D01*
X0009107Y0010375D01*
X0009023Y0010491D01*
X0008942Y0010609D01*
X0008865Y0010729D01*
X0008791Y0010851D01*
X0008720Y0010975D01*
X0008653Y0011102D01*
X0008589Y0011230D01*
X0008529Y0011359D01*
X0008473Y0011491D01*
X0008421Y0011624D01*
X0008372Y0011758D01*
X0008327Y0011893D01*
X0008285Y0012030D01*
X0008248Y0012168D01*
X0008214Y0012307D01*
X0008184Y0012447D01*
X0008159Y0012587D01*
X0008137Y0012729D01*
X0008119Y0012871D01*
X0008105Y0013013D01*
X0008095Y0013155D01*
X0008089Y0013298D01*
X0008087Y0013441D01*
X0008087Y0233913D02*
X0008089Y0234056D01*
X0008095Y0234199D01*
X0008105Y0234341D01*
X0008119Y0234483D01*
X0008137Y0234625D01*
X0008159Y0234767D01*
X0008184Y0234907D01*
X0008214Y0235047D01*
X0008248Y0235186D01*
X0008285Y0235324D01*
X0008327Y0235461D01*
X0008372Y0235596D01*
X0008421Y0235730D01*
X0008473Y0235863D01*
X0008529Y0235995D01*
X0008589Y0236124D01*
X0008653Y0236252D01*
X0008720Y0236379D01*
X0008791Y0236503D01*
X0008865Y0236625D01*
X0008942Y0236745D01*
X0009023Y0236863D01*
X0009107Y0236979D01*
X0009194Y0237092D01*
X0009284Y0237203D01*
X0009378Y0237311D01*
X0009474Y0237417D01*
X0009573Y0237519D01*
X0009676Y0237619D01*
X0009780Y0237716D01*
X0009888Y0237811D01*
X0009998Y0237902D01*
X0010111Y0237990D01*
X0010226Y0238074D01*
X0010343Y0238156D01*
X0010463Y0238234D01*
X0010584Y0238309D01*
X0010708Y0238381D01*
X0010834Y0238449D01*
X0010961Y0238513D01*
X0011091Y0238574D01*
X0011222Y0238631D01*
X0011354Y0238685D01*
X0011488Y0238734D01*
X0011623Y0238781D01*
X0011760Y0238823D01*
X0011898Y0238861D01*
X0012036Y0238896D01*
X0012176Y0238926D01*
X0012316Y0238953D01*
X0012457Y0238976D01*
X0012599Y0238995D01*
X0012741Y0239010D01*
X0012884Y0239021D01*
X0013026Y0239028D01*
X0013169Y0239031D01*
X0013312Y0239030D01*
X0013455Y0239025D01*
X0013598Y0239016D01*
X0013740Y0239003D01*
X0013882Y0238986D01*
X0014023Y0238965D01*
X0014164Y0238940D01*
X0014304Y0238912D01*
X0014443Y0238879D01*
X0014581Y0238842D01*
X0014718Y0238802D01*
X0014854Y0238758D01*
X0014989Y0238710D01*
X0015122Y0238658D01*
X0015254Y0238603D01*
X0015384Y0238544D01*
X0015513Y0238481D01*
X0015639Y0238415D01*
X0015764Y0238345D01*
X0015887Y0238272D01*
X0016007Y0238196D01*
X0016126Y0238116D01*
X0016242Y0238032D01*
X0016356Y0237946D01*
X0016467Y0237856D01*
X0016576Y0237764D01*
X0016682Y0237668D01*
X0016786Y0237570D01*
X0016887Y0237468D01*
X0016984Y0237364D01*
X0017079Y0237257D01*
X0017171Y0237148D01*
X0017260Y0237036D01*
X0017346Y0236921D01*
X0017428Y0236805D01*
X0017507Y0236685D01*
X0017583Y0236564D01*
X0017655Y0236441D01*
X0017724Y0236316D01*
X0017789Y0236189D01*
X0017851Y0236060D01*
X0017909Y0235929D01*
X0017964Y0235797D01*
X0018014Y0235663D01*
X0018061Y0235528D01*
X0018105Y0235392D01*
X0018144Y0235255D01*
X0018179Y0235116D01*
X0018211Y0234977D01*
X0018239Y0234837D01*
X0018263Y0234696D01*
X0018283Y0234554D01*
X0018299Y0234412D01*
X0018311Y0234270D01*
X0018319Y0234127D01*
X0018323Y0233984D01*
X0018323Y0233842D01*
X0018319Y0233699D01*
X0018311Y0233556D01*
X0018299Y0233414D01*
X0018283Y0233272D01*
X0018263Y0233130D01*
X0018239Y0232989D01*
X0018211Y0232849D01*
X0018179Y0232710D01*
X0018144Y0232571D01*
X0018105Y0232434D01*
X0018061Y0232298D01*
X0018014Y0232163D01*
X0017964Y0232029D01*
X0017909Y0231897D01*
X0017851Y0231766D01*
X0017789Y0231637D01*
X0017724Y0231510D01*
X0017655Y0231385D01*
X0017583Y0231262D01*
X0017507Y0231141D01*
X0017428Y0231021D01*
X0017346Y0230905D01*
X0017260Y0230790D01*
X0017171Y0230678D01*
X0017079Y0230569D01*
X0016984Y0230462D01*
X0016887Y0230358D01*
X0016786Y0230256D01*
X0016682Y0230158D01*
X0016576Y0230062D01*
X0016467Y0229970D01*
X0016356Y0229880D01*
X0016242Y0229794D01*
X0016126Y0229710D01*
X0016007Y0229630D01*
X0015887Y0229554D01*
X0015764Y0229481D01*
X0015639Y0229411D01*
X0015513Y0229345D01*
X0015384Y0229282D01*
X0015254Y0229223D01*
X0015122Y0229168D01*
X0014989Y0229116D01*
X0014854Y0229068D01*
X0014718Y0229024D01*
X0014581Y0228984D01*
X0014443Y0228947D01*
X0014304Y0228914D01*
X0014164Y0228886D01*
X0014023Y0228861D01*
X0013882Y0228840D01*
X0013740Y0228823D01*
X0013598Y0228810D01*
X0013455Y0228801D01*
X0013312Y0228796D01*
X0013169Y0228795D01*
X0013026Y0228798D01*
X0012884Y0228805D01*
X0012741Y0228816D01*
X0012599Y0228831D01*
X0012457Y0228850D01*
X0012316Y0228873D01*
X0012176Y0228900D01*
X0012036Y0228930D01*
X0011898Y0228965D01*
X0011760Y0229003D01*
X0011623Y0229045D01*
X0011488Y0229092D01*
X0011354Y0229141D01*
X0011222Y0229195D01*
X0011091Y0229252D01*
X0010961Y0229313D01*
X0010834Y0229377D01*
X0010708Y0229445D01*
X0010584Y0229517D01*
X0010463Y0229592D01*
X0010343Y0229670D01*
X0010226Y0229752D01*
X0010111Y0229836D01*
X0009998Y0229924D01*
X0009888Y0230015D01*
X0009780Y0230110D01*
X0009676Y0230207D01*
X0009573Y0230307D01*
X0009474Y0230409D01*
X0009378Y0230515D01*
X0009284Y0230623D01*
X0009194Y0230734D01*
X0009107Y0230847D01*
X0009023Y0230963D01*
X0008942Y0231081D01*
X0008865Y0231201D01*
X0008791Y0231323D01*
X0008720Y0231447D01*
X0008653Y0231574D01*
X0008589Y0231702D01*
X0008529Y0231831D01*
X0008473Y0231963D01*
X0008421Y0232096D01*
X0008372Y0232230D01*
X0008327Y0232365D01*
X0008285Y0232502D01*
X0008248Y0232640D01*
X0008214Y0232779D01*
X0008184Y0232919D01*
X0008159Y0233059D01*
X0008137Y0233201D01*
X0008119Y0233343D01*
X0008105Y0233485D01*
X0008095Y0233627D01*
X0008089Y0233770D01*
X0008087Y0233913D01*
X0374228Y0233913D02*
X0374230Y0234056D01*
X0374236Y0234199D01*
X0374246Y0234341D01*
X0374260Y0234483D01*
X0374278Y0234625D01*
X0374300Y0234767D01*
X0374325Y0234907D01*
X0374355Y0235047D01*
X0374389Y0235186D01*
X0374426Y0235324D01*
X0374468Y0235461D01*
X0374513Y0235596D01*
X0374562Y0235730D01*
X0374614Y0235863D01*
X0374670Y0235995D01*
X0374730Y0236124D01*
X0374794Y0236252D01*
X0374861Y0236379D01*
X0374932Y0236503D01*
X0375006Y0236625D01*
X0375083Y0236745D01*
X0375164Y0236863D01*
X0375248Y0236979D01*
X0375335Y0237092D01*
X0375425Y0237203D01*
X0375519Y0237311D01*
X0375615Y0237417D01*
X0375714Y0237519D01*
X0375817Y0237619D01*
X0375921Y0237716D01*
X0376029Y0237811D01*
X0376139Y0237902D01*
X0376252Y0237990D01*
X0376367Y0238074D01*
X0376484Y0238156D01*
X0376604Y0238234D01*
X0376725Y0238309D01*
X0376849Y0238381D01*
X0376975Y0238449D01*
X0377102Y0238513D01*
X0377232Y0238574D01*
X0377363Y0238631D01*
X0377495Y0238685D01*
X0377629Y0238734D01*
X0377764Y0238781D01*
X0377901Y0238823D01*
X0378039Y0238861D01*
X0378177Y0238896D01*
X0378317Y0238926D01*
X0378457Y0238953D01*
X0378598Y0238976D01*
X0378740Y0238995D01*
X0378882Y0239010D01*
X0379025Y0239021D01*
X0379167Y0239028D01*
X0379310Y0239031D01*
X0379453Y0239030D01*
X0379596Y0239025D01*
X0379739Y0239016D01*
X0379881Y0239003D01*
X0380023Y0238986D01*
X0380164Y0238965D01*
X0380305Y0238940D01*
X0380445Y0238912D01*
X0380584Y0238879D01*
X0380722Y0238842D01*
X0380859Y0238802D01*
X0380995Y0238758D01*
X0381130Y0238710D01*
X0381263Y0238658D01*
X0381395Y0238603D01*
X0381525Y0238544D01*
X0381654Y0238481D01*
X0381780Y0238415D01*
X0381905Y0238345D01*
X0382028Y0238272D01*
X0382148Y0238196D01*
X0382267Y0238116D01*
X0382383Y0238032D01*
X0382497Y0237946D01*
X0382608Y0237856D01*
X0382717Y0237764D01*
X0382823Y0237668D01*
X0382927Y0237570D01*
X0383028Y0237468D01*
X0383125Y0237364D01*
X0383220Y0237257D01*
X0383312Y0237148D01*
X0383401Y0237036D01*
X0383487Y0236921D01*
X0383569Y0236805D01*
X0383648Y0236685D01*
X0383724Y0236564D01*
X0383796Y0236441D01*
X0383865Y0236316D01*
X0383930Y0236189D01*
X0383992Y0236060D01*
X0384050Y0235929D01*
X0384105Y0235797D01*
X0384155Y0235663D01*
X0384202Y0235528D01*
X0384246Y0235392D01*
X0384285Y0235255D01*
X0384320Y0235116D01*
X0384352Y0234977D01*
X0384380Y0234837D01*
X0384404Y0234696D01*
X0384424Y0234554D01*
X0384440Y0234412D01*
X0384452Y0234270D01*
X0384460Y0234127D01*
X0384464Y0233984D01*
X0384464Y0233842D01*
X0384460Y0233699D01*
X0384452Y0233556D01*
X0384440Y0233414D01*
X0384424Y0233272D01*
X0384404Y0233130D01*
X0384380Y0232989D01*
X0384352Y0232849D01*
X0384320Y0232710D01*
X0384285Y0232571D01*
X0384246Y0232434D01*
X0384202Y0232298D01*
X0384155Y0232163D01*
X0384105Y0232029D01*
X0384050Y0231897D01*
X0383992Y0231766D01*
X0383930Y0231637D01*
X0383865Y0231510D01*
X0383796Y0231385D01*
X0383724Y0231262D01*
X0383648Y0231141D01*
X0383569Y0231021D01*
X0383487Y0230905D01*
X0383401Y0230790D01*
X0383312Y0230678D01*
X0383220Y0230569D01*
X0383125Y0230462D01*
X0383028Y0230358D01*
X0382927Y0230256D01*
X0382823Y0230158D01*
X0382717Y0230062D01*
X0382608Y0229970D01*
X0382497Y0229880D01*
X0382383Y0229794D01*
X0382267Y0229710D01*
X0382148Y0229630D01*
X0382028Y0229554D01*
X0381905Y0229481D01*
X0381780Y0229411D01*
X0381654Y0229345D01*
X0381525Y0229282D01*
X0381395Y0229223D01*
X0381263Y0229168D01*
X0381130Y0229116D01*
X0380995Y0229068D01*
X0380859Y0229024D01*
X0380722Y0228984D01*
X0380584Y0228947D01*
X0380445Y0228914D01*
X0380305Y0228886D01*
X0380164Y0228861D01*
X0380023Y0228840D01*
X0379881Y0228823D01*
X0379739Y0228810D01*
X0379596Y0228801D01*
X0379453Y0228796D01*
X0379310Y0228795D01*
X0379167Y0228798D01*
X0379025Y0228805D01*
X0378882Y0228816D01*
X0378740Y0228831D01*
X0378598Y0228850D01*
X0378457Y0228873D01*
X0378317Y0228900D01*
X0378177Y0228930D01*
X0378039Y0228965D01*
X0377901Y0229003D01*
X0377764Y0229045D01*
X0377629Y0229092D01*
X0377495Y0229141D01*
X0377363Y0229195D01*
X0377232Y0229252D01*
X0377102Y0229313D01*
X0376975Y0229377D01*
X0376849Y0229445D01*
X0376725Y0229517D01*
X0376604Y0229592D01*
X0376484Y0229670D01*
X0376367Y0229752D01*
X0376252Y0229836D01*
X0376139Y0229924D01*
X0376029Y0230015D01*
X0375921Y0230110D01*
X0375817Y0230207D01*
X0375714Y0230307D01*
X0375615Y0230409D01*
X0375519Y0230515D01*
X0375425Y0230623D01*
X0375335Y0230734D01*
X0375248Y0230847D01*
X0375164Y0230963D01*
X0375083Y0231081D01*
X0375006Y0231201D01*
X0374932Y0231323D01*
X0374861Y0231447D01*
X0374794Y0231574D01*
X0374730Y0231702D01*
X0374670Y0231831D01*
X0374614Y0231963D01*
X0374562Y0232096D01*
X0374513Y0232230D01*
X0374468Y0232365D01*
X0374426Y0232502D01*
X0374389Y0232640D01*
X0374355Y0232779D01*
X0374325Y0232919D01*
X0374300Y0233059D01*
X0374278Y0233201D01*
X0374260Y0233343D01*
X0374246Y0233485D01*
X0374236Y0233627D01*
X0374230Y0233770D01*
X0374228Y0233913D01*
X0374228Y0013441D02*
X0374230Y0013584D01*
X0374236Y0013727D01*
X0374246Y0013869D01*
X0374260Y0014011D01*
X0374278Y0014153D01*
X0374300Y0014295D01*
X0374325Y0014435D01*
X0374355Y0014575D01*
X0374389Y0014714D01*
X0374426Y0014852D01*
X0374468Y0014989D01*
X0374513Y0015124D01*
X0374562Y0015258D01*
X0374614Y0015391D01*
X0374670Y0015523D01*
X0374730Y0015652D01*
X0374794Y0015780D01*
X0374861Y0015907D01*
X0374932Y0016031D01*
X0375006Y0016153D01*
X0375083Y0016273D01*
X0375164Y0016391D01*
X0375248Y0016507D01*
X0375335Y0016620D01*
X0375425Y0016731D01*
X0375519Y0016839D01*
X0375615Y0016945D01*
X0375714Y0017047D01*
X0375817Y0017147D01*
X0375921Y0017244D01*
X0376029Y0017339D01*
X0376139Y0017430D01*
X0376252Y0017518D01*
X0376367Y0017602D01*
X0376484Y0017684D01*
X0376604Y0017762D01*
X0376725Y0017837D01*
X0376849Y0017909D01*
X0376975Y0017977D01*
X0377102Y0018041D01*
X0377232Y0018102D01*
X0377363Y0018159D01*
X0377495Y0018213D01*
X0377629Y0018262D01*
X0377764Y0018309D01*
X0377901Y0018351D01*
X0378039Y0018389D01*
X0378177Y0018424D01*
X0378317Y0018454D01*
X0378457Y0018481D01*
X0378598Y0018504D01*
X0378740Y0018523D01*
X0378882Y0018538D01*
X0379025Y0018549D01*
X0379167Y0018556D01*
X0379310Y0018559D01*
X0379453Y0018558D01*
X0379596Y0018553D01*
X0379739Y0018544D01*
X0379881Y0018531D01*
X0380023Y0018514D01*
X0380164Y0018493D01*
X0380305Y0018468D01*
X0380445Y0018440D01*
X0380584Y0018407D01*
X0380722Y0018370D01*
X0380859Y0018330D01*
X0380995Y0018286D01*
X0381130Y0018238D01*
X0381263Y0018186D01*
X0381395Y0018131D01*
X0381525Y0018072D01*
X0381654Y0018009D01*
X0381780Y0017943D01*
X0381905Y0017873D01*
X0382028Y0017800D01*
X0382148Y0017724D01*
X0382267Y0017644D01*
X0382383Y0017560D01*
X0382497Y0017474D01*
X0382608Y0017384D01*
X0382717Y0017292D01*
X0382823Y0017196D01*
X0382927Y0017098D01*
X0383028Y0016996D01*
X0383125Y0016892D01*
X0383220Y0016785D01*
X0383312Y0016676D01*
X0383401Y0016564D01*
X0383487Y0016449D01*
X0383569Y0016333D01*
X0383648Y0016213D01*
X0383724Y0016092D01*
X0383796Y0015969D01*
X0383865Y0015844D01*
X0383930Y0015717D01*
X0383992Y0015588D01*
X0384050Y0015457D01*
X0384105Y0015325D01*
X0384155Y0015191D01*
X0384202Y0015056D01*
X0384246Y0014920D01*
X0384285Y0014783D01*
X0384320Y0014644D01*
X0384352Y0014505D01*
X0384380Y0014365D01*
X0384404Y0014224D01*
X0384424Y0014082D01*
X0384440Y0013940D01*
X0384452Y0013798D01*
X0384460Y0013655D01*
X0384464Y0013512D01*
X0384464Y0013370D01*
X0384460Y0013227D01*
X0384452Y0013084D01*
X0384440Y0012942D01*
X0384424Y0012800D01*
X0384404Y0012658D01*
X0384380Y0012517D01*
X0384352Y0012377D01*
X0384320Y0012238D01*
X0384285Y0012099D01*
X0384246Y0011962D01*
X0384202Y0011826D01*
X0384155Y0011691D01*
X0384105Y0011557D01*
X0384050Y0011425D01*
X0383992Y0011294D01*
X0383930Y0011165D01*
X0383865Y0011038D01*
X0383796Y0010913D01*
X0383724Y0010790D01*
X0383648Y0010669D01*
X0383569Y0010549D01*
X0383487Y0010433D01*
X0383401Y0010318D01*
X0383312Y0010206D01*
X0383220Y0010097D01*
X0383125Y0009990D01*
X0383028Y0009886D01*
X0382927Y0009784D01*
X0382823Y0009686D01*
X0382717Y0009590D01*
X0382608Y0009498D01*
X0382497Y0009408D01*
X0382383Y0009322D01*
X0382267Y0009238D01*
X0382148Y0009158D01*
X0382028Y0009082D01*
X0381905Y0009009D01*
X0381780Y0008939D01*
X0381654Y0008873D01*
X0381525Y0008810D01*
X0381395Y0008751D01*
X0381263Y0008696D01*
X0381130Y0008644D01*
X0380995Y0008596D01*
X0380859Y0008552D01*
X0380722Y0008512D01*
X0380584Y0008475D01*
X0380445Y0008442D01*
X0380305Y0008414D01*
X0380164Y0008389D01*
X0380023Y0008368D01*
X0379881Y0008351D01*
X0379739Y0008338D01*
X0379596Y0008329D01*
X0379453Y0008324D01*
X0379310Y0008323D01*
X0379167Y0008326D01*
X0379025Y0008333D01*
X0378882Y0008344D01*
X0378740Y0008359D01*
X0378598Y0008378D01*
X0378457Y0008401D01*
X0378317Y0008428D01*
X0378177Y0008458D01*
X0378039Y0008493D01*
X0377901Y0008531D01*
X0377764Y0008573D01*
X0377629Y0008620D01*
X0377495Y0008669D01*
X0377363Y0008723D01*
X0377232Y0008780D01*
X0377102Y0008841D01*
X0376975Y0008905D01*
X0376849Y0008973D01*
X0376725Y0009045D01*
X0376604Y0009120D01*
X0376484Y0009198D01*
X0376367Y0009280D01*
X0376252Y0009364D01*
X0376139Y0009452D01*
X0376029Y0009543D01*
X0375921Y0009638D01*
X0375817Y0009735D01*
X0375714Y0009835D01*
X0375615Y0009937D01*
X0375519Y0010043D01*
X0375425Y0010151D01*
X0375335Y0010262D01*
X0375248Y0010375D01*
X0375164Y0010491D01*
X0375083Y0010609D01*
X0375006Y0010729D01*
X0374932Y0010851D01*
X0374861Y0010975D01*
X0374794Y0011102D01*
X0374730Y0011230D01*
X0374670Y0011359D01*
X0374614Y0011491D01*
X0374562Y0011624D01*
X0374513Y0011758D01*
X0374468Y0011893D01*
X0374426Y0012030D01*
X0374389Y0012168D01*
X0374355Y0012307D01*
X0374325Y0012447D01*
X0374300Y0012587D01*
X0374278Y0012729D01*
X0374260Y0012871D01*
X0374246Y0013013D01*
X0374236Y0013155D01*
X0374230Y0013298D01*
X0374228Y0013441D01*
M02*
