G75*
%MOIN*%
%OFA0B0*%
%FSLAX25Y25*%
%IPPOS*%
%LPD*%
%AMOC8*
5,1,8,0,0,1.08239X$1,22.5*
%
%ADD10R,0.03937X0.04331*%
%ADD11C,0.08850*%
%ADD12C,0.05200*%
%ADD13C,0.07000*%
%ADD14C,0.06000*%
%ADD15C,0.07800*%
%ADD16R,0.03150X0.03150*%
%ADD17C,0.04400*%
%ADD18R,0.05906X0.05118*%
%ADD19OC8,0.05200*%
%ADD20C,0.03962*%
%ADD21C,0.01575*%
%ADD22C,0.00787*%
%ADD23C,0.02978*%
%ADD24C,0.02362*%
D10*
X0109583Y0088441D03*
X0109583Y0095134D03*
D11*
X0244346Y0139095D02*
X0244346Y0147945D01*
X0244346Y0199095D02*
X0244346Y0207945D01*
X0368913Y0208968D02*
X0368913Y0200118D01*
X0368913Y0148968D02*
X0368913Y0140118D01*
D12*
X0097813Y0138323D02*
X0092613Y0138323D01*
X0092613Y0128323D02*
X0097813Y0128323D01*
X0097813Y0118323D02*
X0092613Y0118323D01*
X0092613Y0108323D02*
X0097813Y0108323D01*
X0097813Y0098323D02*
X0092613Y0098323D01*
X0092613Y0088323D02*
X0097813Y0088323D01*
X0097813Y0078323D02*
X0092613Y0078323D01*
X0092613Y0068323D02*
X0097813Y0068323D01*
X0097813Y0058323D02*
X0092613Y0058323D01*
X0092613Y0048323D02*
X0097813Y0048323D01*
X0097813Y0038323D02*
X0092613Y0038323D01*
X0067813Y0038323D02*
X0062613Y0038323D01*
X0062613Y0048323D02*
X0067813Y0048323D01*
X0067813Y0058323D02*
X0062613Y0058323D01*
X0062613Y0068323D02*
X0067813Y0068323D01*
X0067813Y0078323D02*
X0062613Y0078323D01*
X0062613Y0088323D02*
X0067813Y0088323D01*
X0067813Y0098323D02*
X0062613Y0098323D01*
X0062613Y0108323D02*
X0067813Y0108323D01*
X0067813Y0118323D02*
X0062613Y0118323D01*
X0062613Y0128323D02*
X0067813Y0128323D01*
X0067813Y0138323D02*
X0062613Y0138323D01*
X0062613Y0148323D02*
X0067813Y0148323D01*
X0067813Y0158323D02*
X0062613Y0158323D01*
X0062613Y0168323D02*
X0067813Y0168323D01*
X0092613Y0168323D02*
X0097813Y0168323D01*
X0097813Y0158323D02*
X0092613Y0158323D01*
X0092613Y0148323D02*
X0097813Y0148323D01*
D13*
X0207142Y0118717D03*
X0227142Y0125409D03*
X0227142Y0112024D03*
X0207142Y0105331D03*
X0207142Y0091945D03*
X0227142Y0098638D03*
X0227142Y0085252D03*
X0227142Y0071866D03*
X0207142Y0065173D03*
X0207142Y0078559D03*
X0227142Y0058480D03*
D14*
X0125890Y0058323D02*
X0119890Y0058323D01*
X0119890Y0068323D02*
X0125890Y0068323D01*
X0125890Y0078323D02*
X0119890Y0078323D01*
X0119890Y0088323D02*
X0125890Y0088323D01*
X0125890Y0098323D02*
X0119890Y0098323D01*
X0119772Y0123598D02*
X0125772Y0123598D01*
X0125772Y0133598D02*
X0119772Y0133598D01*
X0119772Y0143598D02*
X0125772Y0143598D01*
X0125772Y0153598D02*
X0119772Y0153598D01*
X0050409Y0130732D02*
X0050409Y0124732D01*
X0040409Y0124732D02*
X0040409Y0130732D01*
X0037459Y0139728D02*
X0037459Y0145728D01*
X0019659Y0145728D02*
X0019659Y0139728D01*
X0019659Y0165328D02*
X0019659Y0171328D01*
X0037459Y0171328D02*
X0037459Y0165328D01*
X0051984Y0200520D02*
X0051984Y0206520D01*
X0061984Y0206520D02*
X0061984Y0200520D01*
X0071984Y0200520D02*
X0071984Y0206520D01*
X0081984Y0206520D02*
X0081984Y0200520D01*
X0091984Y0200520D02*
X0091984Y0206520D01*
X0178953Y0214575D02*
X0178953Y0220575D01*
X0188953Y0220575D02*
X0188953Y0214575D01*
X0125890Y0048323D02*
X0119890Y0048323D01*
D15*
X0258287Y0042302D02*
X0258287Y0034502D01*
X0277987Y0034502D02*
X0277987Y0042302D01*
X0309429Y0050002D02*
X0309429Y0057802D01*
X0332929Y0049802D02*
X0332929Y0042002D01*
X0356429Y0050002D02*
X0356429Y0057802D01*
X0356429Y0098002D02*
X0356429Y0105802D01*
X0309429Y0105802D02*
X0309429Y0098002D01*
X0327191Y0143602D02*
X0334991Y0143602D01*
X0335191Y0167102D02*
X0342991Y0167102D01*
X0334991Y0190602D02*
X0327191Y0190602D01*
X0286991Y0190602D02*
X0279191Y0190602D01*
X0279191Y0143602D02*
X0286991Y0143602D01*
D16*
X0140488Y0102535D03*
X0140488Y0096630D03*
X0140803Y0054346D03*
X0140803Y0048441D03*
D17*
X0027649Y0078323D02*
X0023249Y0078323D01*
X0023249Y0098323D02*
X0027649Y0098323D01*
D18*
X0040685Y0108283D03*
X0050134Y0108480D03*
X0050134Y0115961D03*
X0040685Y0115764D03*
X0140567Y0087496D03*
X0140567Y0080016D03*
X0140409Y0070291D03*
X0140409Y0062811D03*
D19*
X0094780Y0023756D03*
X0064780Y0023756D03*
D20*
X0161236Y0106354D03*
X0183283Y0111866D03*
X0041551Y0180370D03*
X0152575Y0204780D03*
D21*
X0093244Y0204780D01*
X0091984Y0203520D01*
X0111630Y0153598D02*
X0108480Y0150449D01*
X0108480Y0126748D01*
X0105331Y0123598D01*
X0088717Y0123598D01*
X0079346Y0114228D01*
X0079346Y0103205D01*
X0088795Y0093756D01*
X0099819Y0093756D01*
X0105134Y0088441D01*
X0109583Y0088441D01*
X0079346Y0103205D02*
X0074228Y0108323D01*
X0065213Y0108323D01*
X0105331Y0123598D02*
X0122772Y0123598D01*
X0122772Y0153598D02*
X0111630Y0153598D01*
D22*
X0021268Y0008053D02*
X0018609Y0005394D01*
X0147850Y0005394D01*
X0147850Y0108717D01*
X0116515Y0108717D01*
X0115358Y0109196D01*
X0114472Y0110082D01*
X0109380Y0115173D01*
X0101124Y0115173D01*
X0100400Y0114450D01*
X0098721Y0113754D01*
X0091704Y0113754D01*
X0090025Y0114450D01*
X0088740Y0115735D01*
X0088044Y0117414D01*
X0088044Y0119029D01*
X0082102Y0113087D01*
X0082102Y0104346D01*
X0088044Y0098404D01*
X0088044Y0099232D01*
X0088740Y0100911D01*
X0090025Y0102196D01*
X0091704Y0102891D01*
X0098721Y0102891D01*
X0100400Y0102196D01*
X0101686Y0100911D01*
X0102381Y0099232D01*
X0102381Y0097414D01*
X0101701Y0095772D01*
X0102155Y0095317D01*
X0105848Y0091624D01*
X0106440Y0092216D01*
X0106315Y0092431D01*
X0106220Y0092785D01*
X0106220Y0094740D01*
X0109189Y0094740D01*
X0109189Y0095528D01*
X0109189Y0098693D01*
X0107431Y0098693D01*
X0107076Y0098598D01*
X0106758Y0098414D01*
X0106499Y0098155D01*
X0106315Y0097837D01*
X0106220Y0097483D01*
X0106220Y0095528D01*
X0109189Y0095528D01*
X0109976Y0095528D01*
X0109976Y0098693D01*
X0111735Y0098693D01*
X0112089Y0098598D01*
X0112407Y0098414D01*
X0112666Y0098155D01*
X0112850Y0097837D01*
X0112945Y0097483D01*
X0112945Y0095528D01*
X0109976Y0095528D01*
X0109976Y0094740D01*
X0112945Y0094740D01*
X0112945Y0092785D01*
X0112850Y0092431D01*
X0112726Y0092216D01*
X0113469Y0091472D01*
X0116013Y0091472D01*
X0117075Y0092535D01*
X0118901Y0093291D01*
X0126878Y0093291D01*
X0128704Y0092535D01*
X0130102Y0091137D01*
X0130858Y0089311D01*
X0130858Y0087643D01*
X0135336Y0083165D01*
X0135646Y0083165D01*
X0135646Y0083390D01*
X0136011Y0083756D01*
X0135646Y0084122D01*
X0135646Y0090870D01*
X0136799Y0092024D01*
X0137417Y0092024D01*
X0137417Y0093767D01*
X0136945Y0094240D01*
X0136945Y0099020D01*
X0137914Y0099989D01*
X0137798Y0100105D01*
X0137615Y0100423D01*
X0137520Y0100777D01*
X0137520Y0102142D01*
X0140094Y0102142D01*
X0140094Y0102929D01*
X0137520Y0102929D01*
X0137520Y0104294D01*
X0137615Y0104648D01*
X0137798Y0104966D01*
X0138058Y0105225D01*
X0138375Y0105409D01*
X0138730Y0105504D01*
X0140095Y0105504D01*
X0140095Y0102929D01*
X0140882Y0102929D01*
X0143457Y0102929D01*
X0143457Y0104294D01*
X0143362Y0104648D01*
X0143178Y0104966D01*
X0142919Y0105225D01*
X0142601Y0105409D01*
X0142246Y0105504D01*
X0140882Y0105504D01*
X0140882Y0102929D01*
X0140882Y0102142D01*
X0143457Y0102142D01*
X0143457Y0100777D01*
X0143362Y0100423D01*
X0143178Y0100105D01*
X0143062Y0099989D01*
X0144031Y0099020D01*
X0144031Y0094240D01*
X0143717Y0093925D01*
X0143717Y0092024D01*
X0144335Y0092024D01*
X0145488Y0090870D01*
X0145488Y0084122D01*
X0145122Y0083756D01*
X0145488Y0083390D01*
X0145488Y0076641D01*
X0144335Y0075488D01*
X0143559Y0075488D01*
X0143559Y0074819D01*
X0144178Y0074819D01*
X0145331Y0073666D01*
X0145331Y0066917D01*
X0144965Y0066551D01*
X0145331Y0066185D01*
X0145331Y0059437D01*
X0144178Y0058283D01*
X0143953Y0058283D01*
X0143953Y0057130D01*
X0144346Y0056737D01*
X0144346Y0051956D01*
X0143784Y0051394D01*
X0144346Y0050831D01*
X0144346Y0046051D01*
X0143193Y0044898D01*
X0138413Y0044898D01*
X0138137Y0045173D01*
X0129767Y0045173D01*
X0128704Y0044111D01*
X0126878Y0043354D01*
X0118901Y0043354D01*
X0117075Y0044111D01*
X0116013Y0045173D01*
X0101124Y0045173D01*
X0100400Y0044450D01*
X0098721Y0043754D01*
X0091704Y0043754D01*
X0090025Y0044450D01*
X0088740Y0045735D01*
X0088044Y0047414D01*
X0088044Y0049232D01*
X0088740Y0050911D01*
X0090025Y0052196D01*
X0091704Y0052891D01*
X0098721Y0052891D01*
X0100400Y0052196D01*
X0101124Y0051472D01*
X0116013Y0051472D01*
X0117075Y0052535D01*
X0118901Y0053291D01*
X0126878Y0053291D01*
X0128704Y0052535D01*
X0129767Y0051472D01*
X0137744Y0051472D01*
X0137260Y0051956D01*
X0137260Y0056737D01*
X0137654Y0057130D01*
X0137654Y0058283D01*
X0136641Y0058283D01*
X0135488Y0059437D01*
X0135488Y0066185D01*
X0135854Y0066551D01*
X0135488Y0066917D01*
X0135488Y0073666D01*
X0136641Y0074819D01*
X0137260Y0074819D01*
X0137260Y0075488D01*
X0136799Y0075488D01*
X0135646Y0076641D01*
X0135646Y0076866D01*
X0133405Y0076866D01*
X0132247Y0077346D01*
X0130858Y0078735D01*
X0130858Y0077335D01*
X0130102Y0075508D01*
X0128704Y0074111D01*
X0126878Y0073354D01*
X0118901Y0073354D01*
X0117075Y0074111D01*
X0116013Y0075173D01*
X0101124Y0075173D01*
X0100400Y0074450D01*
X0098721Y0073754D01*
X0091704Y0073754D01*
X0090025Y0074450D01*
X0088740Y0075735D01*
X0088044Y0077414D01*
X0088044Y0079232D01*
X0088740Y0080911D01*
X0090025Y0082196D01*
X0091704Y0082891D01*
X0098721Y0082891D01*
X0100400Y0082196D01*
X0101124Y0081472D01*
X0116013Y0081472D01*
X0117075Y0082535D01*
X0118901Y0083291D01*
X0126302Y0083291D01*
X0126239Y0083354D01*
X0118901Y0083354D01*
X0117075Y0084111D01*
X0116013Y0085173D01*
X0113233Y0085173D01*
X0112367Y0084307D01*
X0106799Y0084307D01*
X0105646Y0085460D01*
X0105646Y0085685D01*
X0104586Y0085685D01*
X0103573Y0086105D01*
X0102347Y0087331D01*
X0101686Y0085735D01*
X0100400Y0084450D01*
X0098721Y0083754D01*
X0091704Y0083754D01*
X0090025Y0084450D01*
X0088740Y0085735D01*
X0088044Y0087414D01*
X0088044Y0089232D01*
X0088740Y0090911D01*
X0088829Y0091000D01*
X0088247Y0091000D01*
X0087234Y0091420D01*
X0086459Y0092195D01*
X0077785Y0100868D01*
X0077010Y0101644D01*
X0073087Y0105567D01*
X0071518Y0105567D01*
X0070400Y0104450D01*
X0068721Y0103754D01*
X0061704Y0103754D01*
X0060025Y0104450D01*
X0059301Y0105173D01*
X0055055Y0105173D01*
X0055055Y0105106D01*
X0053902Y0103953D01*
X0046366Y0103953D01*
X0045508Y0104811D01*
X0044453Y0103756D01*
X0036917Y0103756D01*
X0035764Y0104909D01*
X0035764Y0106113D01*
X0027956Y0113920D01*
X0027070Y0114806D01*
X0026591Y0115964D01*
X0026591Y0176272D01*
X0027070Y0177430D01*
X0031794Y0182154D01*
X0032680Y0183040D01*
X0033838Y0183520D01*
X0039115Y0183520D01*
X0039314Y0183718D01*
X0040766Y0184320D01*
X0042337Y0184320D01*
X0043788Y0183718D01*
X0043987Y0183520D01*
X0046115Y0183520D01*
X0047272Y0183040D01*
X0048158Y0182154D01*
X0048638Y0180997D01*
X0048638Y0179744D01*
X0048158Y0178586D01*
X0047272Y0177700D01*
X0046115Y0177220D01*
X0043987Y0177220D01*
X0043788Y0177022D01*
X0042337Y0176420D01*
X0040766Y0176420D01*
X0039314Y0177022D01*
X0039115Y0177220D01*
X0035769Y0177220D01*
X0032890Y0174341D01*
X0032890Y0173280D01*
X0033247Y0174142D01*
X0034645Y0175540D01*
X0036471Y0176296D01*
X0038447Y0176296D01*
X0040273Y0175540D01*
X0041671Y0174142D01*
X0042428Y0172316D01*
X0042428Y0164339D01*
X0041671Y0162513D01*
X0040273Y0161115D01*
X0038447Y0160359D01*
X0036471Y0160359D01*
X0034645Y0161115D01*
X0033247Y0162513D01*
X0032890Y0163376D01*
X0032890Y0147680D01*
X0033247Y0148542D01*
X0034645Y0149940D01*
X0036471Y0150696D01*
X0038447Y0150696D01*
X0040273Y0149940D01*
X0041671Y0148542D01*
X0042428Y0146716D01*
X0042428Y0138739D01*
X0041671Y0136913D01*
X0040459Y0135701D01*
X0040459Y0135701D01*
X0045751Y0140993D01*
X0046909Y0141472D01*
X0059301Y0141472D01*
X0060025Y0142196D01*
X0061704Y0142891D01*
X0068721Y0142891D01*
X0070400Y0142196D01*
X0071686Y0140911D01*
X0072381Y0139232D01*
X0072381Y0137414D01*
X0071686Y0135735D01*
X0070400Y0134450D01*
X0068721Y0133754D01*
X0061704Y0133754D01*
X0060025Y0134450D01*
X0059301Y0135173D01*
X0052671Y0135173D01*
X0053224Y0134944D01*
X0054622Y0133547D01*
X0055378Y0131721D01*
X0055378Y0131472D01*
X0059301Y0131472D01*
X0060025Y0132196D01*
X0061704Y0132891D01*
X0068721Y0132891D01*
X0070400Y0132196D01*
X0071686Y0130911D01*
X0072381Y0129232D01*
X0072381Y0127414D01*
X0071686Y0125735D01*
X0070400Y0124450D01*
X0068721Y0123754D01*
X0061704Y0123754D01*
X0060025Y0124450D01*
X0059301Y0125173D01*
X0055378Y0125173D01*
X0055378Y0123744D01*
X0054622Y0121918D01*
X0053559Y0120855D01*
X0053559Y0120488D01*
X0053902Y0120488D01*
X0055055Y0119335D01*
X0055055Y0112586D01*
X0054689Y0112220D01*
X0055055Y0111855D01*
X0055055Y0111472D01*
X0059301Y0111472D01*
X0060025Y0112196D01*
X0061704Y0112891D01*
X0068721Y0112891D01*
X0070400Y0112196D01*
X0071518Y0111079D01*
X0074777Y0111079D01*
X0075789Y0110659D01*
X0076591Y0109858D01*
X0076591Y0114777D01*
X0077010Y0115789D01*
X0077785Y0116565D01*
X0087155Y0125935D01*
X0088168Y0126354D01*
X0088483Y0126354D01*
X0088044Y0127414D01*
X0088044Y0129232D01*
X0088740Y0130911D01*
X0090025Y0132196D01*
X0091704Y0132891D01*
X0098721Y0132891D01*
X0100400Y0132196D01*
X0101686Y0130911D01*
X0102381Y0129232D01*
X0102381Y0127414D01*
X0101942Y0126354D01*
X0104189Y0126354D01*
X0105724Y0127890D01*
X0105724Y0150997D01*
X0106144Y0152010D01*
X0106919Y0152785D01*
X0110069Y0155935D01*
X0111082Y0156354D01*
X0115535Y0156354D01*
X0115560Y0156413D01*
X0116957Y0157811D01*
X0118783Y0158567D01*
X0126760Y0158567D01*
X0128586Y0157811D01*
X0129984Y0156413D01*
X0130740Y0154587D01*
X0130740Y0152610D01*
X0129984Y0150784D01*
X0128586Y0149386D01*
X0126760Y0148630D01*
X0118783Y0148630D01*
X0116957Y0149386D01*
X0115560Y0150784D01*
X0115535Y0150843D01*
X0112771Y0150843D01*
X0111236Y0149307D01*
X0111236Y0126354D01*
X0115535Y0126354D01*
X0115560Y0126413D01*
X0116957Y0127811D01*
X0118783Y0128567D01*
X0126760Y0128567D01*
X0128586Y0127811D01*
X0129984Y0126413D01*
X0130740Y0124587D01*
X0130740Y0122610D01*
X0129984Y0120784D01*
X0128586Y0119386D01*
X0126760Y0118630D01*
X0118783Y0118630D01*
X0116957Y0119386D01*
X0115560Y0120784D01*
X0115535Y0120843D01*
X0112620Y0120843D01*
X0118446Y0115016D01*
X0147850Y0115016D01*
X0147850Y0241350D01*
X0018960Y0241610D01*
X0021268Y0239301D01*
X0022717Y0235805D01*
X0022717Y0232021D01*
X0021268Y0228525D01*
X0018593Y0225850D01*
X0015097Y0224402D01*
X0011313Y0224402D01*
X0007817Y0225850D01*
X0005827Y0227840D01*
X0005827Y0019515D01*
X0007817Y0021505D01*
X0011313Y0022953D01*
X0015097Y0022953D01*
X0018593Y0021505D01*
X0021268Y0018829D01*
X0022717Y0015333D01*
X0022717Y0011549D01*
X0021268Y0008053D01*
X0021051Y0007835D02*
X0147850Y0007835D01*
X0147850Y0007049D02*
X0020265Y0007049D01*
X0019479Y0006264D02*
X0147850Y0006264D01*
X0147850Y0005478D02*
X0018693Y0005478D01*
X0021504Y0008621D02*
X0147850Y0008621D01*
X0147850Y0009407D02*
X0021829Y0009407D01*
X0022155Y0010193D02*
X0147850Y0010193D01*
X0147850Y0010979D02*
X0022480Y0010979D01*
X0022717Y0011765D02*
X0147850Y0011765D01*
X0147850Y0012551D02*
X0022717Y0012551D01*
X0022717Y0013337D02*
X0147850Y0013337D01*
X0147850Y0014123D02*
X0022717Y0014123D01*
X0022717Y0014909D02*
X0147850Y0014909D01*
X0147850Y0015694D02*
X0022567Y0015694D01*
X0022241Y0016480D02*
X0147850Y0016480D01*
X0147850Y0017266D02*
X0021916Y0017266D01*
X0021590Y0018052D02*
X0147850Y0018052D01*
X0147850Y0018838D02*
X0021259Y0018838D01*
X0020473Y0019624D02*
X0062451Y0019624D01*
X0062887Y0019187D02*
X0060211Y0021864D01*
X0060211Y0025648D01*
X0062887Y0028324D01*
X0066672Y0028324D01*
X0069348Y0025648D01*
X0069348Y0021864D01*
X0066672Y0019187D01*
X0062887Y0019187D01*
X0061665Y0020410D02*
X0019687Y0020410D01*
X0018902Y0021196D02*
X0060879Y0021196D01*
X0060211Y0021982D02*
X0017441Y0021982D01*
X0015544Y0022768D02*
X0060211Y0022768D01*
X0060211Y0023554D02*
X0005827Y0023554D01*
X0005827Y0024340D02*
X0060211Y0024340D01*
X0060211Y0025125D02*
X0005827Y0025125D01*
X0005827Y0025911D02*
X0060474Y0025911D01*
X0061260Y0026697D02*
X0005827Y0026697D01*
X0005827Y0027483D02*
X0062046Y0027483D01*
X0062832Y0028269D02*
X0005827Y0028269D01*
X0005827Y0029055D02*
X0147850Y0029055D01*
X0147850Y0028269D02*
X0096727Y0028269D01*
X0096672Y0028324D02*
X0092887Y0028324D01*
X0090211Y0025648D01*
X0090211Y0021864D01*
X0092887Y0019187D01*
X0096672Y0019187D01*
X0099348Y0021864D01*
X0099348Y0025648D01*
X0096672Y0028324D01*
X0097513Y0027483D02*
X0147850Y0027483D01*
X0147850Y0026697D02*
X0098299Y0026697D01*
X0099085Y0025911D02*
X0147850Y0025911D01*
X0147850Y0025125D02*
X0099348Y0025125D01*
X0099348Y0024340D02*
X0147850Y0024340D01*
X0147850Y0023554D02*
X0099348Y0023554D01*
X0099348Y0022768D02*
X0147850Y0022768D01*
X0147850Y0021982D02*
X0099348Y0021982D01*
X0098680Y0021196D02*
X0147850Y0021196D01*
X0147850Y0020410D02*
X0097894Y0020410D01*
X0097108Y0019624D02*
X0147850Y0019624D01*
X0153362Y0019624D02*
X0372078Y0019624D01*
X0372864Y0020410D02*
X0153362Y0020410D01*
X0153362Y0021196D02*
X0373650Y0021196D01*
X0373958Y0021505D02*
X0371283Y0018829D01*
X0369835Y0015333D01*
X0369835Y0011549D01*
X0371283Y0008053D01*
X0373942Y0005394D01*
X0153362Y0005394D01*
X0153362Y0108717D01*
X0158013Y0108717D01*
X0157888Y0108592D01*
X0157287Y0107140D01*
X0157287Y0105569D01*
X0157888Y0104117D01*
X0158999Y0103006D01*
X0160451Y0102405D01*
X0162022Y0102405D01*
X0163473Y0103006D01*
X0163672Y0103205D01*
X0193359Y0103205D01*
X0194516Y0103684D01*
X0195402Y0104570D01*
X0199706Y0108874D01*
X0202951Y0108874D01*
X0202506Y0108428D01*
X0201673Y0106418D01*
X0201673Y0104243D01*
X0202506Y0102233D01*
X0204044Y0100695D01*
X0206054Y0099862D01*
X0208229Y0099862D01*
X0210239Y0100695D01*
X0211778Y0102233D01*
X0212610Y0104243D01*
X0212610Y0106418D01*
X0211778Y0108428D01*
X0211332Y0108874D01*
X0222558Y0108874D01*
X0224044Y0107388D01*
X0226054Y0106555D01*
X0228229Y0106555D01*
X0230239Y0107388D01*
X0231778Y0108926D01*
X0232610Y0110936D01*
X0232610Y0113111D01*
X0231778Y0115121D01*
X0230239Y0116660D01*
X0228229Y0117492D01*
X0226054Y0117492D01*
X0224044Y0116660D01*
X0222558Y0115173D01*
X0211332Y0115173D01*
X0211778Y0115619D01*
X0212610Y0117629D01*
X0212610Y0119804D01*
X0211778Y0121814D01*
X0210239Y0123352D01*
X0208229Y0124185D01*
X0206054Y0124185D01*
X0204044Y0123352D01*
X0202506Y0121814D01*
X0201673Y0119804D01*
X0201673Y0117629D01*
X0202506Y0115619D01*
X0202951Y0115173D01*
X0197775Y0115173D01*
X0196617Y0114694D01*
X0191428Y0109504D01*
X0189312Y0109504D01*
X0189891Y0110082D01*
X0190370Y0111240D01*
X0190370Y0112493D01*
X0189891Y0113650D01*
X0189005Y0114536D01*
X0187847Y0115016D01*
X0185719Y0115016D01*
X0185521Y0115214D01*
X0184069Y0115816D01*
X0182498Y0115816D01*
X0181046Y0115214D01*
X0180847Y0115016D01*
X0153362Y0115016D01*
X0153362Y0200831D01*
X0154812Y0201431D01*
X0155923Y0202542D01*
X0156524Y0203994D01*
X0156524Y0205565D01*
X0155923Y0207017D01*
X0154812Y0208128D01*
X0153362Y0208728D01*
X0153362Y0241338D01*
X0372876Y0240895D01*
X0371283Y0239301D01*
X0369835Y0235805D01*
X0369835Y0232021D01*
X0371283Y0228525D01*
X0373958Y0225850D01*
X0377454Y0224402D01*
X0381238Y0224402D01*
X0384734Y0225850D01*
X0386545Y0227660D01*
X0387217Y0019022D01*
X0384734Y0021505D01*
X0381238Y0022953D01*
X0377454Y0022953D01*
X0373958Y0021505D01*
X0375110Y0021982D02*
X0153362Y0021982D01*
X0153362Y0022768D02*
X0377008Y0022768D01*
X0381685Y0022768D02*
X0387205Y0022768D01*
X0387203Y0023554D02*
X0153362Y0023554D01*
X0153362Y0024340D02*
X0387200Y0024340D01*
X0387198Y0025125D02*
X0153362Y0025125D01*
X0153362Y0025911D02*
X0387195Y0025911D01*
X0387193Y0026697D02*
X0153362Y0026697D01*
X0153362Y0027483D02*
X0387190Y0027483D01*
X0387188Y0028269D02*
X0153362Y0028269D01*
X0153362Y0029055D02*
X0256101Y0029055D01*
X0257119Y0028633D02*
X0259454Y0028633D01*
X0261611Y0029527D01*
X0263262Y0031177D01*
X0264155Y0033334D01*
X0264155Y0043469D01*
X0263262Y0045626D01*
X0261611Y0047277D01*
X0259454Y0048170D01*
X0257119Y0048170D01*
X0254962Y0047277D01*
X0253312Y0045626D01*
X0252418Y0043469D01*
X0252418Y0033334D01*
X0253312Y0031177D01*
X0254962Y0029527D01*
X0257119Y0028633D01*
X0254648Y0029841D02*
X0153362Y0029841D01*
X0153362Y0030627D02*
X0253862Y0030627D01*
X0253214Y0031413D02*
X0153362Y0031413D01*
X0153362Y0032199D02*
X0252888Y0032199D01*
X0252563Y0032985D02*
X0153362Y0032985D01*
X0153362Y0033770D02*
X0252418Y0033770D01*
X0252418Y0034556D02*
X0153362Y0034556D01*
X0153362Y0035342D02*
X0252418Y0035342D01*
X0252418Y0036128D02*
X0153362Y0036128D01*
X0153362Y0036914D02*
X0252418Y0036914D01*
X0252418Y0037700D02*
X0153362Y0037700D01*
X0153362Y0038486D02*
X0252418Y0038486D01*
X0252418Y0039272D02*
X0153362Y0039272D01*
X0153362Y0040058D02*
X0252418Y0040058D01*
X0252418Y0040844D02*
X0153362Y0040844D01*
X0153362Y0041630D02*
X0252418Y0041630D01*
X0252418Y0042416D02*
X0153362Y0042416D01*
X0153362Y0043201D02*
X0252418Y0043201D01*
X0252633Y0043987D02*
X0153362Y0043987D01*
X0153362Y0044773D02*
X0252958Y0044773D01*
X0253284Y0045559D02*
X0153362Y0045559D01*
X0153362Y0046345D02*
X0254031Y0046345D01*
X0254817Y0047131D02*
X0153362Y0047131D01*
X0153362Y0047917D02*
X0256508Y0047917D01*
X0260065Y0047917D02*
X0276208Y0047917D01*
X0276819Y0048170D02*
X0274662Y0047277D01*
X0273012Y0045626D01*
X0272118Y0043469D01*
X0272118Y0033334D01*
X0273012Y0031177D01*
X0274662Y0029527D01*
X0276819Y0028633D01*
X0279154Y0028633D01*
X0281311Y0029527D01*
X0282962Y0031177D01*
X0283855Y0033334D01*
X0283855Y0043469D01*
X0282962Y0045626D01*
X0281311Y0047277D01*
X0279154Y0048170D01*
X0276819Y0048170D01*
X0274517Y0047131D02*
X0261756Y0047131D01*
X0262542Y0046345D02*
X0273731Y0046345D01*
X0272984Y0045559D02*
X0263289Y0045559D01*
X0263615Y0044773D02*
X0272658Y0044773D01*
X0272333Y0043987D02*
X0263940Y0043987D01*
X0264155Y0043201D02*
X0272118Y0043201D01*
X0272118Y0042416D02*
X0264155Y0042416D01*
X0264155Y0041630D02*
X0272118Y0041630D01*
X0272118Y0040844D02*
X0264155Y0040844D01*
X0264155Y0040058D02*
X0272118Y0040058D01*
X0272118Y0039272D02*
X0264155Y0039272D01*
X0264155Y0038486D02*
X0272118Y0038486D01*
X0272118Y0037700D02*
X0264155Y0037700D01*
X0264155Y0036914D02*
X0272118Y0036914D01*
X0272118Y0036128D02*
X0264155Y0036128D01*
X0264155Y0035342D02*
X0272118Y0035342D01*
X0272118Y0034556D02*
X0264155Y0034556D01*
X0264155Y0033770D02*
X0272118Y0033770D01*
X0272263Y0032985D02*
X0264010Y0032985D01*
X0263685Y0032199D02*
X0272588Y0032199D01*
X0272914Y0031413D02*
X0263359Y0031413D01*
X0262711Y0030627D02*
X0273562Y0030627D01*
X0274348Y0029841D02*
X0261925Y0029841D01*
X0260473Y0029055D02*
X0275801Y0029055D01*
X0280173Y0029055D02*
X0387185Y0029055D01*
X0387183Y0029841D02*
X0281625Y0029841D01*
X0282411Y0030627D02*
X0387180Y0030627D01*
X0387178Y0031413D02*
X0283059Y0031413D01*
X0283385Y0032199D02*
X0387175Y0032199D01*
X0387172Y0032985D02*
X0283710Y0032985D01*
X0283855Y0033770D02*
X0387170Y0033770D01*
X0387167Y0034556D02*
X0283855Y0034556D01*
X0283855Y0035342D02*
X0387165Y0035342D01*
X0387162Y0036128D02*
X0283855Y0036128D01*
X0283855Y0036914D02*
X0329876Y0036914D01*
X0329605Y0037027D02*
X0331762Y0036133D01*
X0334096Y0036133D01*
X0336253Y0037027D01*
X0337904Y0038677D01*
X0338798Y0040834D01*
X0338798Y0050969D01*
X0337904Y0053126D01*
X0336253Y0054777D01*
X0334096Y0055670D01*
X0331762Y0055670D01*
X0329605Y0054777D01*
X0327954Y0053126D01*
X0327061Y0050969D01*
X0327061Y0040834D01*
X0327954Y0038677D01*
X0329605Y0037027D01*
X0328931Y0037700D02*
X0283855Y0037700D01*
X0283855Y0038486D02*
X0328145Y0038486D01*
X0327708Y0039272D02*
X0283855Y0039272D01*
X0283855Y0040058D02*
X0327382Y0040058D01*
X0327061Y0040844D02*
X0283855Y0040844D01*
X0283855Y0041630D02*
X0327061Y0041630D01*
X0327061Y0042416D02*
X0283855Y0042416D01*
X0283855Y0043201D02*
X0327061Y0043201D01*
X0327061Y0043987D02*
X0283640Y0043987D01*
X0283315Y0044773D02*
X0306716Y0044773D01*
X0306105Y0045027D02*
X0308262Y0044133D01*
X0310596Y0044133D01*
X0312753Y0045027D01*
X0314404Y0046677D01*
X0315298Y0048834D01*
X0315298Y0058969D01*
X0314404Y0061126D01*
X0312753Y0062777D01*
X0310596Y0063670D01*
X0308262Y0063670D01*
X0306105Y0062777D01*
X0304454Y0061126D01*
X0303561Y0058969D01*
X0303561Y0048834D01*
X0304454Y0046677D01*
X0306105Y0045027D01*
X0305572Y0045559D02*
X0282989Y0045559D01*
X0282242Y0046345D02*
X0304786Y0046345D01*
X0304266Y0047131D02*
X0281456Y0047131D01*
X0279765Y0047917D02*
X0303941Y0047917D01*
X0303615Y0048703D02*
X0153362Y0048703D01*
X0153362Y0049489D02*
X0303561Y0049489D01*
X0303561Y0050275D02*
X0153362Y0050275D01*
X0153362Y0051061D02*
X0303561Y0051061D01*
X0303561Y0051846D02*
X0153362Y0051846D01*
X0153362Y0052632D02*
X0303561Y0052632D01*
X0303561Y0053418D02*
X0229211Y0053418D01*
X0228229Y0053012D02*
X0230239Y0053844D01*
X0231778Y0055383D01*
X0232610Y0057393D01*
X0232610Y0059568D01*
X0231778Y0061578D01*
X0230239Y0063116D01*
X0228229Y0063949D01*
X0226054Y0063949D01*
X0224044Y0063116D01*
X0222506Y0061578D01*
X0221673Y0059568D01*
X0221673Y0057393D01*
X0222506Y0055383D01*
X0224044Y0053844D01*
X0226054Y0053012D01*
X0228229Y0053012D01*
X0230599Y0054204D02*
X0303561Y0054204D01*
X0303561Y0054990D02*
X0231385Y0054990D01*
X0231941Y0055776D02*
X0303561Y0055776D01*
X0303561Y0056562D02*
X0232266Y0056562D01*
X0232592Y0057348D02*
X0303561Y0057348D01*
X0303561Y0058134D02*
X0232610Y0058134D01*
X0232610Y0058920D02*
X0303561Y0058920D01*
X0303866Y0059706D02*
X0232553Y0059706D01*
X0232228Y0060492D02*
X0304191Y0060492D01*
X0304606Y0061277D02*
X0231902Y0061277D01*
X0231292Y0062063D02*
X0305392Y0062063D01*
X0306280Y0062849D02*
X0230506Y0062849D01*
X0228987Y0063635D02*
X0308178Y0063635D01*
X0310681Y0063635D02*
X0355178Y0063635D01*
X0355262Y0063670D02*
X0353105Y0062777D01*
X0351454Y0061126D01*
X0350561Y0058969D01*
X0350561Y0048834D01*
X0351454Y0046677D01*
X0353105Y0045027D01*
X0355262Y0044133D01*
X0357596Y0044133D01*
X0359753Y0045027D01*
X0361404Y0046677D01*
X0362298Y0048834D01*
X0362298Y0058969D01*
X0361404Y0061126D01*
X0359753Y0062777D01*
X0357596Y0063670D01*
X0355262Y0063670D01*
X0353280Y0062849D02*
X0312578Y0062849D01*
X0313467Y0062063D02*
X0352392Y0062063D01*
X0351606Y0061277D02*
X0314253Y0061277D01*
X0314667Y0060492D02*
X0351191Y0060492D01*
X0350866Y0059706D02*
X0314992Y0059706D01*
X0315298Y0058920D02*
X0350561Y0058920D01*
X0350561Y0058134D02*
X0315298Y0058134D01*
X0315298Y0057348D02*
X0350561Y0057348D01*
X0350561Y0056562D02*
X0315298Y0056562D01*
X0315298Y0055776D02*
X0350561Y0055776D01*
X0350561Y0054990D02*
X0335738Y0054990D01*
X0336826Y0054204D02*
X0350561Y0054204D01*
X0350561Y0053418D02*
X0337612Y0053418D01*
X0338109Y0052632D02*
X0350561Y0052632D01*
X0350561Y0051846D02*
X0338434Y0051846D01*
X0338760Y0051061D02*
X0350561Y0051061D01*
X0350561Y0050275D02*
X0338798Y0050275D01*
X0338798Y0049489D02*
X0350561Y0049489D01*
X0350615Y0048703D02*
X0338798Y0048703D01*
X0338798Y0047917D02*
X0350941Y0047917D01*
X0351266Y0047131D02*
X0338798Y0047131D01*
X0338798Y0046345D02*
X0351786Y0046345D01*
X0352572Y0045559D02*
X0338798Y0045559D01*
X0338798Y0044773D02*
X0353716Y0044773D01*
X0359142Y0044773D02*
X0387134Y0044773D01*
X0387137Y0043987D02*
X0338798Y0043987D01*
X0338798Y0043201D02*
X0387140Y0043201D01*
X0387142Y0042416D02*
X0338798Y0042416D01*
X0338798Y0041630D02*
X0387145Y0041630D01*
X0387147Y0040844D02*
X0338798Y0040844D01*
X0338476Y0040058D02*
X0387150Y0040058D01*
X0387152Y0039272D02*
X0338150Y0039272D01*
X0337713Y0038486D02*
X0387155Y0038486D01*
X0387157Y0037700D02*
X0336927Y0037700D01*
X0335982Y0036914D02*
X0387160Y0036914D01*
X0387132Y0045559D02*
X0360286Y0045559D01*
X0361072Y0046345D02*
X0387129Y0046345D01*
X0387127Y0047131D02*
X0361592Y0047131D01*
X0361918Y0047917D02*
X0387124Y0047917D01*
X0387122Y0048703D02*
X0362243Y0048703D01*
X0362298Y0049489D02*
X0387119Y0049489D01*
X0387117Y0050275D02*
X0362298Y0050275D01*
X0362298Y0051061D02*
X0387114Y0051061D01*
X0387112Y0051846D02*
X0362298Y0051846D01*
X0362298Y0052632D02*
X0387109Y0052632D01*
X0387107Y0053418D02*
X0362298Y0053418D01*
X0362298Y0054204D02*
X0387104Y0054204D01*
X0387102Y0054990D02*
X0362298Y0054990D01*
X0362298Y0055776D02*
X0387099Y0055776D01*
X0387096Y0056562D02*
X0362298Y0056562D01*
X0362298Y0057348D02*
X0387094Y0057348D01*
X0387091Y0058134D02*
X0362298Y0058134D01*
X0362298Y0058920D02*
X0387089Y0058920D01*
X0387086Y0059706D02*
X0361992Y0059706D01*
X0361667Y0060492D02*
X0387084Y0060492D01*
X0387081Y0061277D02*
X0361253Y0061277D01*
X0360467Y0062063D02*
X0387079Y0062063D01*
X0387076Y0062849D02*
X0359578Y0062849D01*
X0357681Y0063635D02*
X0387074Y0063635D01*
X0387071Y0064421D02*
X0212610Y0064421D01*
X0212610Y0064085D02*
X0212610Y0066261D01*
X0211778Y0068271D01*
X0210239Y0069809D01*
X0208229Y0070642D01*
X0206054Y0070642D01*
X0204044Y0069809D01*
X0202506Y0068271D01*
X0201673Y0066261D01*
X0201673Y0064085D01*
X0202506Y0062076D01*
X0204044Y0060537D01*
X0206054Y0059705D01*
X0208229Y0059705D01*
X0210239Y0060537D01*
X0211778Y0062076D01*
X0212610Y0064085D01*
X0212424Y0063635D02*
X0225297Y0063635D01*
X0223777Y0062849D02*
X0212098Y0062849D01*
X0211765Y0062063D02*
X0222991Y0062063D01*
X0222381Y0061277D02*
X0210980Y0061277D01*
X0210129Y0060492D02*
X0222056Y0060492D01*
X0221730Y0059706D02*
X0208232Y0059706D01*
X0206052Y0059706D02*
X0153362Y0059706D01*
X0153362Y0060492D02*
X0204155Y0060492D01*
X0203304Y0061277D02*
X0153362Y0061277D01*
X0153362Y0062063D02*
X0202518Y0062063D01*
X0202185Y0062849D02*
X0153362Y0062849D01*
X0153362Y0063635D02*
X0201860Y0063635D01*
X0201673Y0064421D02*
X0153362Y0064421D01*
X0153362Y0065207D02*
X0201673Y0065207D01*
X0201673Y0065993D02*
X0153362Y0065993D01*
X0153362Y0066779D02*
X0201888Y0066779D01*
X0202213Y0067565D02*
X0153362Y0067565D01*
X0153362Y0068351D02*
X0202586Y0068351D01*
X0203371Y0069137D02*
X0153362Y0069137D01*
X0153362Y0069922D02*
X0204318Y0069922D01*
X0206054Y0073091D02*
X0204044Y0073923D01*
X0202506Y0075461D01*
X0201673Y0077471D01*
X0201673Y0079647D01*
X0202506Y0081657D01*
X0204044Y0083195D01*
X0206054Y0084028D01*
X0208229Y0084028D01*
X0210239Y0083195D01*
X0211778Y0081657D01*
X0212610Y0079647D01*
X0212610Y0077471D01*
X0211778Y0075461D01*
X0210239Y0073923D01*
X0208229Y0073091D01*
X0206054Y0073091D01*
X0204216Y0073852D02*
X0153362Y0073852D01*
X0153362Y0073066D02*
X0221720Y0073066D01*
X0221673Y0072954D02*
X0221673Y0070778D01*
X0222506Y0068768D01*
X0224044Y0067230D01*
X0226054Y0066398D01*
X0228229Y0066398D01*
X0230239Y0067230D01*
X0231778Y0068768D01*
X0232610Y0070778D01*
X0232610Y0072954D01*
X0231778Y0074964D01*
X0230239Y0076502D01*
X0228229Y0077335D01*
X0226054Y0077335D01*
X0224044Y0076502D01*
X0222506Y0074964D01*
X0221673Y0072954D01*
X0221673Y0072280D02*
X0153362Y0072280D01*
X0153362Y0071494D02*
X0221673Y0071494D01*
X0221702Y0070708D02*
X0153362Y0070708D01*
X0153362Y0074638D02*
X0203329Y0074638D01*
X0202543Y0075424D02*
X0153362Y0075424D01*
X0153362Y0076210D02*
X0202196Y0076210D01*
X0201870Y0076996D02*
X0153362Y0076996D01*
X0153362Y0077782D02*
X0201673Y0077782D01*
X0201673Y0078568D02*
X0153362Y0078568D01*
X0153362Y0079353D02*
X0201673Y0079353D01*
X0201877Y0080139D02*
X0153362Y0080139D01*
X0153362Y0080925D02*
X0202203Y0080925D01*
X0202560Y0081711D02*
X0153362Y0081711D01*
X0153362Y0082497D02*
X0203346Y0082497D01*
X0204256Y0083283D02*
X0153362Y0083283D01*
X0153362Y0084069D02*
X0221713Y0084069D01*
X0221673Y0084164D02*
X0222506Y0082154D01*
X0224044Y0080616D01*
X0226054Y0079783D01*
X0228229Y0079783D01*
X0230239Y0080616D01*
X0231778Y0082154D01*
X0232610Y0084164D01*
X0232610Y0086340D01*
X0231778Y0088350D01*
X0230239Y0089888D01*
X0228229Y0090720D01*
X0226054Y0090720D01*
X0224044Y0089888D01*
X0222506Y0088350D01*
X0221673Y0086340D01*
X0221673Y0084164D01*
X0221673Y0084855D02*
X0153362Y0084855D01*
X0153362Y0085641D02*
X0221673Y0085641D01*
X0221709Y0086427D02*
X0153362Y0086427D01*
X0153362Y0087213D02*
X0204277Y0087213D01*
X0204044Y0087309D02*
X0206054Y0086476D01*
X0208229Y0086476D01*
X0210239Y0087309D01*
X0211778Y0088847D01*
X0212610Y0090857D01*
X0212610Y0093033D01*
X0211778Y0095043D01*
X0210239Y0096581D01*
X0208229Y0097413D01*
X0206054Y0097413D01*
X0204044Y0096581D01*
X0202506Y0095043D01*
X0201673Y0093033D01*
X0201673Y0090857D01*
X0202506Y0088847D01*
X0204044Y0087309D01*
X0203355Y0087998D02*
X0153362Y0087998D01*
X0153362Y0088784D02*
X0202569Y0088784D01*
X0202206Y0089570D02*
X0153362Y0089570D01*
X0153362Y0090356D02*
X0201881Y0090356D01*
X0201673Y0091142D02*
X0153362Y0091142D01*
X0153362Y0091928D02*
X0201673Y0091928D01*
X0201673Y0092714D02*
X0153362Y0092714D01*
X0153362Y0093500D02*
X0201867Y0093500D01*
X0202192Y0094286D02*
X0153362Y0094286D01*
X0153362Y0095072D02*
X0202535Y0095072D01*
X0203321Y0095858D02*
X0153362Y0095858D01*
X0153362Y0096644D02*
X0204195Y0096644D01*
X0204338Y0100573D02*
X0153362Y0100573D01*
X0153362Y0099787D02*
X0222370Y0099787D01*
X0222369Y0099784D02*
X0222249Y0099031D01*
X0226748Y0099031D01*
X0226748Y0098244D01*
X0227535Y0098244D01*
X0227535Y0093745D01*
X0228288Y0093865D01*
X0229020Y0094103D01*
X0229707Y0094452D01*
X0230330Y0094905D01*
X0230874Y0095450D01*
X0231327Y0096073D01*
X0231677Y0096759D01*
X0231915Y0097492D01*
X0232034Y0098244D01*
X0227535Y0098244D01*
X0227535Y0099031D01*
X0232034Y0099031D01*
X0231915Y0099784D01*
X0231677Y0100516D01*
X0231327Y0101203D01*
X0230874Y0101826D01*
X0230330Y0102370D01*
X0229707Y0102823D01*
X0229020Y0103173D01*
X0228288Y0103411D01*
X0227535Y0103530D01*
X0227535Y0099032D01*
X0226748Y0099032D01*
X0226748Y0103530D01*
X0225996Y0103411D01*
X0225263Y0103173D01*
X0224577Y0102823D01*
X0223954Y0102370D01*
X0223409Y0101826D01*
X0222956Y0101203D01*
X0222607Y0100516D01*
X0222369Y0099784D01*
X0222635Y0100573D02*
X0209946Y0100573D01*
X0210904Y0101359D02*
X0223070Y0101359D01*
X0223728Y0102145D02*
X0211690Y0102145D01*
X0212067Y0102931D02*
X0224788Y0102931D01*
X0226748Y0102931D02*
X0227535Y0102931D01*
X0227535Y0102145D02*
X0226748Y0102145D01*
X0226748Y0101359D02*
X0227535Y0101359D01*
X0227535Y0100573D02*
X0226748Y0100573D01*
X0226748Y0099787D02*
X0227535Y0099787D01*
X0227535Y0099001D02*
X0303561Y0099001D01*
X0303561Y0098215D02*
X0232029Y0098215D01*
X0231895Y0097429D02*
X0303561Y0097429D01*
X0303561Y0096834D02*
X0304454Y0094677D01*
X0306105Y0093027D01*
X0308262Y0092133D01*
X0310596Y0092133D01*
X0312753Y0093027D01*
X0314404Y0094677D01*
X0315298Y0096834D01*
X0315298Y0106969D01*
X0314404Y0109126D01*
X0312753Y0110777D01*
X0310596Y0111670D01*
X0308262Y0111670D01*
X0306105Y0110777D01*
X0304454Y0109126D01*
X0303561Y0106969D01*
X0303561Y0096834D01*
X0303640Y0096644D02*
X0231618Y0096644D01*
X0231171Y0095858D02*
X0303965Y0095858D01*
X0304291Y0095072D02*
X0230496Y0095072D01*
X0229380Y0094286D02*
X0304846Y0094286D01*
X0305632Y0093500D02*
X0212417Y0093500D01*
X0212610Y0092714D02*
X0306859Y0092714D01*
X0311999Y0092714D02*
X0353859Y0092714D01*
X0353105Y0093027D02*
X0355262Y0092133D01*
X0357596Y0092133D01*
X0359753Y0093027D01*
X0361404Y0094677D01*
X0362298Y0096834D01*
X0362298Y0106969D01*
X0361404Y0109126D01*
X0359753Y0110777D01*
X0357596Y0111670D01*
X0355262Y0111670D01*
X0353105Y0110777D01*
X0351454Y0109126D01*
X0350561Y0106969D01*
X0350561Y0096834D01*
X0351454Y0094677D01*
X0353105Y0093027D01*
X0352632Y0093500D02*
X0313227Y0093500D01*
X0314013Y0094286D02*
X0351846Y0094286D01*
X0351291Y0095072D02*
X0314568Y0095072D01*
X0314893Y0095858D02*
X0350965Y0095858D01*
X0350640Y0096644D02*
X0315219Y0096644D01*
X0315298Y0097429D02*
X0350561Y0097429D01*
X0350561Y0098215D02*
X0315298Y0098215D01*
X0315298Y0099001D02*
X0350561Y0099001D01*
X0350561Y0099787D02*
X0315298Y0099787D01*
X0315298Y0100573D02*
X0350561Y0100573D01*
X0350561Y0101359D02*
X0315298Y0101359D01*
X0315298Y0102145D02*
X0350561Y0102145D01*
X0350561Y0102931D02*
X0315298Y0102931D01*
X0315298Y0103717D02*
X0350561Y0103717D01*
X0350561Y0104503D02*
X0315298Y0104503D01*
X0315298Y0105289D02*
X0350561Y0105289D01*
X0350561Y0106074D02*
X0315298Y0106074D01*
X0315298Y0106860D02*
X0350561Y0106860D01*
X0350841Y0107646D02*
X0315017Y0107646D01*
X0314692Y0108432D02*
X0351167Y0108432D01*
X0351546Y0109218D02*
X0314312Y0109218D01*
X0313526Y0110004D02*
X0352332Y0110004D01*
X0353137Y0110790D02*
X0312721Y0110790D01*
X0310824Y0111576D02*
X0355034Y0111576D01*
X0357824Y0111576D02*
X0386919Y0111576D01*
X0386917Y0112362D02*
X0232610Y0112362D01*
X0232595Y0113148D02*
X0386914Y0113148D01*
X0386912Y0113934D02*
X0232270Y0113934D01*
X0231944Y0114720D02*
X0386909Y0114720D01*
X0386906Y0115505D02*
X0231394Y0115505D01*
X0230608Y0116291D02*
X0386904Y0116291D01*
X0386901Y0117077D02*
X0229231Y0117077D01*
X0228229Y0119941D02*
X0226054Y0119941D01*
X0224044Y0120773D01*
X0222506Y0122312D01*
X0221673Y0124322D01*
X0221673Y0126497D01*
X0222506Y0128507D01*
X0224044Y0130045D01*
X0226054Y0130878D01*
X0228229Y0130878D01*
X0230239Y0130045D01*
X0231778Y0128507D01*
X0232610Y0126497D01*
X0232610Y0124322D01*
X0231778Y0122312D01*
X0230239Y0120773D01*
X0228229Y0119941D01*
X0228905Y0120221D02*
X0386891Y0120221D01*
X0386889Y0121007D02*
X0230473Y0121007D01*
X0231259Y0121793D02*
X0386886Y0121793D01*
X0386884Y0122579D02*
X0231888Y0122579D01*
X0232214Y0123365D02*
X0386881Y0123365D01*
X0386879Y0124150D02*
X0232539Y0124150D01*
X0232610Y0124936D02*
X0386876Y0124936D01*
X0386873Y0125722D02*
X0232610Y0125722D01*
X0232606Y0126508D02*
X0386871Y0126508D01*
X0386868Y0127294D02*
X0232280Y0127294D01*
X0231955Y0128080D02*
X0386866Y0128080D01*
X0386863Y0128866D02*
X0231419Y0128866D01*
X0230633Y0129652D02*
X0386861Y0129652D01*
X0386858Y0130438D02*
X0229292Y0130438D01*
X0224991Y0130438D02*
X0153362Y0130438D01*
X0153362Y0131224D02*
X0386856Y0131224D01*
X0386853Y0132010D02*
X0153362Y0132010D01*
X0153362Y0132795D02*
X0242847Y0132795D01*
X0243075Y0132701D02*
X0245618Y0132701D01*
X0247968Y0133675D01*
X0249767Y0135473D01*
X0250740Y0137823D01*
X0250740Y0149216D01*
X0249767Y0151566D01*
X0247968Y0153365D01*
X0245618Y0154338D01*
X0243075Y0154338D01*
X0240725Y0153365D01*
X0238926Y0151566D01*
X0237953Y0149216D01*
X0237953Y0137823D01*
X0238926Y0135473D01*
X0240725Y0133675D01*
X0243075Y0132701D01*
X0240950Y0133581D02*
X0153362Y0133581D01*
X0153362Y0134367D02*
X0240032Y0134367D01*
X0239246Y0135153D02*
X0153362Y0135153D01*
X0153362Y0135939D02*
X0238733Y0135939D01*
X0238408Y0136725D02*
X0153362Y0136725D01*
X0153362Y0137511D02*
X0238082Y0137511D01*
X0237953Y0138297D02*
X0153362Y0138297D01*
X0153362Y0139083D02*
X0237953Y0139083D01*
X0237953Y0139869D02*
X0153362Y0139869D01*
X0153362Y0140655D02*
X0237953Y0140655D01*
X0237953Y0141441D02*
X0153362Y0141441D01*
X0153362Y0142226D02*
X0237953Y0142226D01*
X0237953Y0143012D02*
X0153362Y0143012D01*
X0153362Y0143798D02*
X0237953Y0143798D01*
X0237953Y0144584D02*
X0153362Y0144584D01*
X0153362Y0145370D02*
X0237953Y0145370D01*
X0237953Y0146156D02*
X0153362Y0146156D01*
X0153362Y0146942D02*
X0237953Y0146942D01*
X0237953Y0147728D02*
X0153362Y0147728D01*
X0153362Y0148514D02*
X0237953Y0148514D01*
X0237987Y0149300D02*
X0153362Y0149300D01*
X0153362Y0150086D02*
X0238313Y0150086D01*
X0238639Y0150871D02*
X0153362Y0150871D01*
X0153362Y0151657D02*
X0239017Y0151657D01*
X0239803Y0152443D02*
X0153362Y0152443D01*
X0153362Y0153229D02*
X0240589Y0153229D01*
X0242295Y0154015D02*
X0153362Y0154015D01*
X0153362Y0154801D02*
X0366288Y0154801D01*
X0365292Y0154388D02*
X0363493Y0152590D01*
X0362520Y0150240D01*
X0362520Y0138847D01*
X0363493Y0136497D01*
X0365292Y0134698D01*
X0367642Y0133725D01*
X0370185Y0133725D01*
X0372535Y0134698D01*
X0374334Y0136497D01*
X0375307Y0138847D01*
X0375307Y0150240D01*
X0374334Y0152590D01*
X0372535Y0154388D01*
X0370185Y0155362D01*
X0367642Y0155362D01*
X0365292Y0154388D01*
X0364918Y0154015D02*
X0246398Y0154015D01*
X0248104Y0153229D02*
X0364133Y0153229D01*
X0363433Y0152443D02*
X0248890Y0152443D01*
X0249675Y0151657D02*
X0363107Y0151657D01*
X0362781Y0150871D02*
X0250054Y0150871D01*
X0250380Y0150086D02*
X0362520Y0150086D01*
X0362520Y0149300D02*
X0336571Y0149300D01*
X0336158Y0149471D02*
X0326023Y0149471D01*
X0323866Y0148577D01*
X0322215Y0146927D01*
X0321322Y0144770D01*
X0321322Y0142435D01*
X0322215Y0140278D01*
X0323866Y0138627D01*
X0326023Y0137734D01*
X0336158Y0137734D01*
X0338315Y0138627D01*
X0339966Y0140278D01*
X0340859Y0142435D01*
X0340859Y0144770D01*
X0339966Y0146927D01*
X0338315Y0148577D01*
X0336158Y0149471D01*
X0338378Y0148514D02*
X0362520Y0148514D01*
X0362520Y0147728D02*
X0339164Y0147728D01*
X0339950Y0146942D02*
X0362520Y0146942D01*
X0362520Y0146156D02*
X0340285Y0146156D01*
X0340610Y0145370D02*
X0362520Y0145370D01*
X0362520Y0144584D02*
X0340859Y0144584D01*
X0340859Y0143798D02*
X0362520Y0143798D01*
X0362520Y0143012D02*
X0340859Y0143012D01*
X0340773Y0142226D02*
X0362520Y0142226D01*
X0362520Y0141441D02*
X0340447Y0141441D01*
X0340122Y0140655D02*
X0362520Y0140655D01*
X0362520Y0139869D02*
X0339556Y0139869D01*
X0338770Y0139083D02*
X0362520Y0139083D01*
X0362748Y0138297D02*
X0337517Y0138297D01*
X0324664Y0138297D02*
X0289517Y0138297D01*
X0290315Y0138627D02*
X0288158Y0137734D01*
X0278023Y0137734D01*
X0275866Y0138627D01*
X0274215Y0140278D01*
X0273322Y0142435D01*
X0273322Y0144770D01*
X0274215Y0146927D01*
X0275866Y0148577D01*
X0278023Y0149471D01*
X0288158Y0149471D01*
X0290315Y0148577D01*
X0291966Y0146927D01*
X0292859Y0144770D01*
X0292859Y0142435D01*
X0291966Y0140278D01*
X0290315Y0138627D01*
X0290770Y0139083D02*
X0323411Y0139083D01*
X0322625Y0139869D02*
X0291556Y0139869D01*
X0292122Y0140655D02*
X0322060Y0140655D01*
X0321734Y0141441D02*
X0292447Y0141441D01*
X0292773Y0142226D02*
X0321408Y0142226D01*
X0321322Y0143012D02*
X0292859Y0143012D01*
X0292859Y0143798D02*
X0321322Y0143798D01*
X0321322Y0144584D02*
X0292859Y0144584D01*
X0292610Y0145370D02*
X0321571Y0145370D01*
X0321896Y0146156D02*
X0292285Y0146156D01*
X0291950Y0146942D02*
X0322231Y0146942D01*
X0323017Y0147728D02*
X0291164Y0147728D01*
X0290378Y0148514D02*
X0323803Y0148514D01*
X0325610Y0149300D02*
X0288571Y0149300D01*
X0277610Y0149300D02*
X0250705Y0149300D01*
X0250740Y0148514D02*
X0275803Y0148514D01*
X0275017Y0147728D02*
X0250740Y0147728D01*
X0250740Y0146942D02*
X0274231Y0146942D01*
X0273896Y0146156D02*
X0250740Y0146156D01*
X0250740Y0145370D02*
X0273571Y0145370D01*
X0273322Y0144584D02*
X0250740Y0144584D01*
X0250740Y0143798D02*
X0273322Y0143798D01*
X0273322Y0143012D02*
X0250740Y0143012D01*
X0250740Y0142226D02*
X0273408Y0142226D01*
X0273734Y0141441D02*
X0250740Y0141441D01*
X0250740Y0140655D02*
X0274060Y0140655D01*
X0274625Y0139869D02*
X0250740Y0139869D01*
X0250740Y0139083D02*
X0275411Y0139083D01*
X0276664Y0138297D02*
X0250740Y0138297D01*
X0250611Y0137511D02*
X0363073Y0137511D01*
X0363399Y0136725D02*
X0250285Y0136725D01*
X0249960Y0135939D02*
X0364051Y0135939D01*
X0364837Y0135153D02*
X0249447Y0135153D01*
X0248661Y0134367D02*
X0366090Y0134367D01*
X0371736Y0134367D02*
X0386846Y0134367D01*
X0386848Y0133581D02*
X0247743Y0133581D01*
X0245846Y0132795D02*
X0386851Y0132795D01*
X0386843Y0135153D02*
X0372990Y0135153D01*
X0373776Y0135939D02*
X0386841Y0135939D01*
X0386838Y0136725D02*
X0374428Y0136725D01*
X0374754Y0137511D02*
X0386835Y0137511D01*
X0386833Y0138297D02*
X0375079Y0138297D01*
X0375307Y0139083D02*
X0386830Y0139083D01*
X0386828Y0139869D02*
X0375307Y0139869D01*
X0375307Y0140655D02*
X0386825Y0140655D01*
X0386823Y0141441D02*
X0375307Y0141441D01*
X0375307Y0142226D02*
X0386820Y0142226D01*
X0386818Y0143012D02*
X0375307Y0143012D01*
X0375307Y0143798D02*
X0386815Y0143798D01*
X0386813Y0144584D02*
X0375307Y0144584D01*
X0375307Y0145370D02*
X0386810Y0145370D01*
X0386808Y0146156D02*
X0375307Y0146156D01*
X0375307Y0146942D02*
X0386805Y0146942D01*
X0386803Y0147728D02*
X0375307Y0147728D01*
X0375307Y0148514D02*
X0386800Y0148514D01*
X0386797Y0149300D02*
X0375307Y0149300D01*
X0375307Y0150086D02*
X0386795Y0150086D01*
X0386792Y0150871D02*
X0375045Y0150871D01*
X0374720Y0151657D02*
X0386790Y0151657D01*
X0386787Y0152443D02*
X0374394Y0152443D01*
X0373694Y0153229D02*
X0386785Y0153229D01*
X0386782Y0154015D02*
X0372908Y0154015D01*
X0371539Y0154801D02*
X0386780Y0154801D01*
X0386777Y0155587D02*
X0153362Y0155587D01*
X0153362Y0156373D02*
X0386775Y0156373D01*
X0386772Y0157159D02*
X0153362Y0157159D01*
X0153362Y0157945D02*
X0386770Y0157945D01*
X0386767Y0158731D02*
X0153362Y0158731D01*
X0153362Y0159517D02*
X0386765Y0159517D01*
X0386762Y0160302D02*
X0153362Y0160302D01*
X0153362Y0161088D02*
X0386759Y0161088D01*
X0386757Y0161874D02*
X0345704Y0161874D01*
X0346315Y0162127D02*
X0347966Y0163778D01*
X0348859Y0165935D01*
X0348859Y0168270D01*
X0347966Y0170427D01*
X0346315Y0172077D01*
X0344158Y0172971D01*
X0334023Y0172971D01*
X0331866Y0172077D01*
X0330215Y0170427D01*
X0329322Y0168270D01*
X0329322Y0165935D01*
X0330215Y0163778D01*
X0331866Y0162127D01*
X0334023Y0161234D01*
X0344158Y0161234D01*
X0346315Y0162127D01*
X0346848Y0162660D02*
X0386754Y0162660D01*
X0386752Y0163446D02*
X0347634Y0163446D01*
X0348154Y0164232D02*
X0386749Y0164232D01*
X0386747Y0165018D02*
X0348479Y0165018D01*
X0348805Y0165804D02*
X0386744Y0165804D01*
X0386742Y0166590D02*
X0348859Y0166590D01*
X0348859Y0167376D02*
X0386739Y0167376D01*
X0386737Y0168162D02*
X0348859Y0168162D01*
X0348578Y0168947D02*
X0386734Y0168947D01*
X0386732Y0169733D02*
X0348253Y0169733D01*
X0347873Y0170519D02*
X0386729Y0170519D01*
X0386727Y0171305D02*
X0347087Y0171305D01*
X0346282Y0172091D02*
X0386724Y0172091D01*
X0386721Y0172877D02*
X0344384Y0172877D01*
X0333797Y0172877D02*
X0153362Y0172877D01*
X0153362Y0172091D02*
X0331899Y0172091D01*
X0331094Y0171305D02*
X0153362Y0171305D01*
X0153362Y0170519D02*
X0330308Y0170519D01*
X0329928Y0169733D02*
X0153362Y0169733D01*
X0153362Y0168947D02*
X0329603Y0168947D01*
X0329322Y0168162D02*
X0153362Y0168162D01*
X0153362Y0167376D02*
X0329322Y0167376D01*
X0329322Y0166590D02*
X0153362Y0166590D01*
X0153362Y0165804D02*
X0329376Y0165804D01*
X0329702Y0165018D02*
X0153362Y0165018D01*
X0153362Y0164232D02*
X0330027Y0164232D01*
X0330547Y0163446D02*
X0153362Y0163446D01*
X0153362Y0162660D02*
X0331333Y0162660D01*
X0332477Y0161874D02*
X0153362Y0161874D01*
X0147850Y0161874D02*
X0100722Y0161874D01*
X0100400Y0162196D02*
X0098721Y0162891D01*
X0091704Y0162891D01*
X0090025Y0162196D01*
X0088740Y0160911D01*
X0088044Y0159232D01*
X0088044Y0157414D01*
X0088740Y0155735D01*
X0090025Y0154450D01*
X0091704Y0153754D01*
X0098721Y0153754D01*
X0100400Y0154450D01*
X0101686Y0155735D01*
X0102381Y0157414D01*
X0102381Y0159232D01*
X0101686Y0160911D01*
X0100400Y0162196D01*
X0099279Y0162660D02*
X0147850Y0162660D01*
X0147850Y0163446D02*
X0042058Y0163446D01*
X0042383Y0164232D02*
X0060551Y0164232D01*
X0060025Y0164450D02*
X0061704Y0163754D01*
X0068721Y0163754D01*
X0070400Y0164450D01*
X0071686Y0165735D01*
X0072381Y0167414D01*
X0072381Y0169232D01*
X0071686Y0170911D01*
X0070400Y0172196D01*
X0068721Y0172891D01*
X0061704Y0172891D01*
X0060025Y0172196D01*
X0058740Y0170911D01*
X0058044Y0169232D01*
X0058044Y0167414D01*
X0058740Y0165735D01*
X0060025Y0164450D01*
X0059457Y0165018D02*
X0042428Y0165018D01*
X0042428Y0165804D02*
X0058711Y0165804D01*
X0058386Y0166590D02*
X0042428Y0166590D01*
X0042428Y0167376D02*
X0058060Y0167376D01*
X0058044Y0168162D02*
X0042428Y0168162D01*
X0042428Y0168947D02*
X0058044Y0168947D01*
X0058252Y0169733D02*
X0042428Y0169733D01*
X0042428Y0170519D02*
X0058577Y0170519D01*
X0059134Y0171305D02*
X0042428Y0171305D01*
X0042428Y0172091D02*
X0059920Y0172091D01*
X0061669Y0172877D02*
X0042195Y0172877D01*
X0041870Y0173663D02*
X0147850Y0173663D01*
X0147850Y0174449D02*
X0041364Y0174449D01*
X0040578Y0175235D02*
X0147850Y0175235D01*
X0147850Y0176021D02*
X0039112Y0176021D01*
X0039833Y0176807D02*
X0035355Y0176807D01*
X0035806Y0176021D02*
X0034569Y0176021D01*
X0034340Y0175235D02*
X0033783Y0175235D01*
X0033554Y0174449D02*
X0032998Y0174449D01*
X0033049Y0173663D02*
X0032890Y0173663D01*
X0026591Y0173663D02*
X0023393Y0173663D01*
X0023417Y0173630D02*
X0023010Y0174190D01*
X0022521Y0174679D01*
X0021962Y0175085D01*
X0021346Y0175399D01*
X0020688Y0175613D01*
X0020053Y0175714D01*
X0020053Y0168721D01*
X0024053Y0168721D01*
X0024053Y0171673D01*
X0023945Y0172356D01*
X0023731Y0173014D01*
X0023417Y0173630D01*
X0023775Y0172877D02*
X0026591Y0172877D01*
X0026591Y0172091D02*
X0023987Y0172091D01*
X0024053Y0171305D02*
X0026591Y0171305D01*
X0026591Y0170519D02*
X0024053Y0170519D01*
X0024053Y0169733D02*
X0026591Y0169733D01*
X0026591Y0168947D02*
X0024053Y0168947D01*
X0024053Y0167934D02*
X0020053Y0167934D01*
X0020053Y0168721D01*
X0019265Y0168721D01*
X0019265Y0167934D01*
X0015265Y0167934D01*
X0015265Y0164982D01*
X0015374Y0164299D01*
X0015587Y0163641D01*
X0015901Y0163025D01*
X0016308Y0162465D01*
X0016797Y0161976D01*
X0017356Y0161570D01*
X0017972Y0161256D01*
X0018630Y0161042D01*
X0019265Y0160941D01*
X0019265Y0167934D01*
X0020053Y0167934D01*
X0020053Y0160941D01*
X0020688Y0161042D01*
X0021346Y0161256D01*
X0021962Y0161570D01*
X0022521Y0161976D01*
X0023010Y0162465D01*
X0023417Y0163025D01*
X0023731Y0163641D01*
X0023945Y0164299D01*
X0024053Y0164982D01*
X0024053Y0167934D01*
X0024053Y0167376D02*
X0026591Y0167376D01*
X0026591Y0168162D02*
X0020053Y0168162D01*
X0020053Y0168947D02*
X0019265Y0168947D01*
X0019265Y0168721D02*
X0019265Y0175714D01*
X0018630Y0175613D01*
X0017972Y0175399D01*
X0017356Y0175085D01*
X0016797Y0174679D01*
X0016308Y0174190D01*
X0015901Y0173630D01*
X0015587Y0173014D01*
X0015374Y0172356D01*
X0015265Y0171673D01*
X0015265Y0168721D01*
X0019265Y0168721D01*
X0019265Y0168162D02*
X0005827Y0168162D01*
X0005827Y0168947D02*
X0015265Y0168947D01*
X0015265Y0169733D02*
X0005827Y0169733D01*
X0005827Y0170519D02*
X0015265Y0170519D01*
X0015265Y0171305D02*
X0005827Y0171305D01*
X0005827Y0172091D02*
X0015332Y0172091D01*
X0015543Y0172877D02*
X0005827Y0172877D01*
X0005827Y0173663D02*
X0015925Y0173663D01*
X0016567Y0174449D02*
X0005827Y0174449D01*
X0005827Y0175235D02*
X0017649Y0175235D01*
X0019265Y0175235D02*
X0020053Y0175235D01*
X0020053Y0174449D02*
X0019265Y0174449D01*
X0019265Y0173663D02*
X0020053Y0173663D01*
X0020053Y0172877D02*
X0019265Y0172877D01*
X0019265Y0172091D02*
X0020053Y0172091D01*
X0020053Y0171305D02*
X0019265Y0171305D01*
X0019265Y0170519D02*
X0020053Y0170519D01*
X0020053Y0169733D02*
X0019265Y0169733D01*
X0019265Y0167376D02*
X0020053Y0167376D01*
X0020053Y0166590D02*
X0019265Y0166590D01*
X0019265Y0165804D02*
X0020053Y0165804D01*
X0020053Y0165018D02*
X0019265Y0165018D01*
X0019265Y0164232D02*
X0020053Y0164232D01*
X0020053Y0163446D02*
X0019265Y0163446D01*
X0019265Y0162660D02*
X0020053Y0162660D01*
X0020053Y0161874D02*
X0019265Y0161874D01*
X0019265Y0161088D02*
X0020053Y0161088D01*
X0020830Y0161088D02*
X0026591Y0161088D01*
X0026591Y0160302D02*
X0005827Y0160302D01*
X0005827Y0159517D02*
X0026591Y0159517D01*
X0026591Y0158731D02*
X0005827Y0158731D01*
X0005827Y0157945D02*
X0026591Y0157945D01*
X0026591Y0157159D02*
X0005827Y0157159D01*
X0005827Y0156373D02*
X0026591Y0156373D01*
X0026591Y0155587D02*
X0005827Y0155587D01*
X0005827Y0154801D02*
X0026591Y0154801D01*
X0026591Y0154015D02*
X0005827Y0154015D01*
X0005827Y0153229D02*
X0026591Y0153229D01*
X0026591Y0152443D02*
X0005827Y0152443D01*
X0005827Y0151657D02*
X0026591Y0151657D01*
X0026591Y0150871D02*
X0005827Y0150871D01*
X0005827Y0150086D02*
X0019088Y0150086D01*
X0019265Y0150086D02*
X0020053Y0150086D01*
X0020053Y0150114D02*
X0020053Y0143121D01*
X0024053Y0143121D01*
X0024053Y0146073D01*
X0023945Y0146756D01*
X0023731Y0147414D01*
X0023417Y0148030D01*
X0023010Y0148590D01*
X0022521Y0149079D01*
X0021962Y0149485D01*
X0021346Y0149799D01*
X0020688Y0150013D01*
X0020053Y0150114D01*
X0020230Y0150086D02*
X0026591Y0150086D01*
X0026591Y0149300D02*
X0022217Y0149300D01*
X0023066Y0148514D02*
X0026591Y0148514D01*
X0026591Y0147728D02*
X0023571Y0147728D01*
X0023884Y0146942D02*
X0026591Y0146942D01*
X0026591Y0146156D02*
X0024040Y0146156D01*
X0024053Y0145370D02*
X0026591Y0145370D01*
X0026591Y0144584D02*
X0024053Y0144584D01*
X0024053Y0143798D02*
X0026591Y0143798D01*
X0026591Y0143012D02*
X0020053Y0143012D01*
X0020053Y0143121D02*
X0020053Y0142334D01*
X0024053Y0142334D01*
X0024053Y0139382D01*
X0023945Y0138699D01*
X0023731Y0138041D01*
X0023417Y0137425D01*
X0023010Y0136865D01*
X0022521Y0136376D01*
X0021962Y0135970D01*
X0021346Y0135656D01*
X0020688Y0135442D01*
X0020053Y0135341D01*
X0020053Y0142334D01*
X0019265Y0142334D01*
X0015265Y0142334D01*
X0015265Y0139382D01*
X0015374Y0138699D01*
X0015587Y0138041D01*
X0015901Y0137425D01*
X0016308Y0136865D01*
X0016797Y0136376D01*
X0017356Y0135970D01*
X0017972Y0135656D01*
X0018630Y0135442D01*
X0019265Y0135341D01*
X0019265Y0142334D01*
X0019265Y0143121D01*
X0015265Y0143121D01*
X0015265Y0146073D01*
X0015374Y0146756D01*
X0015587Y0147414D01*
X0015901Y0148030D01*
X0016308Y0148590D01*
X0016797Y0149079D01*
X0017356Y0149485D01*
X0017972Y0149799D01*
X0018630Y0150013D01*
X0019265Y0150114D01*
X0019265Y0143121D01*
X0020053Y0143121D01*
X0020053Y0143798D02*
X0019265Y0143798D01*
X0019265Y0143012D02*
X0005827Y0143012D01*
X0005827Y0142226D02*
X0015265Y0142226D01*
X0015265Y0141441D02*
X0005827Y0141441D01*
X0005827Y0140655D02*
X0015265Y0140655D01*
X0015265Y0139869D02*
X0005827Y0139869D01*
X0005827Y0139083D02*
X0015313Y0139083D01*
X0015504Y0138297D02*
X0005827Y0138297D01*
X0005827Y0137511D02*
X0015857Y0137511D01*
X0016448Y0136725D02*
X0005827Y0136725D01*
X0005827Y0135939D02*
X0017416Y0135939D01*
X0019265Y0135939D02*
X0020053Y0135939D01*
X0020053Y0136725D02*
X0019265Y0136725D01*
X0019265Y0137511D02*
X0020053Y0137511D01*
X0020053Y0138297D02*
X0019265Y0138297D01*
X0019265Y0139083D02*
X0020053Y0139083D01*
X0020053Y0139869D02*
X0019265Y0139869D01*
X0019265Y0140655D02*
X0020053Y0140655D01*
X0020053Y0141441D02*
X0019265Y0141441D01*
X0019265Y0142226D02*
X0020053Y0142226D01*
X0020053Y0144584D02*
X0019265Y0144584D01*
X0019265Y0145370D02*
X0020053Y0145370D01*
X0020053Y0146156D02*
X0019265Y0146156D01*
X0019265Y0146942D02*
X0020053Y0146942D01*
X0020053Y0147728D02*
X0019265Y0147728D01*
X0019265Y0148514D02*
X0020053Y0148514D01*
X0020053Y0149300D02*
X0019265Y0149300D01*
X0017101Y0149300D02*
X0005827Y0149300D01*
X0005827Y0148514D02*
X0016252Y0148514D01*
X0015747Y0147728D02*
X0005827Y0147728D01*
X0005827Y0146942D02*
X0015434Y0146942D01*
X0015278Y0146156D02*
X0005827Y0146156D01*
X0005827Y0145370D02*
X0015265Y0145370D01*
X0015265Y0144584D02*
X0005827Y0144584D01*
X0005827Y0143798D02*
X0015265Y0143798D01*
X0024053Y0142226D02*
X0026591Y0142226D01*
X0026591Y0141441D02*
X0024053Y0141441D01*
X0024053Y0140655D02*
X0026591Y0140655D01*
X0026591Y0139869D02*
X0024053Y0139869D01*
X0024005Y0139083D02*
X0026591Y0139083D01*
X0026591Y0138297D02*
X0023814Y0138297D01*
X0023461Y0137511D02*
X0026591Y0137511D01*
X0026591Y0136725D02*
X0022870Y0136725D01*
X0021902Y0135939D02*
X0026591Y0135939D01*
X0026591Y0135153D02*
X0005827Y0135153D01*
X0005827Y0134367D02*
X0026591Y0134367D01*
X0026591Y0133581D02*
X0005827Y0133581D01*
X0005827Y0132795D02*
X0026591Y0132795D01*
X0026591Y0132010D02*
X0005827Y0132010D01*
X0005827Y0131224D02*
X0026591Y0131224D01*
X0026591Y0130438D02*
X0005827Y0130438D01*
X0005827Y0129652D02*
X0026591Y0129652D01*
X0026591Y0128866D02*
X0005827Y0128866D01*
X0005827Y0128080D02*
X0026591Y0128080D01*
X0026591Y0127294D02*
X0005827Y0127294D01*
X0005827Y0126508D02*
X0026591Y0126508D01*
X0026591Y0125722D02*
X0005827Y0125722D01*
X0005827Y0124936D02*
X0026591Y0124936D01*
X0026591Y0124150D02*
X0005827Y0124150D01*
X0005827Y0123365D02*
X0026591Y0123365D01*
X0026591Y0122579D02*
X0005827Y0122579D01*
X0005827Y0121793D02*
X0026591Y0121793D01*
X0026591Y0121007D02*
X0005827Y0121007D01*
X0005827Y0120221D02*
X0026591Y0120221D01*
X0026591Y0119435D02*
X0005827Y0119435D01*
X0005827Y0118649D02*
X0026591Y0118649D01*
X0026591Y0117863D02*
X0005827Y0117863D01*
X0005827Y0117077D02*
X0026591Y0117077D01*
X0026591Y0116291D02*
X0005827Y0116291D01*
X0005827Y0115505D02*
X0026781Y0115505D01*
X0027157Y0114720D02*
X0005827Y0114720D01*
X0005827Y0113934D02*
X0027943Y0113934D01*
X0028729Y0113148D02*
X0005827Y0113148D01*
X0005827Y0112362D02*
X0029515Y0112362D01*
X0030301Y0111576D02*
X0005827Y0111576D01*
X0005827Y0110790D02*
X0031087Y0110790D01*
X0031872Y0110004D02*
X0005827Y0110004D01*
X0005827Y0109218D02*
X0032658Y0109218D01*
X0033444Y0108432D02*
X0005827Y0108432D01*
X0005827Y0107646D02*
X0034230Y0107646D01*
X0035016Y0106860D02*
X0005827Y0106860D01*
X0005827Y0106074D02*
X0035764Y0106074D01*
X0035764Y0105289D02*
X0005827Y0105289D01*
X0005827Y0104503D02*
X0036170Y0104503D01*
X0031183Y0100684D02*
X0030010Y0101857D01*
X0028478Y0102491D01*
X0022420Y0102491D01*
X0020888Y0101857D01*
X0019715Y0100684D01*
X0019080Y0099152D01*
X0019080Y0097494D01*
X0019715Y0095962D01*
X0020888Y0094789D01*
X0022420Y0094154D01*
X0028478Y0094154D01*
X0030010Y0094789D01*
X0031183Y0095962D01*
X0031817Y0097494D01*
X0031817Y0099152D01*
X0031183Y0100684D01*
X0031229Y0100573D02*
X0059313Y0100573D01*
X0059510Y0100869D02*
X0059073Y0100215D01*
X0058772Y0099488D01*
X0058619Y0098717D01*
X0064819Y0098717D01*
X0064819Y0102317D01*
X0062219Y0102317D01*
X0061448Y0102163D01*
X0060721Y0101862D01*
X0060067Y0101425D01*
X0059510Y0100869D01*
X0060001Y0101359D02*
X0030508Y0101359D01*
X0029314Y0102145D02*
X0061404Y0102145D01*
X0059972Y0104503D02*
X0054452Y0104503D01*
X0058896Y0099787D02*
X0031554Y0099787D01*
X0031817Y0099001D02*
X0058676Y0099001D01*
X0058619Y0097929D02*
X0058772Y0097158D01*
X0059073Y0096431D01*
X0059510Y0095777D01*
X0060067Y0095221D01*
X0060721Y0094784D01*
X0061448Y0094483D01*
X0062219Y0094329D01*
X0064819Y0094329D01*
X0064819Y0097929D01*
X0065606Y0097929D01*
X0065606Y0094329D01*
X0068206Y0094329D01*
X0068978Y0094483D01*
X0069704Y0094784D01*
X0070358Y0095221D01*
X0070915Y0095777D01*
X0071352Y0096431D01*
X0071653Y0097158D01*
X0071806Y0097929D01*
X0065606Y0097929D01*
X0065606Y0098717D01*
X0064819Y0098717D01*
X0064819Y0097929D01*
X0058619Y0097929D01*
X0058718Y0097429D02*
X0031791Y0097429D01*
X0031817Y0098215D02*
X0064819Y0098215D01*
X0064819Y0097429D02*
X0065606Y0097429D01*
X0065606Y0096644D02*
X0064819Y0096644D01*
X0064819Y0095858D02*
X0065606Y0095858D01*
X0065606Y0095072D02*
X0064819Y0095072D01*
X0065606Y0098215D02*
X0080438Y0098215D01*
X0079652Y0099001D02*
X0071750Y0099001D01*
X0071806Y0098717D02*
X0071653Y0099488D01*
X0071352Y0100215D01*
X0070915Y0100869D01*
X0070358Y0101425D01*
X0069704Y0101862D01*
X0068978Y0102163D01*
X0068206Y0102317D01*
X0065606Y0102317D01*
X0065606Y0098717D01*
X0071806Y0098717D01*
X0071529Y0099787D02*
X0078867Y0099787D01*
X0078081Y0100573D02*
X0071112Y0100573D01*
X0070424Y0101359D02*
X0077295Y0101359D01*
X0076509Y0102145D02*
X0069021Y0102145D01*
X0070453Y0104503D02*
X0074151Y0104503D01*
X0073365Y0105289D02*
X0071239Y0105289D01*
X0074937Y0103717D02*
X0005827Y0103717D01*
X0005827Y0102931D02*
X0075723Y0102931D01*
X0082102Y0104503D02*
X0091399Y0104503D01*
X0091448Y0104483D02*
X0092219Y0104329D01*
X0094819Y0104329D01*
X0094819Y0107929D01*
X0095606Y0107929D01*
X0095606Y0104329D01*
X0098206Y0104329D01*
X0098978Y0104483D01*
X0099704Y0104784D01*
X0100358Y0105221D01*
X0100915Y0105777D01*
X0101352Y0106431D01*
X0101653Y0107158D01*
X0101806Y0107929D01*
X0095606Y0107929D01*
X0095606Y0108717D01*
X0094819Y0108717D01*
X0094819Y0112317D01*
X0092219Y0112317D01*
X0091448Y0112163D01*
X0090721Y0111862D01*
X0090067Y0111425D01*
X0089510Y0110869D01*
X0089073Y0110215D01*
X0088772Y0109488D01*
X0088619Y0108717D01*
X0094819Y0108717D01*
X0094819Y0107929D01*
X0088619Y0107929D01*
X0088772Y0107158D01*
X0089073Y0106431D01*
X0089510Y0105777D01*
X0090067Y0105221D01*
X0090721Y0104784D01*
X0091448Y0104483D01*
X0089999Y0105289D02*
X0082102Y0105289D01*
X0082102Y0106074D02*
X0089312Y0106074D01*
X0088896Y0106860D02*
X0082102Y0106860D01*
X0082102Y0107646D02*
X0088675Y0107646D01*
X0088719Y0109218D02*
X0082102Y0109218D01*
X0082102Y0108432D02*
X0094819Y0108432D01*
X0094819Y0107646D02*
X0095606Y0107646D01*
X0095606Y0106860D02*
X0094819Y0106860D01*
X0094819Y0106074D02*
X0095606Y0106074D01*
X0095606Y0105289D02*
X0094819Y0105289D01*
X0094819Y0104503D02*
X0095606Y0104503D01*
X0099026Y0104503D02*
X0137576Y0104503D01*
X0137520Y0103717D02*
X0082732Y0103717D01*
X0083518Y0102931D02*
X0137520Y0102931D01*
X0137520Y0101359D02*
X0129067Y0101359D01*
X0129241Y0101185D02*
X0128752Y0101674D01*
X0128193Y0102081D01*
X0127576Y0102395D01*
X0126919Y0102608D01*
X0126236Y0102717D01*
X0123283Y0102717D01*
X0123283Y0098717D01*
X0122496Y0098717D01*
X0122496Y0102717D01*
X0119544Y0102717D01*
X0118861Y0102608D01*
X0118203Y0102395D01*
X0117587Y0102081D01*
X0117027Y0101674D01*
X0116538Y0101185D01*
X0116132Y0100626D01*
X0115818Y0100009D01*
X0115604Y0099352D01*
X0115504Y0098717D01*
X0122496Y0098717D01*
X0122496Y0097929D01*
X0123283Y0097929D01*
X0123283Y0093929D01*
X0126236Y0093929D01*
X0126919Y0094037D01*
X0127576Y0094251D01*
X0128193Y0094565D01*
X0128752Y0094972D01*
X0129241Y0095461D01*
X0129648Y0096020D01*
X0129962Y0096636D01*
X0130175Y0097294D01*
X0130276Y0097929D01*
X0123284Y0097929D01*
X0123284Y0098717D01*
X0130276Y0098717D01*
X0130175Y0099352D01*
X0129962Y0100009D01*
X0129648Y0100626D01*
X0129241Y0101185D01*
X0129674Y0100573D02*
X0137574Y0100573D01*
X0137712Y0099787D02*
X0130034Y0099787D01*
X0130231Y0099001D02*
X0136945Y0099001D01*
X0136945Y0098215D02*
X0123284Y0098215D01*
X0123283Y0097429D02*
X0122496Y0097429D01*
X0122496Y0097929D02*
X0122496Y0093929D01*
X0119544Y0093929D01*
X0118861Y0094037D01*
X0118203Y0094251D01*
X0117587Y0094565D01*
X0117027Y0094972D01*
X0116538Y0095461D01*
X0116132Y0096020D01*
X0115818Y0096636D01*
X0115604Y0097294D01*
X0115504Y0097929D01*
X0122496Y0097929D01*
X0122496Y0098215D02*
X0112606Y0098215D01*
X0112945Y0097429D02*
X0115583Y0097429D01*
X0115816Y0096644D02*
X0112945Y0096644D01*
X0112945Y0095858D02*
X0116250Y0095858D01*
X0116927Y0095072D02*
X0109976Y0095072D01*
X0109976Y0095858D02*
X0109189Y0095858D01*
X0109189Y0096644D02*
X0109976Y0096644D01*
X0109976Y0097429D02*
X0109189Y0097429D01*
X0109189Y0098215D02*
X0109976Y0098215D01*
X0109189Y0095072D02*
X0102401Y0095072D01*
X0101736Y0095858D02*
X0106220Y0095858D01*
X0106220Y0096644D02*
X0102062Y0096644D01*
X0102381Y0097429D02*
X0106220Y0097429D01*
X0106559Y0098215D02*
X0102381Y0098215D01*
X0102381Y0099001D02*
X0115549Y0099001D01*
X0115746Y0099787D02*
X0102151Y0099787D01*
X0101825Y0100573D02*
X0116105Y0100573D01*
X0116712Y0101359D02*
X0101237Y0101359D01*
X0100451Y0102145D02*
X0117713Y0102145D01*
X0122496Y0102145D02*
X0123283Y0102145D01*
X0123283Y0101359D02*
X0122496Y0101359D01*
X0122496Y0100573D02*
X0123283Y0100573D01*
X0123283Y0099787D02*
X0122496Y0099787D01*
X0122496Y0099001D02*
X0123283Y0099001D01*
X0123283Y0096644D02*
X0122496Y0096644D01*
X0122496Y0095858D02*
X0123283Y0095858D01*
X0123283Y0095072D02*
X0122496Y0095072D01*
X0122496Y0094286D02*
X0123283Y0094286D01*
X0127645Y0094286D02*
X0136945Y0094286D01*
X0136945Y0095072D02*
X0128852Y0095072D01*
X0129530Y0095858D02*
X0136945Y0095858D01*
X0136945Y0096644D02*
X0129964Y0096644D01*
X0130197Y0097429D02*
X0136945Y0097429D01*
X0137417Y0093500D02*
X0112945Y0093500D01*
X0112945Y0094286D02*
X0118135Y0094286D01*
X0117508Y0092714D02*
X0112926Y0092714D01*
X0113013Y0091928D02*
X0116468Y0091928D01*
X0106240Y0092714D02*
X0104758Y0092714D01*
X0103972Y0093500D02*
X0106220Y0093500D01*
X0106220Y0094286D02*
X0103186Y0094286D01*
X0105544Y0091928D02*
X0106152Y0091928D01*
X0102465Y0087213D02*
X0102298Y0087213D01*
X0101972Y0086427D02*
X0103251Y0086427D01*
X0101591Y0085641D02*
X0105646Y0085641D01*
X0106251Y0084855D02*
X0100805Y0084855D01*
X0099481Y0084069D02*
X0117176Y0084069D01*
X0116331Y0084855D02*
X0112914Y0084855D01*
X0116252Y0081711D02*
X0100885Y0081711D01*
X0099673Y0082497D02*
X0117037Y0082497D01*
X0118881Y0083283D02*
X0005827Y0083283D01*
X0005827Y0084069D02*
X0060944Y0084069D01*
X0061704Y0083754D02*
X0060025Y0084450D01*
X0058740Y0085735D01*
X0058044Y0087414D01*
X0058044Y0089232D01*
X0058740Y0090911D01*
X0060025Y0092196D01*
X0061704Y0092891D01*
X0068721Y0092891D01*
X0070400Y0092196D01*
X0071686Y0090911D01*
X0072381Y0089232D01*
X0072381Y0087414D01*
X0071686Y0085735D01*
X0070400Y0084450D01*
X0068721Y0083754D01*
X0061704Y0083754D01*
X0061704Y0082891D02*
X0060025Y0082196D01*
X0058740Y0080911D01*
X0058044Y0079232D01*
X0058044Y0077414D01*
X0058740Y0075735D01*
X0060025Y0074450D01*
X0061704Y0073754D01*
X0068721Y0073754D01*
X0070400Y0074450D01*
X0071686Y0075735D01*
X0072381Y0077414D01*
X0072381Y0079232D01*
X0071686Y0080911D01*
X0070400Y0082196D01*
X0068721Y0082891D01*
X0061704Y0082891D01*
X0060752Y0082497D02*
X0005827Y0082497D01*
X0005827Y0081711D02*
X0020742Y0081711D01*
X0020888Y0081857D02*
X0019715Y0080684D01*
X0019080Y0079152D01*
X0019080Y0077494D01*
X0019715Y0075962D01*
X0020888Y0074789D01*
X0022420Y0074154D01*
X0028478Y0074154D01*
X0030010Y0074789D01*
X0031183Y0075962D01*
X0031817Y0077494D01*
X0031817Y0079152D01*
X0031183Y0080684D01*
X0030010Y0081857D01*
X0028478Y0082491D01*
X0022420Y0082491D01*
X0020888Y0081857D01*
X0019956Y0080925D02*
X0005827Y0080925D01*
X0005827Y0080139D02*
X0019489Y0080139D01*
X0019164Y0079353D02*
X0005827Y0079353D01*
X0005827Y0078568D02*
X0019080Y0078568D01*
X0019080Y0077782D02*
X0005827Y0077782D01*
X0005827Y0076996D02*
X0019287Y0076996D01*
X0019612Y0076210D02*
X0005827Y0076210D01*
X0005827Y0075424D02*
X0020253Y0075424D01*
X0021252Y0074638D02*
X0005827Y0074638D01*
X0005827Y0073852D02*
X0061468Y0073852D01*
X0061704Y0072891D02*
X0060025Y0072196D01*
X0058740Y0070911D01*
X0058044Y0069232D01*
X0058044Y0067414D01*
X0058740Y0065735D01*
X0060025Y0064450D01*
X0061704Y0063754D01*
X0068721Y0063754D01*
X0070400Y0064450D01*
X0071686Y0065735D01*
X0072381Y0067414D01*
X0072381Y0069232D01*
X0071686Y0070911D01*
X0070400Y0072196D01*
X0068721Y0072891D01*
X0061704Y0072891D01*
X0060228Y0072280D02*
X0005827Y0072280D01*
X0005827Y0071494D02*
X0059323Y0071494D01*
X0058656Y0070708D02*
X0005827Y0070708D01*
X0005827Y0069922D02*
X0058330Y0069922D01*
X0058044Y0069137D02*
X0005827Y0069137D01*
X0005827Y0068351D02*
X0058044Y0068351D01*
X0058044Y0067565D02*
X0005827Y0067565D01*
X0005827Y0066779D02*
X0058307Y0066779D01*
X0058633Y0065993D02*
X0005827Y0065993D01*
X0005827Y0065207D02*
X0059268Y0065207D01*
X0060094Y0064421D02*
X0005827Y0064421D01*
X0005827Y0063635D02*
X0118223Y0063635D01*
X0118901Y0063354D02*
X0117075Y0064111D01*
X0116013Y0065173D01*
X0101124Y0065173D01*
X0100400Y0064450D01*
X0098721Y0063754D01*
X0091704Y0063754D01*
X0090025Y0064450D01*
X0088740Y0065735D01*
X0088044Y0067414D01*
X0088044Y0069232D01*
X0088740Y0070911D01*
X0090025Y0072196D01*
X0091704Y0072891D01*
X0098721Y0072891D01*
X0100400Y0072196D01*
X0101124Y0071472D01*
X0116013Y0071472D01*
X0117075Y0072535D01*
X0118901Y0073291D01*
X0126878Y0073291D01*
X0128704Y0072535D01*
X0130102Y0071137D01*
X0130858Y0069311D01*
X0130858Y0067335D01*
X0130102Y0065508D01*
X0128704Y0064111D01*
X0126878Y0063354D01*
X0118901Y0063354D01*
X0118901Y0063291D02*
X0117075Y0062535D01*
X0116013Y0061472D01*
X0101124Y0061472D01*
X0100400Y0062196D01*
X0098721Y0062891D01*
X0091704Y0062891D01*
X0090025Y0062196D01*
X0088740Y0060911D01*
X0088044Y0059232D01*
X0088044Y0057414D01*
X0088740Y0055735D01*
X0090025Y0054450D01*
X0091704Y0053754D01*
X0098721Y0053754D01*
X0100400Y0054450D01*
X0101124Y0055173D01*
X0116013Y0055173D01*
X0117075Y0054111D01*
X0118901Y0053354D01*
X0126878Y0053354D01*
X0128704Y0054111D01*
X0130102Y0055508D01*
X0130858Y0057335D01*
X0130858Y0059311D01*
X0130102Y0061137D01*
X0128704Y0062535D01*
X0126878Y0063291D01*
X0118901Y0063291D01*
X0117834Y0062849D02*
X0098823Y0062849D01*
X0100533Y0062063D02*
X0116604Y0062063D01*
X0116765Y0064421D02*
X0100331Y0064421D01*
X0101102Y0071494D02*
X0116035Y0071494D01*
X0116821Y0072280D02*
X0100197Y0072280D01*
X0098957Y0073852D02*
X0117700Y0073852D01*
X0118358Y0073066D02*
X0005827Y0073066D01*
X0005827Y0062849D02*
X0061602Y0062849D01*
X0061704Y0062891D02*
X0060025Y0062196D01*
X0058740Y0060911D01*
X0058044Y0059232D01*
X0058044Y0057414D01*
X0058740Y0055735D01*
X0060025Y0054450D01*
X0061704Y0053754D01*
X0068721Y0053754D01*
X0070400Y0054450D01*
X0071686Y0055735D01*
X0072381Y0057414D01*
X0072381Y0059232D01*
X0071686Y0060911D01*
X0070400Y0062196D01*
X0068721Y0062891D01*
X0061704Y0062891D01*
X0059892Y0062063D02*
X0005827Y0062063D01*
X0005827Y0061277D02*
X0059106Y0061277D01*
X0058566Y0060492D02*
X0005827Y0060492D01*
X0005827Y0059706D02*
X0058240Y0059706D01*
X0058044Y0058920D02*
X0005827Y0058920D01*
X0005827Y0058134D02*
X0058044Y0058134D01*
X0058072Y0057348D02*
X0005827Y0057348D01*
X0005827Y0056562D02*
X0058397Y0056562D01*
X0058723Y0055776D02*
X0005827Y0055776D01*
X0005827Y0054990D02*
X0059484Y0054990D01*
X0060618Y0054204D02*
X0005827Y0054204D01*
X0005827Y0053418D02*
X0118747Y0053418D01*
X0117311Y0052632D02*
X0099346Y0052632D01*
X0100750Y0051846D02*
X0116387Y0051846D01*
X0116982Y0054204D02*
X0099807Y0054204D01*
X0100941Y0054990D02*
X0116196Y0054990D01*
X0127032Y0053418D02*
X0137260Y0053418D01*
X0137260Y0052632D02*
X0128469Y0052632D01*
X0129393Y0051846D02*
X0137370Y0051846D01*
X0137260Y0054204D02*
X0128798Y0054204D01*
X0129584Y0054990D02*
X0137260Y0054990D01*
X0137260Y0055776D02*
X0130213Y0055776D01*
X0130538Y0056562D02*
X0137260Y0056562D01*
X0137654Y0057348D02*
X0130858Y0057348D01*
X0130858Y0058134D02*
X0137654Y0058134D01*
X0136005Y0058920D02*
X0130858Y0058920D01*
X0130695Y0059706D02*
X0135488Y0059706D01*
X0135488Y0060492D02*
X0130369Y0060492D01*
X0129962Y0061277D02*
X0135488Y0061277D01*
X0135488Y0062063D02*
X0129176Y0062063D01*
X0127945Y0062849D02*
X0135488Y0062849D01*
X0135488Y0063635D02*
X0127556Y0063635D01*
X0129015Y0064421D02*
X0135488Y0064421D01*
X0135488Y0065207D02*
X0129800Y0065207D01*
X0130303Y0065993D02*
X0135488Y0065993D01*
X0135626Y0066779D02*
X0130628Y0066779D01*
X0130858Y0067565D02*
X0135488Y0067565D01*
X0135488Y0068351D02*
X0130858Y0068351D01*
X0130858Y0069137D02*
X0135488Y0069137D01*
X0135488Y0069922D02*
X0130605Y0069922D01*
X0130280Y0070708D02*
X0135488Y0070708D01*
X0135488Y0071494D02*
X0129745Y0071494D01*
X0128959Y0072280D02*
X0135488Y0072280D01*
X0135488Y0073066D02*
X0127422Y0073066D01*
X0128080Y0073852D02*
X0135674Y0073852D01*
X0136460Y0074638D02*
X0129231Y0074638D01*
X0130017Y0075424D02*
X0137260Y0075424D01*
X0136077Y0076210D02*
X0130392Y0076210D01*
X0130718Y0076996D02*
X0133092Y0076996D01*
X0131811Y0077782D02*
X0130858Y0077782D01*
X0130858Y0078568D02*
X0131026Y0078568D01*
X0135218Y0083283D02*
X0135646Y0083283D01*
X0135698Y0084069D02*
X0134433Y0084069D01*
X0133647Y0084855D02*
X0135646Y0084855D01*
X0135646Y0085641D02*
X0132861Y0085641D01*
X0132075Y0086427D02*
X0135646Y0086427D01*
X0135646Y0087213D02*
X0131289Y0087213D01*
X0130858Y0087998D02*
X0135646Y0087998D01*
X0135646Y0088784D02*
X0130858Y0088784D01*
X0130751Y0089570D02*
X0135646Y0089570D01*
X0135646Y0090356D02*
X0130425Y0090356D01*
X0130097Y0091142D02*
X0135917Y0091142D01*
X0136703Y0091928D02*
X0129311Y0091928D01*
X0128272Y0092714D02*
X0137417Y0092714D01*
X0143717Y0092714D02*
X0147850Y0092714D01*
X0147850Y0093500D02*
X0143717Y0093500D01*
X0144031Y0094286D02*
X0147850Y0094286D01*
X0147850Y0095072D02*
X0144031Y0095072D01*
X0144031Y0095858D02*
X0147850Y0095858D01*
X0147850Y0096644D02*
X0144031Y0096644D01*
X0144031Y0097429D02*
X0147850Y0097429D01*
X0147850Y0098215D02*
X0144031Y0098215D01*
X0144031Y0099001D02*
X0147850Y0099001D01*
X0147850Y0099787D02*
X0143264Y0099787D01*
X0143402Y0100573D02*
X0147850Y0100573D01*
X0147850Y0101359D02*
X0143457Y0101359D01*
X0143457Y0102931D02*
X0147850Y0102931D01*
X0147850Y0103717D02*
X0143457Y0103717D01*
X0143401Y0104503D02*
X0147850Y0104503D01*
X0147850Y0105289D02*
X0142809Y0105289D01*
X0140882Y0105289D02*
X0140095Y0105289D01*
X0140095Y0104503D02*
X0140882Y0104503D01*
X0140882Y0103717D02*
X0140095Y0103717D01*
X0140095Y0102931D02*
X0140882Y0102931D01*
X0140882Y0102145D02*
X0147850Y0102145D01*
X0147850Y0106074D02*
X0101113Y0106074D01*
X0101530Y0106860D02*
X0147850Y0106860D01*
X0147850Y0107646D02*
X0101750Y0107646D01*
X0101806Y0108717D02*
X0095606Y0108717D01*
X0095606Y0112317D01*
X0098206Y0112317D01*
X0098978Y0112163D01*
X0099704Y0111862D01*
X0100358Y0111425D01*
X0100915Y0110869D01*
X0101352Y0110215D01*
X0101653Y0109488D01*
X0101806Y0108717D01*
X0101706Y0109218D02*
X0115336Y0109218D01*
X0114550Y0110004D02*
X0101439Y0110004D01*
X0100967Y0110790D02*
X0113764Y0110790D01*
X0112978Y0111576D02*
X0100133Y0111576D01*
X0099154Y0113934D02*
X0110620Y0113934D01*
X0109834Y0114720D02*
X0100670Y0114720D01*
X0095606Y0111576D02*
X0094819Y0111576D01*
X0094819Y0110790D02*
X0095606Y0110790D01*
X0095606Y0110004D02*
X0094819Y0110004D01*
X0094819Y0109218D02*
X0095606Y0109218D01*
X0095606Y0108432D02*
X0147850Y0108432D01*
X0153362Y0108432D02*
X0157822Y0108432D01*
X0157496Y0107646D02*
X0153362Y0107646D01*
X0153362Y0106860D02*
X0157287Y0106860D01*
X0157287Y0106074D02*
X0153362Y0106074D01*
X0153362Y0105289D02*
X0157403Y0105289D01*
X0157728Y0104503D02*
X0153362Y0104503D01*
X0153362Y0103717D02*
X0158288Y0103717D01*
X0159181Y0102931D02*
X0153362Y0102931D01*
X0153362Y0102145D02*
X0202594Y0102145D01*
X0202217Y0102931D02*
X0163292Y0102931D01*
X0153362Y0101359D02*
X0203380Y0101359D01*
X0201891Y0103717D02*
X0194549Y0103717D01*
X0195335Y0104503D02*
X0201673Y0104503D01*
X0201673Y0105289D02*
X0196121Y0105289D01*
X0196907Y0106074D02*
X0201673Y0106074D01*
X0201856Y0106860D02*
X0197693Y0106860D01*
X0198478Y0107646D02*
X0202182Y0107646D01*
X0202510Y0108432D02*
X0199264Y0108432D01*
X0192714Y0110790D02*
X0190184Y0110790D01*
X0190370Y0111576D02*
X0193500Y0111576D01*
X0194286Y0112362D02*
X0190370Y0112362D01*
X0190099Y0113148D02*
X0195071Y0113148D01*
X0195857Y0113934D02*
X0189607Y0113934D01*
X0188562Y0114720D02*
X0196680Y0114720D01*
X0201902Y0117077D02*
X0153362Y0117077D01*
X0153362Y0116291D02*
X0202227Y0116291D01*
X0202619Y0115505D02*
X0184818Y0115505D01*
X0181749Y0115505D02*
X0153362Y0115505D01*
X0153362Y0117863D02*
X0201673Y0117863D01*
X0201673Y0118649D02*
X0153362Y0118649D01*
X0153362Y0119435D02*
X0201673Y0119435D01*
X0201846Y0120221D02*
X0153362Y0120221D01*
X0153362Y0121007D02*
X0202171Y0121007D01*
X0202497Y0121793D02*
X0153362Y0121793D01*
X0153362Y0122579D02*
X0203270Y0122579D01*
X0204073Y0123365D02*
X0153362Y0123365D01*
X0153362Y0124150D02*
X0205971Y0124150D01*
X0208313Y0124150D02*
X0221744Y0124150D01*
X0221673Y0124936D02*
X0153362Y0124936D01*
X0153362Y0125722D02*
X0221673Y0125722D01*
X0221678Y0126508D02*
X0153362Y0126508D01*
X0153362Y0127294D02*
X0222003Y0127294D01*
X0222329Y0128080D02*
X0153362Y0128080D01*
X0153362Y0128866D02*
X0222865Y0128866D01*
X0223651Y0129652D02*
X0153362Y0129652D01*
X0147850Y0129652D02*
X0128852Y0129652D01*
X0128586Y0129386D02*
X0129984Y0130784D01*
X0130740Y0132610D01*
X0130740Y0134587D01*
X0129984Y0136413D01*
X0128586Y0137811D01*
X0126760Y0138567D01*
X0118783Y0138567D01*
X0116957Y0137811D01*
X0115560Y0136413D01*
X0114803Y0134587D01*
X0114803Y0132610D01*
X0115560Y0130784D01*
X0116957Y0129386D01*
X0118783Y0128630D01*
X0126760Y0128630D01*
X0128586Y0129386D01*
X0127330Y0128866D02*
X0147850Y0128866D01*
X0147850Y0128080D02*
X0127935Y0128080D01*
X0129102Y0127294D02*
X0147850Y0127294D01*
X0147850Y0126508D02*
X0129888Y0126508D01*
X0130270Y0125722D02*
X0147850Y0125722D01*
X0147850Y0124936D02*
X0130595Y0124936D01*
X0130740Y0124150D02*
X0147850Y0124150D01*
X0147850Y0123365D02*
X0130740Y0123365D01*
X0130727Y0122579D02*
X0147850Y0122579D01*
X0147850Y0121793D02*
X0130402Y0121793D01*
X0130076Y0121007D02*
X0147850Y0121007D01*
X0147850Y0120221D02*
X0129421Y0120221D01*
X0128635Y0119435D02*
X0147850Y0119435D01*
X0147850Y0118649D02*
X0126806Y0118649D01*
X0118737Y0118649D02*
X0114813Y0118649D01*
X0115599Y0117863D02*
X0147850Y0117863D01*
X0147850Y0117077D02*
X0116385Y0117077D01*
X0117171Y0116291D02*
X0147850Y0116291D01*
X0147850Y0115505D02*
X0117957Y0115505D01*
X0116909Y0119435D02*
X0114027Y0119435D01*
X0113241Y0120221D02*
X0116123Y0120221D01*
X0115655Y0126508D02*
X0111236Y0126508D01*
X0111236Y0127294D02*
X0116441Y0127294D01*
X0117608Y0128080D02*
X0111236Y0128080D01*
X0111236Y0128866D02*
X0118214Y0128866D01*
X0116692Y0129652D02*
X0111236Y0129652D01*
X0111236Y0130438D02*
X0115906Y0130438D01*
X0115377Y0131224D02*
X0111236Y0131224D01*
X0111236Y0132010D02*
X0115052Y0132010D01*
X0114803Y0132795D02*
X0111236Y0132795D01*
X0111236Y0133581D02*
X0114803Y0133581D01*
X0114803Y0134367D02*
X0111236Y0134367D01*
X0111236Y0135153D02*
X0115038Y0135153D01*
X0115363Y0135939D02*
X0111236Y0135939D01*
X0111236Y0136725D02*
X0115872Y0136725D01*
X0116658Y0137511D02*
X0111236Y0137511D01*
X0111236Y0138297D02*
X0118131Y0138297D01*
X0118783Y0138630D02*
X0116957Y0139386D01*
X0115560Y0140784D01*
X0114803Y0142610D01*
X0114803Y0144587D01*
X0115560Y0146413D01*
X0116957Y0147811D01*
X0118783Y0148567D01*
X0126760Y0148567D01*
X0128586Y0147811D01*
X0129984Y0146413D01*
X0130740Y0144587D01*
X0130740Y0142610D01*
X0129984Y0140784D01*
X0128586Y0139386D01*
X0126760Y0138630D01*
X0118783Y0138630D01*
X0117690Y0139083D02*
X0111236Y0139083D01*
X0111236Y0139869D02*
X0116475Y0139869D01*
X0115689Y0140655D02*
X0111236Y0140655D01*
X0111236Y0141441D02*
X0115288Y0141441D01*
X0114962Y0142226D02*
X0111236Y0142226D01*
X0111236Y0143012D02*
X0114803Y0143012D01*
X0114803Y0143798D02*
X0111236Y0143798D01*
X0111236Y0144584D02*
X0114803Y0144584D01*
X0115128Y0145370D02*
X0111236Y0145370D01*
X0111236Y0146156D02*
X0115453Y0146156D01*
X0116089Y0146942D02*
X0111236Y0146942D01*
X0111236Y0147728D02*
X0116875Y0147728D01*
X0117166Y0149300D02*
X0111236Y0149300D01*
X0111236Y0148514D02*
X0118655Y0148514D01*
X0116258Y0150086D02*
X0112015Y0150086D01*
X0106577Y0152443D02*
X0099803Y0152443D01*
X0100400Y0152196D02*
X0098721Y0152891D01*
X0091704Y0152891D01*
X0090025Y0152196D01*
X0088740Y0150911D01*
X0088044Y0149232D01*
X0088044Y0147414D01*
X0088740Y0145735D01*
X0090025Y0144450D01*
X0091704Y0143754D01*
X0098721Y0143754D01*
X0100400Y0144450D01*
X0101686Y0145735D01*
X0102381Y0147414D01*
X0102381Y0149232D01*
X0101686Y0150911D01*
X0100400Y0152196D01*
X0100939Y0151657D02*
X0105998Y0151657D01*
X0105724Y0150871D02*
X0101702Y0150871D01*
X0102027Y0150086D02*
X0105724Y0150086D01*
X0105724Y0149300D02*
X0102353Y0149300D01*
X0102381Y0148514D02*
X0105724Y0148514D01*
X0105724Y0147728D02*
X0102381Y0147728D01*
X0102186Y0146942D02*
X0105724Y0146942D01*
X0105724Y0146156D02*
X0101860Y0146156D01*
X0101321Y0145370D02*
X0105724Y0145370D01*
X0105724Y0144584D02*
X0100535Y0144584D01*
X0098827Y0143798D02*
X0105724Y0143798D01*
X0105724Y0143012D02*
X0042428Y0143012D01*
X0042428Y0142226D02*
X0060099Y0142226D01*
X0061598Y0143798D02*
X0042428Y0143798D01*
X0042428Y0144584D02*
X0059890Y0144584D01*
X0060025Y0144450D02*
X0061704Y0143754D01*
X0068721Y0143754D01*
X0070400Y0144450D01*
X0071686Y0145735D01*
X0072381Y0147414D01*
X0072381Y0149232D01*
X0071686Y0150911D01*
X0070400Y0152196D01*
X0068721Y0152891D01*
X0061704Y0152891D01*
X0060025Y0152196D01*
X0058740Y0150911D01*
X0058044Y0149232D01*
X0058044Y0147414D01*
X0058740Y0145735D01*
X0060025Y0144450D01*
X0059104Y0145370D02*
X0042428Y0145370D01*
X0042428Y0146156D02*
X0058565Y0146156D01*
X0058240Y0146942D02*
X0042334Y0146942D01*
X0042008Y0147728D02*
X0058044Y0147728D01*
X0058044Y0148514D02*
X0041683Y0148514D01*
X0040913Y0149300D02*
X0058072Y0149300D01*
X0058398Y0150086D02*
X0039921Y0150086D01*
X0034997Y0150086D02*
X0032890Y0150086D01*
X0032890Y0150871D02*
X0058723Y0150871D01*
X0059486Y0151657D02*
X0032890Y0151657D01*
X0032890Y0152443D02*
X0060622Y0152443D01*
X0061074Y0154015D02*
X0032890Y0154015D01*
X0032890Y0153229D02*
X0107363Y0153229D01*
X0108149Y0154015D02*
X0099351Y0154015D01*
X0100752Y0154801D02*
X0108935Y0154801D01*
X0109721Y0155587D02*
X0101538Y0155587D01*
X0101950Y0156373D02*
X0115543Y0156373D01*
X0116306Y0157159D02*
X0102275Y0157159D01*
X0102381Y0157945D02*
X0117281Y0157945D01*
X0128262Y0157945D02*
X0147850Y0157945D01*
X0147850Y0158731D02*
X0102381Y0158731D01*
X0102263Y0159517D02*
X0147850Y0159517D01*
X0147850Y0160302D02*
X0101938Y0160302D01*
X0101508Y0161088D02*
X0147850Y0161088D01*
X0147850Y0164232D02*
X0099875Y0164232D01*
X0100400Y0164450D02*
X0101686Y0165735D01*
X0102381Y0167414D01*
X0102381Y0169232D01*
X0101686Y0170911D01*
X0100400Y0172196D01*
X0098721Y0172891D01*
X0091704Y0172891D01*
X0090025Y0172196D01*
X0088740Y0170911D01*
X0088044Y0169232D01*
X0088044Y0167414D01*
X0088740Y0165735D01*
X0090025Y0164450D01*
X0091704Y0163754D01*
X0098721Y0163754D01*
X0100400Y0164450D01*
X0100969Y0165018D02*
X0147850Y0165018D01*
X0147850Y0165804D02*
X0101714Y0165804D01*
X0102040Y0166590D02*
X0147850Y0166590D01*
X0147850Y0167376D02*
X0102365Y0167376D01*
X0102381Y0168162D02*
X0147850Y0168162D01*
X0147850Y0168947D02*
X0102381Y0168947D01*
X0102173Y0169733D02*
X0147850Y0169733D01*
X0147850Y0170519D02*
X0101848Y0170519D01*
X0101291Y0171305D02*
X0147850Y0171305D01*
X0147850Y0172091D02*
X0100505Y0172091D01*
X0098756Y0172877D02*
X0147850Y0172877D01*
X0147850Y0176807D02*
X0043269Y0176807D01*
X0047013Y0177593D02*
X0147850Y0177593D01*
X0147850Y0178378D02*
X0047951Y0178378D01*
X0048398Y0179164D02*
X0147850Y0179164D01*
X0147850Y0179950D02*
X0048638Y0179950D01*
X0048638Y0180736D02*
X0147850Y0180736D01*
X0147850Y0181522D02*
X0048420Y0181522D01*
X0048004Y0182308D02*
X0147850Y0182308D01*
X0147850Y0183094D02*
X0047143Y0183094D01*
X0043399Y0183880D02*
X0147850Y0183880D01*
X0147850Y0184666D02*
X0005827Y0184666D01*
X0005827Y0185452D02*
X0147850Y0185452D01*
X0147850Y0186238D02*
X0005827Y0186238D01*
X0005827Y0187023D02*
X0147850Y0187023D01*
X0147850Y0187809D02*
X0005827Y0187809D01*
X0005827Y0188595D02*
X0147850Y0188595D01*
X0147850Y0189381D02*
X0005827Y0189381D01*
X0005827Y0190167D02*
X0147850Y0190167D01*
X0147850Y0190953D02*
X0005827Y0190953D01*
X0005827Y0191739D02*
X0147850Y0191739D01*
X0147850Y0192525D02*
X0005827Y0192525D01*
X0005827Y0193311D02*
X0147850Y0193311D01*
X0147850Y0194097D02*
X0005827Y0194097D01*
X0005827Y0194883D02*
X0147850Y0194883D01*
X0147850Y0195669D02*
X0083256Y0195669D01*
X0082973Y0195551D02*
X0084799Y0196308D01*
X0086196Y0197705D01*
X0086953Y0199531D01*
X0086953Y0207508D01*
X0086196Y0209334D01*
X0084799Y0210732D01*
X0082973Y0211488D01*
X0080996Y0211488D01*
X0079170Y0210732D01*
X0077772Y0209334D01*
X0077016Y0207508D01*
X0077016Y0199531D01*
X0077772Y0197705D01*
X0079170Y0196308D01*
X0080996Y0195551D01*
X0082973Y0195551D01*
X0084946Y0196454D02*
X0090285Y0196454D01*
X0090298Y0196448D02*
X0090955Y0196234D01*
X0091591Y0196134D01*
X0091591Y0203126D01*
X0092378Y0203126D01*
X0092378Y0203913D01*
X0096378Y0203913D01*
X0096378Y0206865D01*
X0096270Y0207549D01*
X0096056Y0208206D01*
X0095742Y0208822D01*
X0095336Y0209382D01*
X0094847Y0209871D01*
X0094287Y0210278D01*
X0093671Y0210591D01*
X0093013Y0210805D01*
X0092378Y0210906D01*
X0092378Y0203913D01*
X0091591Y0203913D01*
X0091590Y0203913D02*
X0091590Y0203126D01*
X0087591Y0203126D01*
X0087591Y0200174D01*
X0087699Y0199491D01*
X0087912Y0198833D01*
X0088226Y0198217D01*
X0088633Y0197657D01*
X0089122Y0197168D01*
X0089681Y0196762D01*
X0090298Y0196448D01*
X0091591Y0196454D02*
X0092378Y0196454D01*
X0092378Y0196134D02*
X0093013Y0196234D01*
X0093671Y0196448D01*
X0094287Y0196762D01*
X0094847Y0197168D01*
X0095336Y0197657D01*
X0095742Y0198217D01*
X0096056Y0198833D01*
X0096270Y0199491D01*
X0096378Y0200174D01*
X0096378Y0203126D01*
X0092378Y0203126D01*
X0092378Y0196134D01*
X0092378Y0197240D02*
X0091591Y0197240D01*
X0091591Y0198026D02*
X0092378Y0198026D01*
X0092378Y0198812D02*
X0091591Y0198812D01*
X0091591Y0199598D02*
X0092378Y0199598D01*
X0092378Y0200384D02*
X0091591Y0200384D01*
X0091591Y0201170D02*
X0092378Y0201170D01*
X0092378Y0201956D02*
X0091591Y0201956D01*
X0091591Y0202742D02*
X0092378Y0202742D01*
X0092378Y0203528D02*
X0147850Y0203528D01*
X0147850Y0204314D02*
X0096378Y0204314D01*
X0096378Y0205099D02*
X0147850Y0205099D01*
X0147850Y0205885D02*
X0096378Y0205885D01*
X0096378Y0206671D02*
X0147850Y0206671D01*
X0147850Y0207457D02*
X0096284Y0207457D01*
X0096037Y0208243D02*
X0147850Y0208243D01*
X0147850Y0209029D02*
X0095592Y0209029D01*
X0094903Y0209815D02*
X0147850Y0209815D01*
X0147850Y0210601D02*
X0093642Y0210601D01*
X0092378Y0210601D02*
X0091591Y0210601D01*
X0091591Y0210906D02*
X0090955Y0210805D01*
X0090298Y0210591D01*
X0089681Y0210278D01*
X0089122Y0209871D01*
X0088633Y0209382D01*
X0088226Y0208822D01*
X0087912Y0208206D01*
X0087699Y0207549D01*
X0087591Y0206865D01*
X0087591Y0203913D01*
X0091590Y0203913D01*
X0091591Y0203913D02*
X0091591Y0210906D01*
X0091591Y0209815D02*
X0092378Y0209815D01*
X0092378Y0209029D02*
X0091591Y0209029D01*
X0091591Y0208243D02*
X0092378Y0208243D01*
X0092378Y0207457D02*
X0091591Y0207457D01*
X0091591Y0206671D02*
X0092378Y0206671D01*
X0092378Y0205885D02*
X0091591Y0205885D01*
X0091591Y0205099D02*
X0092378Y0205099D01*
X0092378Y0204314D02*
X0091591Y0204314D01*
X0091590Y0203528D02*
X0086953Y0203528D01*
X0086953Y0204314D02*
X0087591Y0204314D01*
X0087591Y0205099D02*
X0086953Y0205099D01*
X0086953Y0205885D02*
X0087591Y0205885D01*
X0087591Y0206671D02*
X0086953Y0206671D01*
X0086953Y0207457D02*
X0087684Y0207457D01*
X0087931Y0208243D02*
X0086648Y0208243D01*
X0086323Y0209029D02*
X0088377Y0209029D01*
X0089066Y0209815D02*
X0085715Y0209815D01*
X0084930Y0210601D02*
X0090327Y0210601D01*
X0083217Y0211387D02*
X0147850Y0211387D01*
X0147850Y0212173D02*
X0005827Y0212173D01*
X0005827Y0212959D02*
X0147850Y0212959D01*
X0147850Y0213745D02*
X0005827Y0213745D01*
X0005827Y0214530D02*
X0147850Y0214530D01*
X0147850Y0215316D02*
X0005827Y0215316D01*
X0005827Y0216102D02*
X0147850Y0216102D01*
X0147850Y0216888D02*
X0005827Y0216888D01*
X0005827Y0217674D02*
X0147850Y0217674D01*
X0147850Y0218460D02*
X0005827Y0218460D01*
X0005827Y0219246D02*
X0147850Y0219246D01*
X0147850Y0220032D02*
X0005827Y0220032D01*
X0005827Y0220818D02*
X0147850Y0220818D01*
X0147850Y0221604D02*
X0005827Y0221604D01*
X0005827Y0222390D02*
X0147850Y0222390D01*
X0147850Y0223175D02*
X0005827Y0223175D01*
X0005827Y0223961D02*
X0147850Y0223961D01*
X0147850Y0224747D02*
X0015931Y0224747D01*
X0017829Y0225533D02*
X0147850Y0225533D01*
X0147850Y0226319D02*
X0019062Y0226319D01*
X0019848Y0227105D02*
X0147850Y0227105D01*
X0147850Y0227891D02*
X0020634Y0227891D01*
X0021331Y0228677D02*
X0147850Y0228677D01*
X0147850Y0229463D02*
X0021657Y0229463D01*
X0021982Y0230249D02*
X0147850Y0230249D01*
X0147850Y0231035D02*
X0022308Y0231035D01*
X0022633Y0231821D02*
X0147850Y0231821D01*
X0147850Y0232606D02*
X0022717Y0232606D01*
X0022717Y0233392D02*
X0147850Y0233392D01*
X0147850Y0234178D02*
X0022717Y0234178D01*
X0022717Y0234964D02*
X0147850Y0234964D01*
X0147850Y0235750D02*
X0022717Y0235750D01*
X0022414Y0236536D02*
X0147850Y0236536D01*
X0147850Y0237322D02*
X0022088Y0237322D01*
X0021763Y0238108D02*
X0147850Y0238108D01*
X0147850Y0238894D02*
X0021437Y0238894D01*
X0020890Y0239680D02*
X0147850Y0239680D01*
X0147850Y0240466D02*
X0020104Y0240466D01*
X0019318Y0241251D02*
X0147850Y0241251D01*
X0153362Y0241251D02*
X0196397Y0241251D01*
X0189941Y0225543D02*
X0187964Y0225543D01*
X0186138Y0224787D01*
X0184741Y0223389D01*
X0183984Y0221563D01*
X0183984Y0213586D01*
X0184741Y0211760D01*
X0186138Y0210363D01*
X0187964Y0209606D01*
X0189941Y0209606D01*
X0191767Y0210363D01*
X0193165Y0211760D01*
X0193921Y0213586D01*
X0193921Y0221563D01*
X0193165Y0223389D01*
X0191767Y0224787D01*
X0189941Y0225543D01*
X0189965Y0225533D02*
X0374722Y0225533D01*
X0373489Y0226319D02*
X0153362Y0226319D01*
X0153362Y0225533D02*
X0187940Y0225533D01*
X0186099Y0224747D02*
X0180329Y0224747D01*
X0180639Y0224647D02*
X0179982Y0224860D01*
X0179346Y0224961D01*
X0179346Y0217969D01*
X0178559Y0217969D01*
X0178559Y0224961D01*
X0177924Y0224860D01*
X0177266Y0224647D01*
X0176650Y0224333D01*
X0176090Y0223926D01*
X0175601Y0223437D01*
X0175195Y0222878D01*
X0174881Y0222261D01*
X0174667Y0221604D01*
X0153362Y0221604D01*
X0153362Y0222390D02*
X0174946Y0222390D01*
X0174667Y0221604D02*
X0174559Y0220921D01*
X0174559Y0217968D01*
X0178559Y0217968D01*
X0178559Y0217181D01*
X0179346Y0217181D01*
X0179346Y0210189D01*
X0179982Y0210289D01*
X0180639Y0210503D01*
X0181256Y0210817D01*
X0181815Y0211223D01*
X0182304Y0211712D01*
X0182711Y0212272D01*
X0183025Y0212888D01*
X0183238Y0213546D01*
X0183346Y0214229D01*
X0183346Y0217181D01*
X0179347Y0217181D01*
X0179347Y0217968D01*
X0183346Y0217968D01*
X0183346Y0220921D01*
X0183238Y0221604D01*
X0183025Y0222261D01*
X0182711Y0222878D01*
X0182304Y0223437D01*
X0181815Y0223926D01*
X0181256Y0224333D01*
X0180639Y0224647D01*
X0179346Y0224747D02*
X0178559Y0224747D01*
X0178559Y0223961D02*
X0179346Y0223961D01*
X0179346Y0223175D02*
X0178559Y0223175D01*
X0178559Y0222390D02*
X0179346Y0222390D01*
X0179346Y0221604D02*
X0178559Y0221604D01*
X0178559Y0220818D02*
X0179346Y0220818D01*
X0179346Y0220032D02*
X0178559Y0220032D01*
X0178559Y0219246D02*
X0179346Y0219246D01*
X0179346Y0218460D02*
X0178559Y0218460D01*
X0178559Y0217674D02*
X0153362Y0217674D01*
X0153362Y0216888D02*
X0174559Y0216888D01*
X0174559Y0217181D02*
X0174559Y0214229D01*
X0174667Y0213546D01*
X0174881Y0212888D01*
X0175195Y0212272D01*
X0175601Y0211712D01*
X0176090Y0211223D01*
X0176650Y0210817D01*
X0177266Y0210503D01*
X0177924Y0210289D01*
X0178559Y0210189D01*
X0178559Y0217181D01*
X0174559Y0217181D01*
X0174559Y0216102D02*
X0153362Y0216102D01*
X0153362Y0215316D02*
X0174559Y0215316D01*
X0174559Y0214530D02*
X0153362Y0214530D01*
X0153362Y0213745D02*
X0174636Y0213745D01*
X0174858Y0212959D02*
X0153362Y0212959D01*
X0153362Y0212173D02*
X0175267Y0212173D01*
X0175927Y0211387D02*
X0153362Y0211387D01*
X0153362Y0210601D02*
X0177074Y0210601D01*
X0178559Y0210601D02*
X0179346Y0210601D01*
X0179346Y0211387D02*
X0178559Y0211387D01*
X0178559Y0212173D02*
X0179346Y0212173D01*
X0179346Y0212959D02*
X0178559Y0212959D01*
X0178559Y0213745D02*
X0179346Y0213745D01*
X0179346Y0214530D02*
X0178559Y0214530D01*
X0178559Y0215316D02*
X0179346Y0215316D01*
X0179346Y0216102D02*
X0178559Y0216102D01*
X0178559Y0216888D02*
X0179346Y0216888D01*
X0179347Y0217674D02*
X0183984Y0217674D01*
X0183984Y0216888D02*
X0183346Y0216888D01*
X0183346Y0216102D02*
X0183984Y0216102D01*
X0183984Y0215316D02*
X0183346Y0215316D01*
X0183346Y0214530D02*
X0183984Y0214530D01*
X0183984Y0213745D02*
X0183270Y0213745D01*
X0183047Y0212959D02*
X0184244Y0212959D01*
X0184570Y0212173D02*
X0182638Y0212173D01*
X0181978Y0211387D02*
X0185114Y0211387D01*
X0185900Y0210601D02*
X0180831Y0210601D01*
X0187461Y0209815D02*
X0153362Y0209815D01*
X0153362Y0209029D02*
X0237953Y0209029D01*
X0237953Y0209216D02*
X0237953Y0197823D01*
X0238926Y0195473D01*
X0240725Y0193675D01*
X0243075Y0192701D01*
X0245618Y0192701D01*
X0247968Y0193675D01*
X0249767Y0195473D01*
X0250740Y0197823D01*
X0250740Y0209216D01*
X0249767Y0211566D01*
X0247968Y0213365D01*
X0245618Y0214338D01*
X0243075Y0214338D01*
X0240725Y0213365D01*
X0238926Y0211566D01*
X0237953Y0209216D01*
X0238201Y0209815D02*
X0190445Y0209815D01*
X0192005Y0210601D02*
X0238526Y0210601D01*
X0238852Y0211387D02*
X0192791Y0211387D01*
X0193336Y0212173D02*
X0239533Y0212173D01*
X0240319Y0212959D02*
X0193661Y0212959D01*
X0193921Y0213745D02*
X0241642Y0213745D01*
X0247051Y0213745D02*
X0364648Y0213745D01*
X0365292Y0214388D02*
X0363493Y0212590D01*
X0362520Y0210240D01*
X0362520Y0198847D01*
X0363493Y0196497D01*
X0365292Y0194698D01*
X0367642Y0193725D01*
X0370185Y0193725D01*
X0372535Y0194698D01*
X0374334Y0196497D01*
X0375307Y0198847D01*
X0375307Y0210240D01*
X0374334Y0212590D01*
X0372535Y0214388D01*
X0370185Y0215362D01*
X0367642Y0215362D01*
X0365292Y0214388D01*
X0365635Y0214530D02*
X0193921Y0214530D01*
X0193921Y0215316D02*
X0367532Y0215316D01*
X0370295Y0215316D02*
X0386585Y0215316D01*
X0386587Y0214530D02*
X0372192Y0214530D01*
X0373179Y0213745D02*
X0386590Y0213745D01*
X0386592Y0212959D02*
X0373965Y0212959D01*
X0374506Y0212173D02*
X0386595Y0212173D01*
X0386597Y0211387D02*
X0374832Y0211387D01*
X0375157Y0210601D02*
X0386600Y0210601D01*
X0386602Y0209815D02*
X0375307Y0209815D01*
X0375307Y0209029D02*
X0386605Y0209029D01*
X0386607Y0208243D02*
X0375307Y0208243D01*
X0375307Y0207457D02*
X0386610Y0207457D01*
X0386613Y0206671D02*
X0375307Y0206671D01*
X0375307Y0205885D02*
X0386615Y0205885D01*
X0386618Y0205099D02*
X0375307Y0205099D01*
X0375307Y0204314D02*
X0386620Y0204314D01*
X0386623Y0203528D02*
X0375307Y0203528D01*
X0375307Y0202742D02*
X0386625Y0202742D01*
X0386628Y0201956D02*
X0375307Y0201956D01*
X0375307Y0201170D02*
X0386630Y0201170D01*
X0386633Y0200384D02*
X0375307Y0200384D01*
X0375307Y0199598D02*
X0386635Y0199598D01*
X0386638Y0198812D02*
X0375293Y0198812D01*
X0374967Y0198026D02*
X0386640Y0198026D01*
X0386643Y0197240D02*
X0374642Y0197240D01*
X0374291Y0196454D02*
X0386645Y0196454D01*
X0386648Y0195669D02*
X0373505Y0195669D01*
X0372719Y0194883D02*
X0386651Y0194883D01*
X0386653Y0194097D02*
X0371083Y0194097D01*
X0366744Y0194097D02*
X0339796Y0194097D01*
X0339966Y0193927D02*
X0338315Y0195577D01*
X0336158Y0196471D01*
X0326023Y0196471D01*
X0323866Y0195577D01*
X0322215Y0193927D01*
X0321322Y0191770D01*
X0321322Y0189435D01*
X0322215Y0187278D01*
X0323866Y0185627D01*
X0326023Y0184734D01*
X0336158Y0184734D01*
X0338315Y0185627D01*
X0339966Y0187278D01*
X0340859Y0189435D01*
X0340859Y0191770D01*
X0339966Y0193927D01*
X0340221Y0193311D02*
X0386656Y0193311D01*
X0386658Y0192525D02*
X0340546Y0192525D01*
X0340859Y0191739D02*
X0386661Y0191739D01*
X0386663Y0190953D02*
X0340859Y0190953D01*
X0340859Y0190167D02*
X0386666Y0190167D01*
X0386668Y0189381D02*
X0340837Y0189381D01*
X0340511Y0188595D02*
X0386671Y0188595D01*
X0386673Y0187809D02*
X0340186Y0187809D01*
X0339711Y0187023D02*
X0386676Y0187023D01*
X0386678Y0186238D02*
X0338925Y0186238D01*
X0337891Y0185452D02*
X0386681Y0185452D01*
X0386683Y0184666D02*
X0153362Y0184666D01*
X0153362Y0185452D02*
X0276290Y0185452D01*
X0275866Y0185627D02*
X0278023Y0184734D01*
X0288158Y0184734D01*
X0290315Y0185627D01*
X0291966Y0187278D01*
X0292859Y0189435D01*
X0292859Y0191770D01*
X0291966Y0193927D01*
X0290315Y0195577D01*
X0288158Y0196471D01*
X0278023Y0196471D01*
X0275866Y0195577D01*
X0274215Y0193927D01*
X0273322Y0191770D01*
X0273322Y0189435D01*
X0274215Y0187278D01*
X0275866Y0185627D01*
X0275256Y0186238D02*
X0153362Y0186238D01*
X0153362Y0187023D02*
X0274470Y0187023D01*
X0273995Y0187809D02*
X0153362Y0187809D01*
X0153362Y0188595D02*
X0273670Y0188595D01*
X0273344Y0189381D02*
X0153362Y0189381D01*
X0153362Y0190167D02*
X0273322Y0190167D01*
X0273322Y0190953D02*
X0153362Y0190953D01*
X0153362Y0191739D02*
X0273322Y0191739D01*
X0273635Y0192525D02*
X0153362Y0192525D01*
X0153362Y0193311D02*
X0241603Y0193311D01*
X0240303Y0194097D02*
X0153362Y0194097D01*
X0153362Y0194883D02*
X0239517Y0194883D01*
X0238845Y0195669D02*
X0153362Y0195669D01*
X0153362Y0196454D02*
X0238520Y0196454D01*
X0238194Y0197240D02*
X0153362Y0197240D01*
X0153362Y0198026D02*
X0237953Y0198026D01*
X0237953Y0198812D02*
X0153362Y0198812D01*
X0153362Y0199598D02*
X0237953Y0199598D01*
X0237953Y0200384D02*
X0153362Y0200384D01*
X0154181Y0201170D02*
X0237953Y0201170D01*
X0237953Y0201956D02*
X0155337Y0201956D01*
X0156006Y0202742D02*
X0237953Y0202742D01*
X0237953Y0203528D02*
X0156331Y0203528D01*
X0156524Y0204314D02*
X0237953Y0204314D01*
X0237953Y0205099D02*
X0156524Y0205099D01*
X0156392Y0205885D02*
X0237953Y0205885D01*
X0237953Y0206671D02*
X0156066Y0206671D01*
X0155483Y0207457D02*
X0237953Y0207457D01*
X0237953Y0208243D02*
X0154534Y0208243D01*
X0147850Y0202742D02*
X0096378Y0202742D01*
X0096378Y0201956D02*
X0147850Y0201956D01*
X0147850Y0201170D02*
X0096378Y0201170D01*
X0096378Y0200384D02*
X0147850Y0200384D01*
X0147850Y0199598D02*
X0096287Y0199598D01*
X0096045Y0198812D02*
X0147850Y0198812D01*
X0147850Y0198026D02*
X0095604Y0198026D01*
X0094919Y0197240D02*
X0147850Y0197240D01*
X0147850Y0196454D02*
X0093684Y0196454D01*
X0089050Y0197240D02*
X0085731Y0197240D01*
X0086329Y0198026D02*
X0088365Y0198026D01*
X0087923Y0198812D02*
X0086655Y0198812D01*
X0086953Y0199598D02*
X0087682Y0199598D01*
X0087591Y0200384D02*
X0086953Y0200384D01*
X0086953Y0201170D02*
X0087591Y0201170D01*
X0087591Y0201956D02*
X0086953Y0201956D01*
X0086953Y0202742D02*
X0087591Y0202742D01*
X0080713Y0195669D02*
X0073256Y0195669D01*
X0072973Y0195551D02*
X0074799Y0196308D01*
X0076196Y0197705D01*
X0076953Y0199531D01*
X0076953Y0207508D01*
X0076196Y0209334D01*
X0074799Y0210732D01*
X0072973Y0211488D01*
X0070996Y0211488D01*
X0069170Y0210732D01*
X0067772Y0209334D01*
X0067016Y0207508D01*
X0067016Y0199531D01*
X0067772Y0197705D01*
X0069170Y0196308D01*
X0070996Y0195551D01*
X0072973Y0195551D01*
X0074946Y0196454D02*
X0079023Y0196454D01*
X0078237Y0197240D02*
X0075731Y0197240D01*
X0076329Y0198026D02*
X0077639Y0198026D01*
X0077314Y0198812D02*
X0076655Y0198812D01*
X0076953Y0199598D02*
X0077016Y0199598D01*
X0077016Y0200384D02*
X0076953Y0200384D01*
X0076953Y0201170D02*
X0077016Y0201170D01*
X0077016Y0201956D02*
X0076953Y0201956D01*
X0076953Y0202742D02*
X0077016Y0202742D01*
X0077016Y0203528D02*
X0076953Y0203528D01*
X0076953Y0204314D02*
X0077016Y0204314D01*
X0077016Y0205099D02*
X0076953Y0205099D01*
X0076953Y0205885D02*
X0077016Y0205885D01*
X0077016Y0206671D02*
X0076953Y0206671D01*
X0076953Y0207457D02*
X0077016Y0207457D01*
X0077320Y0208243D02*
X0076648Y0208243D01*
X0076323Y0209029D02*
X0077646Y0209029D01*
X0078253Y0209815D02*
X0075715Y0209815D01*
X0074930Y0210601D02*
X0079039Y0210601D01*
X0080751Y0211387D02*
X0073217Y0211387D01*
X0070751Y0211387D02*
X0063217Y0211387D01*
X0062973Y0211488D02*
X0060996Y0211488D01*
X0059170Y0210732D01*
X0057772Y0209334D01*
X0057016Y0207508D01*
X0057016Y0199531D01*
X0057772Y0197705D01*
X0059170Y0196308D01*
X0060996Y0195551D01*
X0062973Y0195551D01*
X0064799Y0196308D01*
X0066196Y0197705D01*
X0066953Y0199531D01*
X0066953Y0207508D01*
X0066196Y0209334D01*
X0064799Y0210732D01*
X0062973Y0211488D01*
X0064930Y0210601D02*
X0069039Y0210601D01*
X0068253Y0209815D02*
X0065715Y0209815D01*
X0066323Y0209029D02*
X0067646Y0209029D01*
X0067320Y0208243D02*
X0066648Y0208243D01*
X0066953Y0207457D02*
X0067016Y0207457D01*
X0067016Y0206671D02*
X0066953Y0206671D01*
X0066953Y0205885D02*
X0067016Y0205885D01*
X0067016Y0205099D02*
X0066953Y0205099D01*
X0066953Y0204314D02*
X0067016Y0204314D01*
X0067016Y0203528D02*
X0066953Y0203528D01*
X0066953Y0202742D02*
X0067016Y0202742D01*
X0067016Y0201956D02*
X0066953Y0201956D01*
X0066953Y0201170D02*
X0067016Y0201170D01*
X0067016Y0200384D02*
X0066953Y0200384D01*
X0066953Y0199598D02*
X0067016Y0199598D01*
X0067314Y0198812D02*
X0066655Y0198812D01*
X0066329Y0198026D02*
X0067639Y0198026D01*
X0068237Y0197240D02*
X0065731Y0197240D01*
X0064946Y0196454D02*
X0069023Y0196454D01*
X0070713Y0195669D02*
X0063256Y0195669D01*
X0060713Y0195669D02*
X0053256Y0195669D01*
X0052973Y0195551D02*
X0054799Y0196308D01*
X0056196Y0197705D01*
X0056953Y0199531D01*
X0056953Y0207508D01*
X0056196Y0209334D01*
X0054799Y0210732D01*
X0052973Y0211488D01*
X0050996Y0211488D01*
X0049170Y0210732D01*
X0047772Y0209334D01*
X0047016Y0207508D01*
X0047016Y0199531D01*
X0047772Y0197705D01*
X0049170Y0196308D01*
X0050996Y0195551D01*
X0052973Y0195551D01*
X0054946Y0196454D02*
X0059023Y0196454D01*
X0058237Y0197240D02*
X0055731Y0197240D01*
X0056329Y0198026D02*
X0057639Y0198026D01*
X0057314Y0198812D02*
X0056655Y0198812D01*
X0056953Y0199598D02*
X0057016Y0199598D01*
X0057016Y0200384D02*
X0056953Y0200384D01*
X0056953Y0201170D02*
X0057016Y0201170D01*
X0057016Y0201956D02*
X0056953Y0201956D01*
X0056953Y0202742D02*
X0057016Y0202742D01*
X0057016Y0203528D02*
X0056953Y0203528D01*
X0056953Y0204314D02*
X0057016Y0204314D01*
X0057016Y0205099D02*
X0056953Y0205099D01*
X0056953Y0205885D02*
X0057016Y0205885D01*
X0057016Y0206671D02*
X0056953Y0206671D01*
X0056953Y0207457D02*
X0057016Y0207457D01*
X0057320Y0208243D02*
X0056648Y0208243D01*
X0056323Y0209029D02*
X0057646Y0209029D01*
X0058253Y0209815D02*
X0055715Y0209815D01*
X0054930Y0210601D02*
X0059039Y0210601D01*
X0060751Y0211387D02*
X0053217Y0211387D01*
X0050751Y0211387D02*
X0005827Y0211387D01*
X0005827Y0210601D02*
X0049039Y0210601D01*
X0048253Y0209815D02*
X0005827Y0209815D01*
X0005827Y0209029D02*
X0047646Y0209029D01*
X0047320Y0208243D02*
X0005827Y0208243D01*
X0005827Y0207457D02*
X0047016Y0207457D01*
X0047016Y0206671D02*
X0005827Y0206671D01*
X0005827Y0205885D02*
X0047016Y0205885D01*
X0047016Y0205099D02*
X0005827Y0205099D01*
X0005827Y0204314D02*
X0047016Y0204314D01*
X0047016Y0203528D02*
X0005827Y0203528D01*
X0005827Y0202742D02*
X0047016Y0202742D01*
X0047016Y0201956D02*
X0005827Y0201956D01*
X0005827Y0201170D02*
X0047016Y0201170D01*
X0047016Y0200384D02*
X0005827Y0200384D01*
X0005827Y0199598D02*
X0047016Y0199598D01*
X0047314Y0198812D02*
X0005827Y0198812D01*
X0005827Y0198026D02*
X0047639Y0198026D01*
X0048237Y0197240D02*
X0005827Y0197240D01*
X0005827Y0196454D02*
X0049023Y0196454D01*
X0050713Y0195669D02*
X0005827Y0195669D01*
X0005827Y0183880D02*
X0039704Y0183880D01*
X0032810Y0183094D02*
X0005827Y0183094D01*
X0005827Y0182308D02*
X0031948Y0182308D01*
X0031162Y0181522D02*
X0005827Y0181522D01*
X0005827Y0180736D02*
X0030376Y0180736D01*
X0029591Y0179950D02*
X0005827Y0179950D01*
X0005827Y0179164D02*
X0028805Y0179164D01*
X0028019Y0178378D02*
X0005827Y0178378D01*
X0005827Y0177593D02*
X0027233Y0177593D01*
X0026812Y0176807D02*
X0005827Y0176807D01*
X0005827Y0176021D02*
X0026591Y0176021D01*
X0026591Y0175235D02*
X0021669Y0175235D01*
X0022751Y0174449D02*
X0026591Y0174449D01*
X0026591Y0166590D02*
X0024053Y0166590D01*
X0024053Y0165804D02*
X0026591Y0165804D01*
X0026591Y0165018D02*
X0024053Y0165018D01*
X0023923Y0164232D02*
X0026591Y0164232D01*
X0026591Y0163446D02*
X0023632Y0163446D01*
X0023152Y0162660D02*
X0026591Y0162660D01*
X0026591Y0161874D02*
X0022381Y0161874D01*
X0018488Y0161088D02*
X0005827Y0161088D01*
X0005827Y0161874D02*
X0016937Y0161874D01*
X0016166Y0162660D02*
X0005827Y0162660D01*
X0005827Y0163446D02*
X0015687Y0163446D01*
X0015395Y0164232D02*
X0005827Y0164232D01*
X0005827Y0165018D02*
X0015265Y0165018D01*
X0015265Y0165804D02*
X0005827Y0165804D01*
X0005827Y0166590D02*
X0015265Y0166590D01*
X0015265Y0167376D02*
X0005827Y0167376D01*
X0032890Y0162660D02*
X0033186Y0162660D01*
X0032890Y0161874D02*
X0033886Y0161874D01*
X0034710Y0161088D02*
X0032890Y0161088D01*
X0032890Y0160302D02*
X0058488Y0160302D01*
X0058740Y0160911D02*
X0058044Y0159232D01*
X0058044Y0157414D01*
X0058740Y0155735D01*
X0060025Y0154450D01*
X0061704Y0153754D01*
X0068721Y0153754D01*
X0070400Y0154450D01*
X0071686Y0155735D01*
X0072381Y0157414D01*
X0072381Y0159232D01*
X0071686Y0160911D01*
X0070400Y0162196D01*
X0068721Y0162891D01*
X0061704Y0162891D01*
X0060025Y0162196D01*
X0058740Y0160911D01*
X0058917Y0161088D02*
X0040208Y0161088D01*
X0041032Y0161874D02*
X0059703Y0161874D01*
X0061146Y0162660D02*
X0041732Y0162660D01*
X0032890Y0159517D02*
X0058162Y0159517D01*
X0058044Y0158731D02*
X0032890Y0158731D01*
X0032890Y0157945D02*
X0058044Y0157945D01*
X0058150Y0157159D02*
X0032890Y0157159D01*
X0032890Y0156373D02*
X0058475Y0156373D01*
X0058888Y0155587D02*
X0032890Y0155587D01*
X0032890Y0154801D02*
X0059674Y0154801D01*
X0069351Y0154015D02*
X0091074Y0154015D01*
X0089674Y0154801D02*
X0070752Y0154801D01*
X0071538Y0155587D02*
X0088888Y0155587D01*
X0088475Y0156373D02*
X0071950Y0156373D01*
X0072275Y0157159D02*
X0088150Y0157159D01*
X0088044Y0157945D02*
X0072381Y0157945D01*
X0072381Y0158731D02*
X0088044Y0158731D01*
X0088162Y0159517D02*
X0072263Y0159517D01*
X0071938Y0160302D02*
X0088488Y0160302D01*
X0088917Y0161088D02*
X0071508Y0161088D01*
X0070722Y0161874D02*
X0089703Y0161874D01*
X0091146Y0162660D02*
X0069279Y0162660D01*
X0069875Y0164232D02*
X0090551Y0164232D01*
X0089457Y0165018D02*
X0070969Y0165018D01*
X0071714Y0165804D02*
X0088711Y0165804D01*
X0088386Y0166590D02*
X0072040Y0166590D01*
X0072365Y0167376D02*
X0088060Y0167376D01*
X0088044Y0168162D02*
X0072381Y0168162D01*
X0072381Y0168947D02*
X0088044Y0168947D01*
X0088252Y0169733D02*
X0072173Y0169733D01*
X0071848Y0170519D02*
X0088577Y0170519D01*
X0089134Y0171305D02*
X0071291Y0171305D01*
X0070505Y0172091D02*
X0089920Y0172091D01*
X0091669Y0172877D02*
X0068756Y0172877D01*
X0069803Y0152443D02*
X0090622Y0152443D01*
X0089486Y0151657D02*
X0070939Y0151657D01*
X0071702Y0150871D02*
X0088723Y0150871D01*
X0088398Y0150086D02*
X0072027Y0150086D01*
X0072353Y0149300D02*
X0088072Y0149300D01*
X0088044Y0148514D02*
X0072381Y0148514D01*
X0072381Y0147728D02*
X0088044Y0147728D01*
X0088240Y0146942D02*
X0072186Y0146942D01*
X0071860Y0146156D02*
X0088565Y0146156D01*
X0089104Y0145370D02*
X0071321Y0145370D01*
X0070535Y0144584D02*
X0089890Y0144584D01*
X0091598Y0143798D02*
X0068827Y0143798D01*
X0070326Y0142226D02*
X0090099Y0142226D01*
X0090025Y0142196D02*
X0088740Y0140911D01*
X0088044Y0139232D01*
X0088044Y0137414D01*
X0088740Y0135735D01*
X0090025Y0134450D01*
X0091704Y0133754D01*
X0098721Y0133754D01*
X0100400Y0134450D01*
X0101686Y0135735D01*
X0102381Y0137414D01*
X0102381Y0139232D01*
X0101686Y0140911D01*
X0100400Y0142196D01*
X0098721Y0142891D01*
X0091704Y0142891D01*
X0090025Y0142196D01*
X0089269Y0141441D02*
X0071156Y0141441D01*
X0071792Y0140655D02*
X0088634Y0140655D01*
X0088308Y0139869D02*
X0072117Y0139869D01*
X0072381Y0139083D02*
X0088044Y0139083D01*
X0088044Y0138297D02*
X0072381Y0138297D01*
X0072381Y0137511D02*
X0088044Y0137511D01*
X0088329Y0136725D02*
X0072096Y0136725D01*
X0071770Y0135939D02*
X0088655Y0135939D01*
X0089321Y0135153D02*
X0071104Y0135153D01*
X0070201Y0134367D02*
X0090224Y0134367D01*
X0091473Y0132795D02*
X0068953Y0132795D01*
X0070587Y0132010D02*
X0089839Y0132010D01*
X0089053Y0131224D02*
X0071373Y0131224D01*
X0071881Y0130438D02*
X0088544Y0130438D01*
X0088218Y0129652D02*
X0072207Y0129652D01*
X0072381Y0128866D02*
X0088044Y0128866D01*
X0088044Y0128080D02*
X0072381Y0128080D01*
X0072331Y0127294D02*
X0088094Y0127294D01*
X0088419Y0126508D02*
X0072006Y0126508D01*
X0071673Y0125722D02*
X0086943Y0125722D01*
X0086157Y0124936D02*
X0070887Y0124936D01*
X0069678Y0124150D02*
X0085371Y0124150D01*
X0084585Y0123365D02*
X0055221Y0123365D01*
X0055378Y0124150D02*
X0060748Y0124150D01*
X0059538Y0124936D02*
X0055378Y0124936D01*
X0054895Y0122579D02*
X0060949Y0122579D01*
X0061704Y0122891D02*
X0060025Y0122196D01*
X0058740Y0120911D01*
X0058044Y0119232D01*
X0058044Y0117414D01*
X0058740Y0115735D01*
X0060025Y0114450D01*
X0061704Y0113754D01*
X0068721Y0113754D01*
X0070400Y0114450D01*
X0071686Y0115735D01*
X0072381Y0117414D01*
X0072381Y0119232D01*
X0071686Y0120911D01*
X0070400Y0122196D01*
X0068721Y0122891D01*
X0061704Y0122891D01*
X0059622Y0121793D02*
X0054496Y0121793D01*
X0053710Y0121007D02*
X0058836Y0121007D01*
X0058454Y0120221D02*
X0054169Y0120221D01*
X0054955Y0119435D02*
X0058128Y0119435D01*
X0058044Y0118649D02*
X0055055Y0118649D01*
X0055055Y0117863D02*
X0058044Y0117863D01*
X0058184Y0117077D02*
X0055055Y0117077D01*
X0055055Y0116291D02*
X0058509Y0116291D01*
X0058969Y0115505D02*
X0055055Y0115505D01*
X0055055Y0114720D02*
X0059755Y0114720D01*
X0061271Y0113934D02*
X0055055Y0113934D01*
X0055055Y0113148D02*
X0076591Y0113148D01*
X0076591Y0113934D02*
X0069154Y0113934D01*
X0070670Y0114720D02*
X0076591Y0114720D01*
X0076892Y0115505D02*
X0071456Y0115505D01*
X0071916Y0116291D02*
X0077512Y0116291D01*
X0078298Y0117077D02*
X0072242Y0117077D01*
X0072381Y0117863D02*
X0079084Y0117863D01*
X0079870Y0118649D02*
X0072381Y0118649D01*
X0072297Y0119435D02*
X0080656Y0119435D01*
X0081442Y0120221D02*
X0071971Y0120221D01*
X0071589Y0121007D02*
X0082227Y0121007D01*
X0083013Y0121793D02*
X0070804Y0121793D01*
X0069476Y0122579D02*
X0083799Y0122579D01*
X0087665Y0118649D02*
X0088044Y0118649D01*
X0088044Y0117863D02*
X0086879Y0117863D01*
X0086093Y0117077D02*
X0088184Y0117077D01*
X0088509Y0116291D02*
X0085307Y0116291D01*
X0084521Y0115505D02*
X0088969Y0115505D01*
X0089755Y0114720D02*
X0083735Y0114720D01*
X0082949Y0113934D02*
X0091271Y0113934D01*
X0090293Y0111576D02*
X0082102Y0111576D01*
X0082102Y0112362D02*
X0112192Y0112362D01*
X0111406Y0113148D02*
X0082163Y0113148D01*
X0082102Y0110790D02*
X0089458Y0110790D01*
X0088986Y0110004D02*
X0082102Y0110004D01*
X0076591Y0110004D02*
X0076445Y0110004D01*
X0076591Y0110790D02*
X0075474Y0110790D01*
X0076591Y0111576D02*
X0071020Y0111576D01*
X0070000Y0112362D02*
X0076591Y0112362D01*
X0084304Y0102145D02*
X0089974Y0102145D01*
X0089188Y0101359D02*
X0085090Y0101359D01*
X0085876Y0100573D02*
X0088600Y0100573D01*
X0088274Y0099787D02*
X0086661Y0099787D01*
X0087447Y0099001D02*
X0088044Y0099001D01*
X0083582Y0095072D02*
X0070135Y0095072D01*
X0070969Y0095858D02*
X0082796Y0095858D01*
X0082010Y0096644D02*
X0071440Y0096644D01*
X0071707Y0097429D02*
X0081224Y0097429D01*
X0084368Y0094286D02*
X0028795Y0094286D01*
X0030293Y0095072D02*
X0060290Y0095072D01*
X0059457Y0095858D02*
X0031079Y0095858D01*
X0031465Y0096644D02*
X0058985Y0096644D01*
X0064819Y0099001D02*
X0065606Y0099001D01*
X0065606Y0099787D02*
X0064819Y0099787D01*
X0064819Y0100573D02*
X0065606Y0100573D01*
X0065606Y0101359D02*
X0064819Y0101359D01*
X0064819Y0102145D02*
X0065606Y0102145D01*
X0069150Y0092714D02*
X0085940Y0092714D01*
X0086726Y0091928D02*
X0070668Y0091928D01*
X0071454Y0091142D02*
X0087904Y0091142D01*
X0088510Y0090356D02*
X0071915Y0090356D01*
X0072241Y0089570D02*
X0088184Y0089570D01*
X0088044Y0088784D02*
X0072381Y0088784D01*
X0072381Y0087998D02*
X0088044Y0087998D01*
X0088128Y0087213D02*
X0072298Y0087213D01*
X0071972Y0086427D02*
X0088453Y0086427D01*
X0088834Y0085641D02*
X0071591Y0085641D01*
X0070805Y0084855D02*
X0089620Y0084855D01*
X0090944Y0084069D02*
X0069481Y0084069D01*
X0069673Y0082497D02*
X0090752Y0082497D01*
X0089540Y0081711D02*
X0070885Y0081711D01*
X0071671Y0080925D02*
X0088754Y0080925D01*
X0088420Y0080139D02*
X0072005Y0080139D01*
X0072331Y0079353D02*
X0088095Y0079353D01*
X0088044Y0078568D02*
X0072381Y0078568D01*
X0072381Y0077782D02*
X0088044Y0077782D01*
X0088217Y0076996D02*
X0072208Y0076996D01*
X0071882Y0076210D02*
X0088543Y0076210D01*
X0089051Y0075424D02*
X0071374Y0075424D01*
X0070589Y0074638D02*
X0089837Y0074638D01*
X0091468Y0073852D02*
X0068957Y0073852D01*
X0070197Y0072280D02*
X0090228Y0072280D01*
X0089323Y0071494D02*
X0071102Y0071494D01*
X0071769Y0070708D02*
X0088656Y0070708D01*
X0088330Y0069922D02*
X0072095Y0069922D01*
X0072381Y0069137D02*
X0088044Y0069137D01*
X0088044Y0068351D02*
X0072381Y0068351D01*
X0072381Y0067565D02*
X0088044Y0067565D01*
X0088307Y0066779D02*
X0072118Y0066779D01*
X0071792Y0065993D02*
X0088633Y0065993D01*
X0089268Y0065207D02*
X0071158Y0065207D01*
X0070331Y0064421D02*
X0090094Y0064421D01*
X0091602Y0062849D02*
X0068823Y0062849D01*
X0070533Y0062063D02*
X0089892Y0062063D01*
X0089106Y0061277D02*
X0071319Y0061277D01*
X0071859Y0060492D02*
X0088566Y0060492D01*
X0088240Y0059706D02*
X0072185Y0059706D01*
X0072381Y0058920D02*
X0088044Y0058920D01*
X0088044Y0058134D02*
X0072381Y0058134D01*
X0072354Y0057348D02*
X0088072Y0057348D01*
X0088397Y0056562D02*
X0072028Y0056562D01*
X0071703Y0055776D02*
X0088723Y0055776D01*
X0089484Y0054990D02*
X0070941Y0054990D01*
X0069807Y0054204D02*
X0090618Y0054204D01*
X0091079Y0052632D02*
X0069346Y0052632D01*
X0068721Y0052891D02*
X0070400Y0052196D01*
X0071686Y0050911D01*
X0072381Y0049232D01*
X0072381Y0047414D01*
X0071686Y0045735D01*
X0070400Y0044450D01*
X0068721Y0043754D01*
X0061704Y0043754D01*
X0060025Y0044450D01*
X0058740Y0045735D01*
X0058044Y0047414D01*
X0058044Y0049232D01*
X0058740Y0050911D01*
X0060025Y0052196D01*
X0061704Y0052891D01*
X0068721Y0052891D01*
X0070750Y0051846D02*
X0089675Y0051846D01*
X0088889Y0051061D02*
X0071536Y0051061D01*
X0071949Y0050275D02*
X0088476Y0050275D01*
X0088151Y0049489D02*
X0072275Y0049489D01*
X0072381Y0048703D02*
X0088044Y0048703D01*
X0088044Y0047917D02*
X0072381Y0047917D01*
X0072264Y0047131D02*
X0088161Y0047131D01*
X0088487Y0046345D02*
X0071938Y0046345D01*
X0071510Y0045559D02*
X0088915Y0045559D01*
X0089701Y0044773D02*
X0070724Y0044773D01*
X0069284Y0043987D02*
X0091141Y0043987D01*
X0091704Y0042891D02*
X0090025Y0042196D01*
X0088740Y0040911D01*
X0088044Y0039232D01*
X0088044Y0037414D01*
X0088740Y0035735D01*
X0090025Y0034450D01*
X0091704Y0033754D01*
X0098721Y0033754D01*
X0100400Y0034450D01*
X0101686Y0035735D01*
X0102381Y0037414D01*
X0102381Y0039232D01*
X0101686Y0040911D01*
X0100400Y0042196D01*
X0098721Y0042891D01*
X0091704Y0042891D01*
X0090555Y0042416D02*
X0069870Y0042416D01*
X0070400Y0042196D02*
X0068721Y0042891D01*
X0061704Y0042891D01*
X0060025Y0042196D01*
X0058740Y0040911D01*
X0058044Y0039232D01*
X0058044Y0037414D01*
X0058740Y0035735D01*
X0060025Y0034450D01*
X0061704Y0033754D01*
X0068721Y0033754D01*
X0070400Y0034450D01*
X0071686Y0035735D01*
X0072381Y0037414D01*
X0072381Y0039232D01*
X0071686Y0040911D01*
X0070400Y0042196D01*
X0070967Y0041630D02*
X0089459Y0041630D01*
X0088712Y0040844D02*
X0071713Y0040844D01*
X0072039Y0040058D02*
X0088386Y0040058D01*
X0088061Y0039272D02*
X0072364Y0039272D01*
X0072381Y0038486D02*
X0088044Y0038486D01*
X0088044Y0037700D02*
X0072381Y0037700D01*
X0072174Y0036914D02*
X0088251Y0036914D01*
X0088577Y0036128D02*
X0071848Y0036128D01*
X0071293Y0035342D02*
X0089132Y0035342D01*
X0089918Y0034556D02*
X0070507Y0034556D01*
X0068760Y0033770D02*
X0091665Y0033770D01*
X0092832Y0028269D02*
X0066727Y0028269D01*
X0067513Y0027483D02*
X0092046Y0027483D01*
X0091260Y0026697D02*
X0068299Y0026697D01*
X0069085Y0025911D02*
X0090474Y0025911D01*
X0090211Y0025125D02*
X0069348Y0025125D01*
X0069348Y0024340D02*
X0090211Y0024340D01*
X0090211Y0023554D02*
X0069348Y0023554D01*
X0069348Y0022768D02*
X0090211Y0022768D01*
X0090211Y0021982D02*
X0069348Y0021982D01*
X0068680Y0021196D02*
X0090879Y0021196D01*
X0091665Y0020410D02*
X0067894Y0020410D01*
X0067108Y0019624D02*
X0092451Y0019624D01*
X0098760Y0033770D02*
X0147850Y0033770D01*
X0147850Y0032985D02*
X0005827Y0032985D01*
X0005827Y0033770D02*
X0061665Y0033770D01*
X0059918Y0034556D02*
X0005827Y0034556D01*
X0005827Y0035342D02*
X0059132Y0035342D01*
X0058577Y0036128D02*
X0005827Y0036128D01*
X0005827Y0036914D02*
X0058251Y0036914D01*
X0058044Y0037700D02*
X0005827Y0037700D01*
X0005827Y0038486D02*
X0058044Y0038486D01*
X0058061Y0039272D02*
X0005827Y0039272D01*
X0005827Y0040058D02*
X0058386Y0040058D01*
X0058712Y0040844D02*
X0005827Y0040844D01*
X0005827Y0041630D02*
X0059459Y0041630D01*
X0060555Y0042416D02*
X0005827Y0042416D01*
X0005827Y0043201D02*
X0147850Y0043201D01*
X0147850Y0042416D02*
X0099870Y0042416D01*
X0100967Y0041630D02*
X0147850Y0041630D01*
X0147850Y0040844D02*
X0101713Y0040844D01*
X0102039Y0040058D02*
X0147850Y0040058D01*
X0147850Y0039272D02*
X0102364Y0039272D01*
X0102381Y0038486D02*
X0147850Y0038486D01*
X0147850Y0037700D02*
X0102381Y0037700D01*
X0102174Y0036914D02*
X0147850Y0036914D01*
X0147850Y0036128D02*
X0101848Y0036128D01*
X0101293Y0035342D02*
X0147850Y0035342D01*
X0147850Y0034556D02*
X0100507Y0034556D01*
X0099284Y0043987D02*
X0117373Y0043987D01*
X0116413Y0044773D02*
X0100724Y0044773D01*
X0128406Y0043987D02*
X0147850Y0043987D01*
X0147850Y0044773D02*
X0129367Y0044773D01*
X0143855Y0045559D02*
X0147850Y0045559D01*
X0147850Y0046345D02*
X0144346Y0046345D01*
X0144346Y0047131D02*
X0147850Y0047131D01*
X0147850Y0047917D02*
X0144346Y0047917D01*
X0144346Y0048703D02*
X0147850Y0048703D01*
X0147850Y0049489D02*
X0144346Y0049489D01*
X0144346Y0050275D02*
X0147850Y0050275D01*
X0147850Y0051061D02*
X0144117Y0051061D01*
X0144237Y0051846D02*
X0147850Y0051846D01*
X0147850Y0052632D02*
X0144346Y0052632D01*
X0144346Y0053418D02*
X0147850Y0053418D01*
X0147850Y0054204D02*
X0144346Y0054204D01*
X0144346Y0054990D02*
X0147850Y0054990D01*
X0147850Y0055776D02*
X0144346Y0055776D01*
X0144346Y0056562D02*
X0147850Y0056562D01*
X0147850Y0057348D02*
X0143953Y0057348D01*
X0143953Y0058134D02*
X0147850Y0058134D01*
X0147850Y0058920D02*
X0144814Y0058920D01*
X0145331Y0059706D02*
X0147850Y0059706D01*
X0147850Y0060492D02*
X0145331Y0060492D01*
X0145331Y0061277D02*
X0147850Y0061277D01*
X0147850Y0062063D02*
X0145331Y0062063D01*
X0145331Y0062849D02*
X0147850Y0062849D01*
X0147850Y0063635D02*
X0145331Y0063635D01*
X0145331Y0064421D02*
X0147850Y0064421D01*
X0147850Y0065207D02*
X0145331Y0065207D01*
X0145331Y0065993D02*
X0147850Y0065993D01*
X0147850Y0066779D02*
X0145193Y0066779D01*
X0145331Y0067565D02*
X0147850Y0067565D01*
X0147850Y0068351D02*
X0145331Y0068351D01*
X0145331Y0069137D02*
X0147850Y0069137D01*
X0147850Y0069922D02*
X0145331Y0069922D01*
X0145331Y0070708D02*
X0147850Y0070708D01*
X0147850Y0071494D02*
X0145331Y0071494D01*
X0145331Y0072280D02*
X0147850Y0072280D01*
X0147850Y0073066D02*
X0145331Y0073066D01*
X0145144Y0073852D02*
X0147850Y0073852D01*
X0147850Y0074638D02*
X0144359Y0074638D01*
X0143559Y0075424D02*
X0147850Y0075424D01*
X0147850Y0076210D02*
X0145057Y0076210D01*
X0145488Y0076996D02*
X0147850Y0076996D01*
X0147850Y0077782D02*
X0145488Y0077782D01*
X0145488Y0078568D02*
X0147850Y0078568D01*
X0147850Y0079353D02*
X0145488Y0079353D01*
X0145488Y0080139D02*
X0147850Y0080139D01*
X0147850Y0080925D02*
X0145488Y0080925D01*
X0145488Y0081711D02*
X0147850Y0081711D01*
X0147850Y0082497D02*
X0145488Y0082497D01*
X0145488Y0083283D02*
X0147850Y0083283D01*
X0147850Y0084069D02*
X0145435Y0084069D01*
X0145488Y0084855D02*
X0147850Y0084855D01*
X0147850Y0085641D02*
X0145488Y0085641D01*
X0145488Y0086427D02*
X0147850Y0086427D01*
X0147850Y0087213D02*
X0145488Y0087213D01*
X0145488Y0087998D02*
X0147850Y0087998D01*
X0147850Y0088784D02*
X0145488Y0088784D01*
X0145488Y0089570D02*
X0147850Y0089570D01*
X0147850Y0090356D02*
X0145488Y0090356D01*
X0145217Y0091142D02*
X0147850Y0091142D01*
X0147850Y0091928D02*
X0144431Y0091928D01*
X0153362Y0097429D02*
X0222389Y0097429D01*
X0222369Y0097492D02*
X0222607Y0096759D01*
X0222956Y0096073D01*
X0223409Y0095450D01*
X0223954Y0094905D01*
X0224577Y0094452D01*
X0225263Y0094103D01*
X0225996Y0093865D01*
X0226748Y0093745D01*
X0226748Y0098244D01*
X0222249Y0098244D01*
X0222369Y0097492D01*
X0222254Y0098215D02*
X0153362Y0098215D01*
X0153362Y0099001D02*
X0226748Y0099001D01*
X0226748Y0098215D02*
X0227535Y0098215D01*
X0227535Y0097429D02*
X0226748Y0097429D01*
X0226748Y0096644D02*
X0227535Y0096644D01*
X0227535Y0095858D02*
X0226748Y0095858D01*
X0226748Y0095072D02*
X0227535Y0095072D01*
X0227535Y0094286D02*
X0226748Y0094286D01*
X0224904Y0094286D02*
X0212091Y0094286D01*
X0211749Y0095072D02*
X0223787Y0095072D01*
X0223113Y0095858D02*
X0210963Y0095858D01*
X0210088Y0096644D02*
X0222666Y0096644D01*
X0229495Y0102931D02*
X0303561Y0102931D01*
X0303561Y0103717D02*
X0212392Y0103717D01*
X0212610Y0104503D02*
X0303561Y0104503D01*
X0303561Y0105289D02*
X0212610Y0105289D01*
X0212610Y0106074D02*
X0303561Y0106074D01*
X0303561Y0106860D02*
X0228966Y0106860D01*
X0230498Y0107646D02*
X0303841Y0107646D01*
X0304167Y0108432D02*
X0231284Y0108432D01*
X0231899Y0109218D02*
X0304546Y0109218D01*
X0305332Y0110004D02*
X0232224Y0110004D01*
X0232550Y0110790D02*
X0306137Y0110790D01*
X0308034Y0111576D02*
X0232610Y0111576D01*
X0225317Y0106860D02*
X0212427Y0106860D01*
X0212102Y0107646D02*
X0223785Y0107646D01*
X0223000Y0108432D02*
X0211774Y0108432D01*
X0211664Y0115505D02*
X0222890Y0115505D01*
X0223676Y0116291D02*
X0212056Y0116291D01*
X0212382Y0117077D02*
X0225052Y0117077D01*
X0225378Y0120221D02*
X0212438Y0120221D01*
X0212610Y0119435D02*
X0386894Y0119435D01*
X0386896Y0118649D02*
X0212610Y0118649D01*
X0212610Y0117863D02*
X0386899Y0117863D01*
X0386922Y0110790D02*
X0359721Y0110790D01*
X0360526Y0110004D02*
X0386924Y0110004D01*
X0386927Y0109218D02*
X0361312Y0109218D01*
X0361692Y0108432D02*
X0386929Y0108432D01*
X0386932Y0107646D02*
X0362017Y0107646D01*
X0362298Y0106860D02*
X0386934Y0106860D01*
X0386937Y0106074D02*
X0362298Y0106074D01*
X0362298Y0105289D02*
X0386939Y0105289D01*
X0386942Y0104503D02*
X0362298Y0104503D01*
X0362298Y0103717D02*
X0386944Y0103717D01*
X0386947Y0102931D02*
X0362298Y0102931D01*
X0362298Y0102145D02*
X0386950Y0102145D01*
X0386952Y0101359D02*
X0362298Y0101359D01*
X0362298Y0100573D02*
X0386955Y0100573D01*
X0386957Y0099787D02*
X0362298Y0099787D01*
X0362298Y0099001D02*
X0386960Y0099001D01*
X0386962Y0098215D02*
X0362298Y0098215D01*
X0362298Y0097429D02*
X0386965Y0097429D01*
X0386967Y0096644D02*
X0362219Y0096644D01*
X0361893Y0095858D02*
X0386970Y0095858D01*
X0386972Y0095072D02*
X0361568Y0095072D01*
X0361013Y0094286D02*
X0386975Y0094286D01*
X0386977Y0093500D02*
X0360227Y0093500D01*
X0358999Y0092714D02*
X0386980Y0092714D01*
X0386982Y0091928D02*
X0212610Y0091928D01*
X0212610Y0091142D02*
X0386985Y0091142D01*
X0386988Y0090356D02*
X0229109Y0090356D01*
X0230557Y0089570D02*
X0386990Y0089570D01*
X0386993Y0088784D02*
X0231343Y0088784D01*
X0231923Y0087998D02*
X0386995Y0087998D01*
X0386998Y0087213D02*
X0232249Y0087213D01*
X0232574Y0086427D02*
X0387000Y0086427D01*
X0387003Y0085641D02*
X0232610Y0085641D01*
X0232610Y0084855D02*
X0387005Y0084855D01*
X0387008Y0084069D02*
X0232571Y0084069D01*
X0232245Y0083283D02*
X0387010Y0083283D01*
X0387013Y0082497D02*
X0231920Y0082497D01*
X0231335Y0081711D02*
X0387015Y0081711D01*
X0387018Y0080925D02*
X0230549Y0080925D01*
X0229089Y0080139D02*
X0387020Y0080139D01*
X0387023Y0079353D02*
X0212610Y0079353D01*
X0212610Y0078568D02*
X0387026Y0078568D01*
X0387028Y0077782D02*
X0212610Y0077782D01*
X0212413Y0076996D02*
X0225236Y0076996D01*
X0223752Y0076210D02*
X0212088Y0076210D01*
X0211740Y0075424D02*
X0222966Y0075424D01*
X0222371Y0074638D02*
X0210954Y0074638D01*
X0210068Y0073852D02*
X0222045Y0073852D01*
X0222028Y0069922D02*
X0209966Y0069922D01*
X0210912Y0069137D02*
X0222353Y0069137D01*
X0222924Y0068351D02*
X0211698Y0068351D01*
X0212070Y0067565D02*
X0223710Y0067565D01*
X0225134Y0066779D02*
X0212396Y0066779D01*
X0212610Y0065993D02*
X0387066Y0065993D01*
X0387064Y0066779D02*
X0229150Y0066779D01*
X0230574Y0067565D02*
X0387061Y0067565D01*
X0387058Y0068351D02*
X0231360Y0068351D01*
X0231930Y0069137D02*
X0387056Y0069137D01*
X0387053Y0069922D02*
X0232256Y0069922D01*
X0232581Y0070708D02*
X0387051Y0070708D01*
X0387048Y0071494D02*
X0232610Y0071494D01*
X0232610Y0072280D02*
X0387046Y0072280D01*
X0387043Y0073066D02*
X0232564Y0073066D01*
X0232238Y0073852D02*
X0387041Y0073852D01*
X0387038Y0074638D02*
X0231913Y0074638D01*
X0231318Y0075424D02*
X0387036Y0075424D01*
X0387033Y0076210D02*
X0230532Y0076210D01*
X0229048Y0076996D02*
X0387031Y0076996D01*
X0387069Y0065207D02*
X0212610Y0065207D01*
X0221673Y0058920D02*
X0153362Y0058920D01*
X0153362Y0058134D02*
X0221673Y0058134D01*
X0221692Y0057348D02*
X0153362Y0057348D01*
X0153362Y0056562D02*
X0222017Y0056562D01*
X0222343Y0055776D02*
X0153362Y0055776D01*
X0153362Y0054990D02*
X0222898Y0054990D01*
X0223684Y0054204D02*
X0153362Y0054204D01*
X0153362Y0053418D02*
X0225073Y0053418D01*
X0225195Y0080139D02*
X0212406Y0080139D01*
X0212081Y0080925D02*
X0223735Y0080925D01*
X0222949Y0081711D02*
X0211723Y0081711D01*
X0210937Y0082497D02*
X0222364Y0082497D01*
X0222038Y0083283D02*
X0210027Y0083283D01*
X0210007Y0087213D02*
X0222035Y0087213D01*
X0222360Y0087998D02*
X0210929Y0087998D01*
X0211715Y0088784D02*
X0222941Y0088784D01*
X0223726Y0089570D02*
X0212077Y0089570D01*
X0212403Y0090356D02*
X0225175Y0090356D01*
X0231914Y0099787D02*
X0303561Y0099787D01*
X0303561Y0100573D02*
X0231648Y0100573D01*
X0231214Y0101359D02*
X0303561Y0101359D01*
X0303561Y0102145D02*
X0230555Y0102145D01*
X0223811Y0121007D02*
X0212112Y0121007D01*
X0211787Y0121793D02*
X0223025Y0121793D01*
X0222395Y0122579D02*
X0211013Y0122579D01*
X0210210Y0123365D02*
X0222070Y0123365D01*
X0191928Y0110004D02*
X0189813Y0110004D01*
X0147850Y0130438D02*
X0129637Y0130438D01*
X0130166Y0131224D02*
X0147850Y0131224D01*
X0147850Y0132010D02*
X0130491Y0132010D01*
X0130740Y0132795D02*
X0147850Y0132795D01*
X0147850Y0133581D02*
X0130740Y0133581D01*
X0130740Y0134367D02*
X0147850Y0134367D01*
X0147850Y0135153D02*
X0130505Y0135153D01*
X0130180Y0135939D02*
X0147850Y0135939D01*
X0147850Y0136725D02*
X0129672Y0136725D01*
X0128886Y0137511D02*
X0147850Y0137511D01*
X0147850Y0138297D02*
X0127412Y0138297D01*
X0127853Y0139083D02*
X0147850Y0139083D01*
X0147850Y0139869D02*
X0129068Y0139869D01*
X0129854Y0140655D02*
X0147850Y0140655D01*
X0147850Y0141441D02*
X0130256Y0141441D01*
X0130581Y0142226D02*
X0147850Y0142226D01*
X0147850Y0143012D02*
X0130740Y0143012D01*
X0130740Y0143798D02*
X0147850Y0143798D01*
X0147850Y0144584D02*
X0130740Y0144584D01*
X0130416Y0145370D02*
X0147850Y0145370D01*
X0147850Y0146156D02*
X0130090Y0146156D01*
X0129455Y0146942D02*
X0147850Y0146942D01*
X0147850Y0147728D02*
X0128669Y0147728D01*
X0128377Y0149300D02*
X0147850Y0149300D01*
X0147850Y0150086D02*
X0129285Y0150086D01*
X0130020Y0150871D02*
X0147850Y0150871D01*
X0147850Y0151657D02*
X0130346Y0151657D01*
X0130671Y0152443D02*
X0147850Y0152443D01*
X0147850Y0153229D02*
X0130740Y0153229D01*
X0130740Y0154015D02*
X0147850Y0154015D01*
X0147850Y0154801D02*
X0130651Y0154801D01*
X0130326Y0155587D02*
X0147850Y0155587D01*
X0147850Y0156373D02*
X0130000Y0156373D01*
X0129238Y0157159D02*
X0147850Y0157159D01*
X0147850Y0148514D02*
X0126888Y0148514D01*
X0105724Y0142226D02*
X0100326Y0142226D01*
X0101156Y0141441D02*
X0105724Y0141441D01*
X0105724Y0140655D02*
X0101792Y0140655D01*
X0102117Y0139869D02*
X0105724Y0139869D01*
X0105724Y0139083D02*
X0102381Y0139083D01*
X0102381Y0138297D02*
X0105724Y0138297D01*
X0105724Y0137511D02*
X0102381Y0137511D01*
X0102096Y0136725D02*
X0105724Y0136725D01*
X0105724Y0135939D02*
X0101770Y0135939D01*
X0101104Y0135153D02*
X0105724Y0135153D01*
X0105724Y0134367D02*
X0100201Y0134367D01*
X0098953Y0132795D02*
X0105724Y0132795D01*
X0105724Y0132010D02*
X0100587Y0132010D01*
X0101373Y0131224D02*
X0105724Y0131224D01*
X0105724Y0130438D02*
X0101881Y0130438D01*
X0102207Y0129652D02*
X0105724Y0129652D01*
X0105724Y0128866D02*
X0102381Y0128866D01*
X0102381Y0128080D02*
X0105724Y0128080D01*
X0105129Y0127294D02*
X0102331Y0127294D01*
X0102006Y0126508D02*
X0104343Y0126508D01*
X0105724Y0133581D02*
X0054587Y0133581D01*
X0054933Y0132795D02*
X0061473Y0132795D01*
X0059839Y0132010D02*
X0055258Y0132010D01*
X0053801Y0134367D02*
X0060224Y0134367D01*
X0059321Y0135153D02*
X0052720Y0135153D01*
X0045413Y0140655D02*
X0042428Y0140655D01*
X0042428Y0141441D02*
X0046832Y0141441D01*
X0044627Y0139869D02*
X0042428Y0139869D01*
X0042428Y0139083D02*
X0043841Y0139083D01*
X0043055Y0138297D02*
X0042244Y0138297D01*
X0042269Y0137511D02*
X0041919Y0137511D01*
X0041483Y0136725D02*
X0041483Y0136725D01*
X0040698Y0135939D02*
X0040697Y0135939D01*
X0032910Y0147728D02*
X0032890Y0147728D01*
X0032890Y0148514D02*
X0033235Y0148514D01*
X0032890Y0149300D02*
X0034005Y0149300D01*
X0054831Y0112362D02*
X0060425Y0112362D01*
X0059405Y0111576D02*
X0055055Y0111576D01*
X0045816Y0104503D02*
X0045200Y0104503D01*
X0059757Y0091928D02*
X0005827Y0091928D01*
X0005827Y0091142D02*
X0058971Y0091142D01*
X0058510Y0090356D02*
X0005827Y0090356D01*
X0005827Y0089570D02*
X0058184Y0089570D01*
X0058044Y0088784D02*
X0005827Y0088784D01*
X0005827Y0087998D02*
X0058044Y0087998D01*
X0058128Y0087213D02*
X0005827Y0087213D01*
X0005827Y0086427D02*
X0058453Y0086427D01*
X0058834Y0085641D02*
X0005827Y0085641D01*
X0005827Y0084855D02*
X0059620Y0084855D01*
X0059540Y0081711D02*
X0030156Y0081711D01*
X0030942Y0080925D02*
X0058754Y0080925D01*
X0058420Y0080139D02*
X0031408Y0080139D01*
X0031734Y0079353D02*
X0058095Y0079353D01*
X0058044Y0078568D02*
X0031817Y0078568D01*
X0031817Y0077782D02*
X0058044Y0077782D01*
X0058217Y0076996D02*
X0031611Y0076996D01*
X0031285Y0076210D02*
X0058543Y0076210D01*
X0059051Y0075424D02*
X0030645Y0075424D01*
X0029646Y0074638D02*
X0059837Y0074638D01*
X0061276Y0092714D02*
X0005827Y0092714D01*
X0005827Y0093500D02*
X0085154Y0093500D01*
X0100426Y0105289D02*
X0138167Y0105289D01*
X0140094Y0102145D02*
X0128066Y0102145D01*
X0116548Y0074638D02*
X0100589Y0074638D01*
X0061079Y0052632D02*
X0005827Y0052632D01*
X0005827Y0051846D02*
X0059675Y0051846D01*
X0058889Y0051061D02*
X0005827Y0051061D01*
X0005827Y0050275D02*
X0058476Y0050275D01*
X0058151Y0049489D02*
X0005827Y0049489D01*
X0005827Y0048703D02*
X0058044Y0048703D01*
X0058044Y0047917D02*
X0005827Y0047917D01*
X0005827Y0047131D02*
X0058161Y0047131D01*
X0058487Y0046345D02*
X0005827Y0046345D01*
X0005827Y0045559D02*
X0058915Y0045559D01*
X0059701Y0044773D02*
X0005827Y0044773D01*
X0005827Y0043987D02*
X0061141Y0043987D01*
X0010866Y0022768D02*
X0005827Y0022768D01*
X0005827Y0021982D02*
X0008969Y0021982D01*
X0007508Y0021196D02*
X0005827Y0021196D01*
X0005827Y0020410D02*
X0006722Y0020410D01*
X0005936Y0019624D02*
X0005827Y0019624D01*
X0005827Y0029841D02*
X0147850Y0029841D01*
X0147850Y0030627D02*
X0005827Y0030627D01*
X0005827Y0031413D02*
X0147850Y0031413D01*
X0147850Y0032199D02*
X0005827Y0032199D01*
X0005827Y0094286D02*
X0022102Y0094286D01*
X0020605Y0095072D02*
X0005827Y0095072D01*
X0005827Y0095858D02*
X0019819Y0095858D01*
X0019432Y0096644D02*
X0005827Y0096644D01*
X0005827Y0097429D02*
X0019107Y0097429D01*
X0019080Y0098215D02*
X0005827Y0098215D01*
X0005827Y0099001D02*
X0019080Y0099001D01*
X0019343Y0099787D02*
X0005827Y0099787D01*
X0005827Y0100573D02*
X0019669Y0100573D01*
X0020390Y0101359D02*
X0005827Y0101359D01*
X0005827Y0102145D02*
X0021583Y0102145D01*
X0153362Y0173663D02*
X0386719Y0173663D01*
X0386716Y0174449D02*
X0153362Y0174449D01*
X0153362Y0175235D02*
X0386714Y0175235D01*
X0386711Y0176021D02*
X0153362Y0176021D01*
X0153362Y0176807D02*
X0386709Y0176807D01*
X0386706Y0177593D02*
X0153362Y0177593D01*
X0153362Y0178378D02*
X0386704Y0178378D01*
X0386701Y0179164D02*
X0153362Y0179164D01*
X0153362Y0179950D02*
X0386699Y0179950D01*
X0386696Y0180736D02*
X0153362Y0180736D01*
X0153362Y0181522D02*
X0386694Y0181522D01*
X0386691Y0182308D02*
X0153362Y0182308D01*
X0153362Y0183094D02*
X0386689Y0183094D01*
X0386686Y0183880D02*
X0153362Y0183880D01*
X0193921Y0216102D02*
X0386582Y0216102D01*
X0386580Y0216888D02*
X0193921Y0216888D01*
X0193921Y0217674D02*
X0386577Y0217674D01*
X0386575Y0218460D02*
X0193921Y0218460D01*
X0193921Y0219246D02*
X0386572Y0219246D01*
X0386569Y0220032D02*
X0193921Y0220032D01*
X0193921Y0220818D02*
X0386567Y0220818D01*
X0386564Y0221604D02*
X0193904Y0221604D01*
X0193579Y0222390D02*
X0386562Y0222390D01*
X0386559Y0223175D02*
X0193253Y0223175D01*
X0192593Y0223961D02*
X0386557Y0223961D01*
X0386554Y0224747D02*
X0382073Y0224747D01*
X0383971Y0225533D02*
X0386552Y0225533D01*
X0386549Y0226319D02*
X0385204Y0226319D01*
X0385990Y0227105D02*
X0386547Y0227105D01*
X0376620Y0224747D02*
X0191807Y0224747D01*
X0185313Y0223961D02*
X0181767Y0223961D01*
X0182494Y0223175D02*
X0184652Y0223175D01*
X0184327Y0222390D02*
X0182959Y0222390D01*
X0183238Y0221604D02*
X0184001Y0221604D01*
X0183984Y0220818D02*
X0183346Y0220818D01*
X0183346Y0220032D02*
X0183984Y0220032D01*
X0183984Y0219246D02*
X0183346Y0219246D01*
X0183346Y0218460D02*
X0183984Y0218460D01*
X0177576Y0224747D02*
X0153362Y0224747D01*
X0153362Y0223961D02*
X0176139Y0223961D01*
X0175411Y0223175D02*
X0153362Y0223175D01*
X0153362Y0220818D02*
X0174559Y0220818D01*
X0174559Y0220032D02*
X0153362Y0220032D01*
X0153362Y0219246D02*
X0174559Y0219246D01*
X0174559Y0218460D02*
X0153362Y0218460D01*
X0153362Y0227105D02*
X0372703Y0227105D01*
X0371917Y0227891D02*
X0153362Y0227891D01*
X0153362Y0228677D02*
X0371220Y0228677D01*
X0370894Y0229463D02*
X0153362Y0229463D01*
X0153362Y0230249D02*
X0370569Y0230249D01*
X0370243Y0231035D02*
X0153362Y0231035D01*
X0153362Y0231821D02*
X0369918Y0231821D01*
X0369835Y0232606D02*
X0153362Y0232606D01*
X0153362Y0233392D02*
X0369835Y0233392D01*
X0369835Y0234178D02*
X0153362Y0234178D01*
X0153362Y0234964D02*
X0369835Y0234964D01*
X0369835Y0235750D02*
X0153362Y0235750D01*
X0153362Y0236536D02*
X0370137Y0236536D01*
X0370463Y0237322D02*
X0153362Y0237322D01*
X0153362Y0238108D02*
X0370788Y0238108D01*
X0371114Y0238894D02*
X0153362Y0238894D01*
X0153362Y0239680D02*
X0371661Y0239680D01*
X0372447Y0240466D02*
X0153362Y0240466D01*
X0247090Y0193311D02*
X0273960Y0193311D01*
X0274386Y0194097D02*
X0248390Y0194097D01*
X0249176Y0194883D02*
X0275171Y0194883D01*
X0276086Y0195669D02*
X0249848Y0195669D01*
X0250173Y0196454D02*
X0277984Y0196454D01*
X0288197Y0196454D02*
X0325984Y0196454D01*
X0324086Y0195669D02*
X0290095Y0195669D01*
X0291010Y0194883D02*
X0323171Y0194883D01*
X0322386Y0194097D02*
X0291796Y0194097D01*
X0292221Y0193311D02*
X0321960Y0193311D01*
X0321635Y0192525D02*
X0292546Y0192525D01*
X0292859Y0191739D02*
X0321322Y0191739D01*
X0321322Y0190953D02*
X0292859Y0190953D01*
X0292859Y0190167D02*
X0321322Y0190167D01*
X0321344Y0189381D02*
X0292837Y0189381D01*
X0292511Y0188595D02*
X0321670Y0188595D01*
X0321995Y0187809D02*
X0292186Y0187809D01*
X0291711Y0187023D02*
X0322470Y0187023D01*
X0323256Y0186238D02*
X0290925Y0186238D01*
X0289891Y0185452D02*
X0324290Y0185452D01*
X0336197Y0196454D02*
X0363535Y0196454D01*
X0363185Y0197240D02*
X0250499Y0197240D01*
X0250740Y0198026D02*
X0362860Y0198026D01*
X0362534Y0198812D02*
X0250740Y0198812D01*
X0250740Y0199598D02*
X0362520Y0199598D01*
X0362520Y0200384D02*
X0250740Y0200384D01*
X0250740Y0201170D02*
X0362520Y0201170D01*
X0362520Y0201956D02*
X0250740Y0201956D01*
X0250740Y0202742D02*
X0362520Y0202742D01*
X0362520Y0203528D02*
X0250740Y0203528D01*
X0250740Y0204314D02*
X0362520Y0204314D01*
X0362520Y0205099D02*
X0250740Y0205099D01*
X0250740Y0205885D02*
X0362520Y0205885D01*
X0362520Y0206671D02*
X0250740Y0206671D01*
X0250740Y0207457D02*
X0362520Y0207457D01*
X0362520Y0208243D02*
X0250740Y0208243D01*
X0250740Y0209029D02*
X0362520Y0209029D01*
X0362520Y0209815D02*
X0250492Y0209815D01*
X0250166Y0210601D02*
X0362669Y0210601D01*
X0362995Y0211387D02*
X0249841Y0211387D01*
X0249160Y0212173D02*
X0363320Y0212173D01*
X0363862Y0212959D02*
X0248374Y0212959D01*
X0338095Y0195669D02*
X0364321Y0195669D01*
X0365107Y0194883D02*
X0339010Y0194883D01*
X0330120Y0054990D02*
X0315298Y0054990D01*
X0315298Y0054204D02*
X0329032Y0054204D01*
X0328247Y0053418D02*
X0315298Y0053418D01*
X0315298Y0052632D02*
X0327750Y0052632D01*
X0327424Y0051846D02*
X0315298Y0051846D01*
X0315298Y0051061D02*
X0327099Y0051061D01*
X0327061Y0050275D02*
X0315298Y0050275D01*
X0315298Y0049489D02*
X0327061Y0049489D01*
X0327061Y0048703D02*
X0315243Y0048703D01*
X0314918Y0047917D02*
X0327061Y0047917D01*
X0327061Y0047131D02*
X0314592Y0047131D01*
X0314072Y0046345D02*
X0327061Y0046345D01*
X0327061Y0045559D02*
X0313286Y0045559D01*
X0312142Y0044773D02*
X0327061Y0044773D01*
X0371292Y0018838D02*
X0153362Y0018838D01*
X0153362Y0018052D02*
X0370961Y0018052D01*
X0370635Y0017266D02*
X0153362Y0017266D01*
X0153362Y0016480D02*
X0370310Y0016480D01*
X0369984Y0015694D02*
X0153362Y0015694D01*
X0153362Y0014909D02*
X0369835Y0014909D01*
X0369835Y0014123D02*
X0153362Y0014123D01*
X0153362Y0013337D02*
X0369835Y0013337D01*
X0369835Y0012551D02*
X0153362Y0012551D01*
X0153362Y0011765D02*
X0369835Y0011765D01*
X0370071Y0010979D02*
X0153362Y0010979D01*
X0153362Y0010193D02*
X0370396Y0010193D01*
X0370722Y0009407D02*
X0153362Y0009407D01*
X0153362Y0008621D02*
X0371047Y0008621D01*
X0371500Y0007835D02*
X0153362Y0007835D01*
X0153362Y0007049D02*
X0372286Y0007049D01*
X0373072Y0006264D02*
X0153362Y0006264D01*
X0153362Y0005478D02*
X0373858Y0005478D01*
X0386615Y0019624D02*
X0387216Y0019624D01*
X0387213Y0020410D02*
X0385829Y0020410D01*
X0385043Y0021196D02*
X0387210Y0021196D01*
X0387208Y0021982D02*
X0383583Y0021982D01*
X0010478Y0224747D02*
X0005827Y0224747D01*
X0005827Y0225533D02*
X0008581Y0225533D01*
X0007347Y0226319D02*
X0005827Y0226319D01*
X0005827Y0227105D02*
X0006561Y0227105D01*
D23*
X0140764Y0126039D03*
X0163598Y0126039D03*
D24*
X0183283Y0111866D02*
X0187220Y0111866D01*
X0183283Y0111866D02*
X0117142Y0111866D01*
X0110685Y0118323D01*
X0095213Y0118323D01*
X0065213Y0128323D02*
X0051000Y0128323D01*
X0050409Y0127732D01*
X0050409Y0116236D01*
X0050134Y0115961D01*
X0040685Y0115764D02*
X0040409Y0116039D01*
X0040409Y0127732D01*
X0040764Y0128087D01*
X0040764Y0131551D01*
X0047535Y0138323D01*
X0065213Y0138323D01*
X0038047Y0108283D02*
X0029740Y0116591D01*
X0029740Y0175646D01*
X0034465Y0180370D01*
X0041551Y0180370D01*
X0045488Y0180370D01*
X0040724Y0108323D02*
X0040685Y0108283D01*
X0038047Y0108283D01*
X0040724Y0108323D02*
X0065213Y0108323D01*
X0109583Y0088441D02*
X0109701Y0088323D01*
X0122890Y0088323D01*
X0122969Y0088244D01*
X0125803Y0088244D01*
X0134031Y0080016D01*
X0140567Y0080016D01*
X0140409Y0079858D01*
X0140409Y0070291D01*
X0140409Y0062811D02*
X0140803Y0062417D01*
X0140803Y0054346D01*
X0140803Y0048441D02*
X0140685Y0048323D01*
X0122890Y0048323D01*
X0095213Y0048323D01*
X0095213Y0058323D02*
X0122890Y0058323D01*
X0122890Y0068323D02*
X0095213Y0068323D01*
X0095213Y0078323D02*
X0122890Y0078323D01*
X0140567Y0087496D02*
X0140567Y0096551D01*
X0140488Y0096630D01*
X0161236Y0106354D02*
X0192732Y0106354D01*
X0198402Y0112024D01*
X0227142Y0112024D01*
M02*
